<?xml version="1.0" standalone="yes"?>
<svg xmlns="http://www.w3.org/2000/svg" width="512" height="512">
<path style="fill:#010f1e; stroke:none;" d="M0 0L0 239L1 239C1.02151 206.515 14.0125 171.216 29.3086 143C35.2577 132.026 46.6864 120.717 50.4367 109C53.8881 98.2174 51 82.3124 51 71C51 65.3833 49.8739 58.5829 54.2284 54.2284C58.7588 49.698 66.1613 51 72 51C84.7162 51 101.775 53.9951 114 50.49C127.921 46.4985 141.307 35.1944 155 29.6034C189.635 15.4615 229.495 7.60062 267 11.1698C293.083 13.652 318.586 18.6834 343 28.4491C357.665 34.3152 372.058 46.4061 387 50.5008C393.378 52.2487 401.414 51 408 51L408 163C408 177.003 404.024 198.322 410.674 211C419.906 228.602 448.241 228.481 456.471 210C460.533 200.878 459 189.725 459 180L459 123L460 123L475.753 152L482.39 162.397L512 167L512 0L0 0z"/>
<path style="fill:#f6bf2a; stroke:none;" d="M115 50L115 51L386 51C370.954 35.4826 341.356 26.3875 321 20.5787C252.641 1.07144 174.733 10.4745 115 50z"/>
<path style="fill:#39a9b8; stroke:none;" d="M51 123C92.6367 123 134.301 122 176 122L216 122C221.71 122 229.292 123.314 234.786 121.682C241.015 119.832 247.244 101.273 252.093 96C268.136 78.5545 289.495 70.442 313 72.0895C332.53 73.4584 351.627 85.4832 363.076 101C366.843 106.107 369.57 117.51 374.51 120.972C381.834 126.106 399.099 120.881 408 123L408 51L146 51L79 51C72.1951 51 59.6736 48.5964 54.2284 53.4337C49.2399 57.8652 51 67.025 51 73L51 123z"/>
<path style="fill:#e33c5e; stroke:none;" d="M84 71.5471C63.681 75.8578 70.8344 106.603 91 101.581C109.295 97.0247 102.259 67.6734 84 71.5471z"/>
<path style="fill:#f6bf2a; stroke:none;" d="M136 71.5085C115.444 74.4603 120.594 104.971 141 101.786C159.808 98.851 154.562 68.843 136 71.5085M294 72.4391C252.464 78.9262 224.309 122.468 236.438 163C241.854 181.099 254.065 191.063 265.674 205C269.843 210.005 272.329 220.429 277.498 223.972C280.947 226.336 288.005 225 292 225C304.464 225 318.661 226.914 330.945 224.852C337.478 223.755 345.858 204.208 351.004 199C363.372 186.482 374.356 172.073 376.711 154C382.919 106.346 341.829 64.969 294 72.4391z"/>
<path style="fill:#dadff4; stroke:none;" d="M303.004 102.667C296.915 104.439 295.163 110.315 295.015 116C294.619 131.135 292.636 149.107 295.329 164C296.401 169.923 301.581 175.177 307.996 173.332C313.21 171.832 315.663 167.09 315.957 162C316.84 146.713 319.037 125.906 315.606 111C314.3 105.329 308.958 100.935 303.004 102.667z"/>
<path style="fill:#f6bf2a; stroke:none;" d="M50 110C-1.46175 176.768 -14.3992 270.277 14.9498 349C22.599 369.517 33.5969 398.832 51 413L51 199L51 137L50 110z"/>
<path style="fill:#dadff4; stroke:none;" d="M51 123L51 321L51 383C51 392.401 49.228 403.826 51.3032 413C52.6748 419.063 58.9514 424.562 63 429C73.6734 440.699 86.8307 457.165 102 463C107.691 453.162 126.168 456.996 136 457C139.919 457.002 144.465 456.561 147.891 458.858C162.618 468.73 138.149 473 132 473L116 473L116 474C150.934 495.385 192.575 511.145 234 512L234 453C234 447.233 231.81 435.805 236.318 431.434C239.58 428.271 244.852 429 249 429L278 429L372 429C383.598 429 402.191 425.434 412.981 429.742C421.983 433.337 417.643 446.209 414 452C425.27 444.062 444.532 427.26 449.272 414C452.846 404.005 450 388.582 450 378L450 297L278 297L236 297C230.31 297 222.85 298.012 218.419 293.581C213.277 288.439 215 278.58 215 272L215 215C209.904 215 202.672 216.29 198.044 213.821C191.72 210.448 192.458 202.328 199.015 199.742C203.647 197.916 210.093 199 215 199L215 189L151 189C144.986 189 132.066 190.791 132.066 181.424C132.066 171.967 144.811 173 151 173L215 173C217.218 162.013 227.016 163 236 163C234.799 148.298 233.971 136.681 237 122L51 123M374 122C376.985 136.472 376.88 148.441 375 163L408 163L407.285 138L406.972 123.603L398 122L374 122z"/>
<path style="fill:#f6bf2a; stroke:none;" d="M459 123L459 164L481 163C477.402 150.512 468.592 131.855 459 123z"/>
<path style="fill:#39a9b8; stroke:none;" d="M407 136L407 161L408 161L407 136M458 161L458 164L459 164L458 161z"/>
<path style="fill:#f6bf2a; stroke:none;" d="M221 163L222 164L221 163z"/>
<path style="fill:#e33c5e; stroke:none;" d="M215 174L151 174C144.765 174 131.515 172.055 132.207 181.996C132.843 191.135 145.836 189 152 189L215 189L215 199C209.816 199 202.935 197.837 198.105 200.009C191.916 202.793 192.31 210.762 198.044 213.821C202.672 216.29 209.904 215 215 215C215 234.778 213.397 255.362 215.715 275C216.344 280.335 213.866 290.372 218.434 294.258C222.318 297.562 230.275 295.899 235 296.015C248.989 296.357 262.947 297 277 297C332.902 297 389.011 296 445 296C460.652 296 476.353 295.631 492 296.015C497.514 296.15 505.121 298.989 509.682 294.566C514.781 289.623 512 274.616 512 268L512 194C512 187.053 515.006 170.596 509.682 165.434C506.052 161.914 499.603 163 495 163C482.962 163 471.057 164 459 164C459 177.768 462.184 196.169 456.471 209C453.651 215.333 446.074 218.285 443.603 224.184C440.799 230.881 445.636 245.261 433.001 244.677C420.395 244.095 425.581 230.402 422.397 223.375C419.714 217.457 412.425 214.542 409.765 208C404.626 195.365 408 176.496 408 163C399.393 163 383.146 159.818 375.419 163.603C371.11 165.714 368.369 176.863 365.771 181C356.938 195.064 339.044 204.828 335.234 222C332.854 232.727 345.877 241.286 339.973 251.871C336.232 258.578 327.863 261.232 322.603 265.973C320.392 267.965 320.866 271.506 318.682 273.682C314.785 277.567 299.98 277.338 295.044 275.397C290.167 273.479 291.406 267.987 287.683 265.39C282.239 261.592 274.454 258.014 271.027 251.871C266.808 244.308 272.824 239.141 274.691 232.791C277.478 223.308 273.943 215.852 268.64 208C257.868 192.049 242.375 182.651 237 163C226.841 163 216.729 161.493 215 174z"/>
<path style="fill:#f6bf2a; stroke:none;" d="M215.333 169.667L215.667 170.333L215.333 169.667M138 173L138 174L215 174L191 173L138 173z"/>
<path style="fill:#39a9b8; stroke:none;" d="M433 173L434 174L433 173z"/>
<path style="fill:#f6bf2a; stroke:none;" d="M135 174L136 175L135 174z"/>
<path style="fill:#39a9b8; stroke:none;" d="M430 174L428 178L429 178L430 174z"/>
<path style="fill:#dadff4; stroke:none;" d="M431.231 175.047C426.121 177.974 430.699 185.738 435.567 182.777C440.211 179.953 436.28 172.156 431.231 175.047z"/>
<path style="fill:#f6bf2a; stroke:none;" d="M134 175L135 176L134 175M133 176L134 177L133 176z"/>
<path style="fill:#39a9b8; stroke:none;" d="M438 177L438 181L439 181L438 177M428.333 180.667L428.667 181.333L428.333 180.667z"/>
<path style="fill:#f6bf2a; stroke:none;" d="M131 181L132 182L131 181z"/>
<path style="fill:#39a9b8; stroke:none;" d="M437.333 181.667L437.667 182.333L437.333 181.667M429 182L430 183L429 182M430.667 183.333L431.333 183.667L430.667 183.333M435.667 183.333L436.333 183.667L435.667 183.333z"/>
<path style="fill:#f6bf2a; stroke:none;" d="M133 186L134 187L133 186M134 187L135 188L134 187M136 188L137 189L136 188M137 199L138 200L137 199z"/>
<path style="fill:#e33c5e; stroke:none;" d="M138.015 199.573C130.987 201.654 130.219 211.043 137.044 213.991C144.873 217.372 170.109 217.492 177.895 213.991C184.659 210.949 183.832 201.869 176.985 199.653C168.02 196.751 147.051 196.897 138.015 199.573z"/>
<path style="fill:#f6bf2a; stroke:none;" d="M177 199L178 200L177 199M198 199L199 200L198 199M179 200L180 201L179 200M196 200L197 201L196 200M194 202L195 203L194 202M132 203L133 204L132 203M193 204L194 205L193 204M131 206L132 207L131 206M182 209L183 210L182 209M193 209L194 210L193 209M132 210L133 211L132 210M181 211L182 212L181 211M194 211L195 212L194 211M195 212L196 213L195 212M135 213L136 214L135 213M179 213L180 214L179 213M196 213L197 214L196 213M137 214L138 215L137 214M177 214L178 215L177 214M198 214L199 215L198 214z"/>
<path style="fill:#39a9b8; stroke:none;" d="M423 222C423 227.624 421.854 234.792 424.688 239.895C428.039 245.928 437.238 246.669 441.258 240.891C444.716 235.921 442.627 227.767 444 222C436.35 223.749 430.617 224.414 423 222z"/>
<path style="fill:#f6bf2a; stroke:none;" d="M139 224L139 225L155 225L139 224M200 224L201 225L200 224z"/>
<path style="fill:#e33c5e; stroke:none;" d="M136.059 226.028C130.988 228.805 130.988 236.195 136.059 238.972C140.398 241.349 154.518 241.392 158.775 238.821C163.244 236.123 163.244 228.877 158.775 226.179C154.518 223.608 140.398 223.651 136.059 226.028z"/>
<path style="fill:#f6bf2a; stroke:none;" d="M158 225L159 226L158 225M197 225L198 226L197 225z"/>
<path style="fill:#e33c5e; stroke:none;" d="M198.044 225.746C188.808 229.374 195.008 242.935 203.891 239.254C212.074 235.863 206.877 222.277 198.044 225.746z"/>
<path style="fill:#f6bf2a; stroke:none;" d="M204 225L205 226L204 225z"/>
<path style="fill:#39a9b8; stroke:none;" d="M276.603 226.028C274.415 227.76 275.258 231.328 274.016 233.625C264.751 250.765 274.864 255.732 287.683 265.923C290.432 268.108 289.807 272.12 292.434 274.397C296.245 277.699 314.834 277.63 318.682 274.397C321.143 272.329 320.488 268.804 322.603 266.585C327.553 261.391 338.512 259.022 340.682 250.946C342.789 243.103 339.254 239.185 336.598 232.791C335.592 230.369 336.477 226.979 333.682 225.603C325.753 221.702 308.834 225 300 225C294.53 225 281.012 222.539 276.603 226.028z"/>
<path style="fill:#f6bf2a; stroke:none;" d="M134 226L135 227L134 226M133 227L134 228L133 227M161 228L162 229L161 228M207 228L208 229L207 228M193 229L194 230L193 229M162.333 230.667L162.667 231.333L162.333 230.667M208 230L208 235L209 235L208 230M131 232L132 233L131 232M162.333 233.667L162.667 234.333L162.333 233.667M193 235L194 236L193 235M161 236L162 237L161 236M207 236L208 237L207 236M133 237L134 238L133 237M134 238L135 239L134 238M158 239L159 240L158 239M197 239L198 240L197 239M204 239L205 240L204 239M139 240L139 241L155 241L139 240M215 273L215 289L216 289L215 273z"/>
<path style="fill:#010f1e; stroke:none;" d="M0 284L0 512L228 512L228 511C139.646 510.756 56.4825 440.818 21.3086 364C13.8992 347.818 8.34274 330.431 4.80093 313C2.98103 304.043 3.46105 292.245 0 284M511 293C507.841 295.522 501.397 295.856 499.175 298.603C494.334 304.59 494.45 320.397 492.29 328C486.52 348.309 478.471 367.599 468.139 386C430.961 452.215 351.664 510.783 273 511L273 512L512 512L512 358L512 314L511 293z"/>
<path style="fill:#f6bf2a; stroke:none;" d="M223 296L223 297L241 297L223 296M288 296L288 297L450 297L450 413L451 413C476.553 377.323 490.922 339.878 499 297C479.568 291.256 452.305 296 432 296L288 296z"/>
<path style="fill:#39a9b8; stroke:none;" d="M106.055 345.742C100.119 348.194 100.119 356.806 106.055 359.258C114.256 362.645 128.178 360 137 360C140.417 360 144.827 360.678 147.941 358.972C154.069 355.616 152.313 347.195 145.995 345.434C137.358 343.026 114.343 342.319 106.055 345.742M234 512C286.992 512 337.474 504.198 383 474.91C394.323 467.626 427.843 450.007 416.972 432.228C414.714 428.535 409.728 429.006 406 429L377 429L272 429C264.123 429 241.082 425.129 235.603 431.434C231.805 435.805 234 447.524 234 453L234 512z"/>
<path style="fill:#dadff4; stroke:none;" d="M411 453L412 454L411 453M410 454L411 455L410 454M409 455L410 456L409 455M408 456L409 457L408 456z"/>
<path style="fill:#39a9b8; stroke:none;" d="M101 464C114.906 472.581 123.767 473.197 140 472.996C146.324 472.918 155.424 469.22 150.82 461.133C148.098 456.353 141.683 457.002 137 457C126.455 456.996 106.262 452.659 101 464z"/>
<path style="fill:#dadff4; stroke:none;" d="M405 458L406 459L405 458M404 459L405 460L404 459M403 460L404 461L403 460M401 461L402 462L401 461M400 462L401 463L400 462M399 463L400 464L399 463M397 464L398 465L397 464M396 465L397 466L396 465M394 466L395 467L394 466M393 467L394 468L393 467M392 468L393 469L392 468M390 469L391 470L390 469M389 470L390 471L389 470M387 471L388 472L387 471M386 472L387 473L386 472M376 478L377 479L376 478M353 490L354 491L353 490M346 493L347 494L346 493M330 499L331 500L330 499M300 507L301 508L300 507M295 508L296 509L295 508M281 510L282 511L281 510M272 511L273 512L272 511z"/>
</svg>
