<?xml version="1.0" standalone="yes"?>
<svg xmlns="http://www.w3.org/2000/svg" width="500" height="500">
<path style="fill:#010305; stroke:none;" d="M0 0L0 500L500 500L500 0L0 0z"/>
<path style="fill:#4158ba; stroke:none;" d="M155 52L153 56L154 56L156 53L157 56L158 56L157 52L155 52z"/>
<path style="fill:#5faae3; stroke:none;" d="M155 53L150 56L152 64L160 64L159 59L162 56L155 53z"/>
<path style="fill:#dfedfb; stroke:none;" d="M317 56C315.523 61.9144 317.997 67.2736 324 69L319 56L317 56z"/>
<path style="fill:#4158ba; stroke:none;" d="M151 58L152 59L151 58M160 58L161 59L160 58M159 59L160 60L159 59M155 62L156 63L155 62z"/>
<path style="fill:#f8c743; stroke:none;" d="M213 81C210.75 75.1199 201.178 74.4479 197.752 80.223C195.874 83.3875 199.169 85.3858 202.005 84.6389C205.915 83.609 208.837 81.4264 213 81z"/>
<path style="fill:#dfedfb; stroke:none;" d="M78 189L79 189L81 185L82 185C91.007 207.43 87.1968 238.208 116 248C117.814 240.269 110.655 233.414 113.742 226.105C116.011 220.732 128.837 215.823 131.677 223.048C134.152 229.342 129.357 242.918 126 248C135.497 247.777 145.119 240.978 153 236L137 200L138 199C145.5 204.589 151.865 218.824 157.136 227C159.034 229.944 162.489 234.253 161.431 238C158.652 247.832 145.076 252.433 139.603 260.174C135.266 266.309 138 280.712 138 288C138 291.645 136.214 300.558 138.832 303.357C141.867 306.602 152.994 303.298 157 303.025C174.015 301.863 190.985 300.082 208 298.91C212.99 298.567 222.689 295.453 226 300L227 300L224.758 281L231.262 270L235 248C219.89 241.709 210.308 230.542 197 221.969C179.326 210.584 160.61 204.418 146.184 188C137.242 177.823 127.814 156.408 145 148.653C149.927 146.43 155.741 147 161 147C160.367 138.991 147.767 129.787 155.148 123.434C162.774 116.87 185.312 121 195 121L304 121C314.419 121 338.894 116.525 346.768 124.279C353.415 130.824 341.006 138.863 341 147C361.945 147.014 369.893 163.129 358.931 181C346.103 201.915 324.504 208.807 305 220.994C298.359 225.144 293.322 231.825 287 236.522C281.974 240.255 271.343 243.227 268.028 248.394C261.693 258.266 273.518 271.723 275.874 280C277.211 284.695 273.598 288.496 273.147 293C272.33 301.171 274.119 322.713 278.434 329.682C282.488 336.231 291.802 330.263 295 341C309.711 341.174 323.515 357.437 338 354C334.084 332.894 356.816 317.502 363.178 299C365.572 292.038 360.086 275.714 356.982 269.152C353.696 262.204 338.815 272.839 333 271.808C324.105 270.231 317.681 257.351 312.115 251.209C308.912 247.675 305.603 245.675 304 241L311 242C314.055 247.885 328.597 263.998 336 262.688C341.272 261.754 346.517 255.374 351 252.545C356.427 249.12 362.073 248.801 368 247C360.493 238.627 353.896 215.323 374 218.218C383.168 219.538 385.336 230.202 393.015 233.95C398.526 236.64 407.5 234.275 410.258 241.044C412.288 246.028 405.396 261.283 409.604 263.677C414.452 266.434 431.933 248.78 432.096 244C432.271 238.895 427.978 232.566 426 228C419.293 212.522 409.122 198.78 403 183C406.526 183 412.661 184.133 415.397 181.397C419.902 176.891 417.013 160.087 417 154C416.995 151.341 417.467 147.674 415.397 145.603C411.76 141.966 400.802 144 396 144C396 121.614 396.665 91.8576 372 81.4645C358.327 75.703 342.945 77.8878 329 81.375C300.93 88.3944 275.743 103.656 248 111.573C236.674 114.805 223.837 117.721 212 116.91C169.184 113.978 121.41 90.8854 90.4398 135C86.2421 140.979 83.1303 147.974 81.1551 155C77.9043 166.564 77.7567 177.211 78 189z"/>
<path style="fill:#f8c743; stroke:none;" d="M260 79C256.901 84.1681 254.781 85.5512 249 87C252.093 91.6031 254.283 94.3304 253 100L268 101L272 87C266.504 85.3058 264.047 84.7874 262 79L260 79M107 88C104.639 93.4218 106.276 98.8309 112 101L107 88z"/>
<path style="fill:#5faae3; stroke:none;" d="M333 98L334 99L333 98z"/>
<path style="fill:#4158ba; stroke:none;" d="M330 100L332 105L340 102C337.341 97.6798 334.357 98.1757 330 100z"/>
<path style="fill:#5faae3; stroke:none;" d="M338 98L339 99L338 98M339 100L340 101L339 100M330 102L331 103L330 102M338 102L338 103L341 103L338 102M331 104L332 105L331 104M334 104L335 105L334 104M332 105L333 106L332 105z"/>
<path style="fill:#f8c743; stroke:none;" d="M161 147C155.143 147 148.338 146.198 143.004 149.14C128.061 157.38 137.306 178.373 145.326 188C159.257 204.724 178.466 210.675 196 221.969C209.434 230.623 218.869 243.353 235 248L231.262 269L224.438 281L227.66 295L223 332C214.828 332 207.751 331.359 206 341L295 341C292.85 329.163 282.563 336.368 278.434 328.852C274.365 321.445 272.748 302.464 273.222 294C273.5 289.032 277.472 285.206 276.236 280C274.198 271.414 262.117 259.444 268.032 249.214C271.269 243.613 282.749 240.422 288 236.522C294.322 231.825 299.359 225.144 306 220.994C325.344 208.906 347.283 202.159 359.535 181C370.289 162.431 361.945 147.002 341 147C341.029 138.881 354.124 131.487 347.566 124.279C344.137 120.51 338.622 121.002 334 121L304 121L195 121C185.298 121 163.14 116.894 155.148 122.742C146.547 129.037 160.039 139.444 161 147z"/>
<path style="fill:#dfedfb; stroke:none;" d="M209 132C214.685 134.501 221.442 145.441 227 140C221.45 137.292 215.726 125.972 209 132z"/>
<path style="fill:#5faae3; stroke:none;" d="M114 141L114 148L118 146L114 141M372 146L373 147L372 146z"/>
<path style="fill:#dfedfb; stroke:none;" d="M187 209C179.763 197.263 172.359 186.101 167.692 173C166.072 168.453 164.843 157.757 160.686 155.028C146.573 145.762 140.135 163.377 144.475 174C150.882 189.678 170.985 204.386 187 209M316 208C330.445 201.954 347.052 190.285 354.19 176C359.124 166.124 357.204 149.72 342.133 154.434C337.247 155.962 337.022 163.865 335.645 168C330.854 182.384 321.243 194.167 316 208z"/>
<path style="fill:#5faae3; stroke:none;" d="M389 156L389 171C396.976 167.806 395.969 159.813 389 156M275 168L276 169L275 168z"/>
<path style="fill:#4158ba; stroke:none;" d="M275 169C269.637 172.3 258.821 172.835 260 181C263.976 178.406 277.539 174.283 275 169z"/>
<path style="fill:#5faae3; stroke:none;" d="M273 170L274 171L273 170M276 170L277 171L276 170M270 171L271 172L270 171M266 172L267 173L266 172M275 173L276 174L275 173M262 174L263 175L262 174M273 174L274 175L273 174M268 175L269 176L268 175z"/>
<path style="fill:#f8c743; stroke:none;" d="M81 185L79 198L80 198L80 196L81 196C80.8834 210.079 77.5463 234.152 93 242L102.722 263L102 305C111.106 302.832 128.98 307.4 136.397 301.012C138.884 298.869 138 293.907 138 291C138.001 282.654 136.263 272.102 138.318 264.004C140.76 254.379 156.212 248.887 161.215 239.999C166.098 231.323 149.702 216.825 145.699 210C143.037 205.461 143.14 201.536 138 199L137 200C138.823 212.465 146.604 225.003 153 236C139.337 242.182 124.465 255.968 118 234L117 234L116 248C107.811 243.752 94.6634 232.966 91.6844 224C87.9399 212.729 89.2819 193.368 81 185z"/>
<path style="fill:#dfedfb; stroke:none;" d="M79 194L80 195L79 194M80 196L80 204L81 204L80 196z"/>
<path style="fill:#5faae3; stroke:none;" d="M383 202C387.306 206.117 391.789 203.063 395 199L383 202z"/>
<path style="fill:#dfedfb; stroke:none;" d="M81 213L81 216L82 216L81 213z"/>
<path style="fill:#5faae3; stroke:none;" d="M126.667 218.333L127.333 218.667L126.667 218.333M367 218L368 219L367 218z"/>
<path style="fill:#4158ba; stroke:none;" d="M367 245C364.694 240.96 360.44 234.079 362.618 229.203C364.832 224.245 373.986 231.321 375.543 234.108C377.79 238.129 377 243.568 377 248L408 263C408.164 255.996 413.101 247.946 410.258 241.055C407.649 234.733 400.118 236.916 395 234.772C385.494 230.789 381.51 215.152 369.001 218.438C355.71 221.928 358.387 238.6 367 245z"/>
<path style="fill:#5faae3; stroke:none;" d="M375.667 218.333L376.333 218.667L375.667 218.333z"/>
<path style="fill:#4158ba; stroke:none;" d="M115 238L116 238L116 234C121.011 239.118 121.746 244.732 130 245L127 242L127 241L131 241L131 239C126.512 238.984 120.319 238.84 119.582 233.015C118.538 224.767 134.329 234.003 131.547 223.058C129.797 216.174 118.862 220.144 115.434 223.51C111.43 227.442 113.554 233.439 115 238z"/>
<path style="fill:#5faae3; stroke:none;" d="M365 219L366 220L365 219M378 219L379 220L378 219M121 220L122 221L121 220M364 220L365 221L364 220M380 220L381 221L380 220M118 221L119 222L118 221M131 221L132 222L131 221M363 221L364 222L363 221M381 221L382 222L381 221M362 222L363 223L362 222M114 223L115 224L114 223M132 223L132 227L133 227L132 223M361 224L362 225L361 224M113 225L114 226L113 225M384 225L385 226L384 225M360 226L361 227L360 226z"/>
<path style="fill:#f8c743; stroke:none;" d="M363 226C362.09 231.513 364.587 253.15 374.683 248.392C377.355 247.133 377.033 243.465 376.985 241C376.814 232.359 370.704 228.438 363 226z"/>
<path style="fill:#5faae3; stroke:none;" d="M365 226L366 227L365 226M385 226L386 227L385 226M362.333 227.667L362.667 228.333L362.333 227.667M120 228L119 230L120 228z"/>
<path style="fill:#f8c743; stroke:none;" d="M130 238L130 230C127.575 229.76 123.598 228.107 121.333 229.237C113.32 233.234 125.523 238.815 130 238z"/>
<path style="fill:#5faae3; stroke:none;" d="M123 228L124 229L123 228M359.333 228.667L359.667 229.333L359.333 228.667M368 228L369 229L368 228M125 229L126 230L125 229M387 229L388 230L387 229M372 230L373 231L372 230M374 231L375 232L374 231M332.667 232.333L333.333 232.667L332.667 232.333z"/>
<path style="fill:#4158ba; stroke:none;" d="M330 240L338 237L336 232C330.897 233.117 328.063 234.504 330 240z"/>
<path style="fill:#5faae3; stroke:none;" d="M362 232L362 235L363 235L362 232M390 232L391 233L390 232M113.333 233.667L113.667 234.333L113.333 233.667M119.333 233.667L119.667 234.333L119.333 233.667M116 234L116 240L117 240L116 234M328 234L329 235L328 234M359 234L360 235L359 234M393 234L394 235L393 234M327 235L328 236L327 235M376 235L377 236L376 235M396.667 235.333L397.333 235.667L396.667 235.333M114 236L115 237L114 236M118 236L119 237L118 236M405.667 236.333L406.333 236.667L405.667 236.333M328 237L329 238L328 237M335 237L336 238L335 237M360 237L361 238L360 237M408 237L409 238L408 237M127 238L127 239L131 239L127 238M329 238L330 239L329 238M363 238L364 239L363 238M409 238L410 239L409 238M331 239L332 240L331 239M361 239L362 240L361 239M120 240L121 241L120 240M410 240L411 241L410 240z"/>
<path style="fill:#f8c743; stroke:none;" d="M127 241L127 242L130 242L127 241z"/>
<path style="fill:#5faae3; stroke:none;" d="M130 241L130 244L131 244L130 241z"/>
<path style="fill:#f8c743; stroke:none;" d="M304 241C305.138 246.589 309.431 248.838 312.88 253.043C322.975 265.35 328.393 275.397 345 269L341 260C330.165 265.59 317.412 250.41 311 242L304 241z"/>
<path style="fill:#5faae3; stroke:none;" d="M364 241L365 242L364 241z"/>
<path style="fill:#f8c743; stroke:none;" d="M435 244L436 242L435 242C428.867 247.874 419.938 262.132 411 263.424C407.685 263.903 404.02 261.099 401 260L397 269C401.39 270.703 407.142 274.198 412 273.508C420.049 272.365 426.523 259.642 431.551 254.094C435.958 249.231 441.437 248.457 442 241L435 244z"/>
<path style="fill:#dfedfb; stroke:none;" d="M92 242L93 243L92 242z"/>
<path style="fill:#5faae3; stroke:none;" d="M363 242L364 243L363 242z"/>
<path style="fill:#dfedfb; stroke:none;" d="M435 244L438 242L435 244z"/>
<path style="fill:#5faae3; stroke:none;" d="M122 243L123 244L122 243M364 243L365 244L364 243M365 244L366 245L365 244M367 244L366 246L368 246L367 244M125 245L125 246L129 246L125 245M364 298L365 298L366 296C369.596 298.271 377.974 299.47 381 296L385 295L391 294L388 266C396.517 269.953 398.085 266.47 402 259C388.707 250.204 370.854 243.538 355 249.931C350.91 251.58 341.953 255.906 341.847 261.04C341.606 272.746 352.157 263.865 356.062 268.411C360.872 274.01 363.365 290.717 364 298M410.333 250.667L410.667 251.333L410.333 250.667z"/>
<path style="fill:#dfedfb; stroke:none;" d="M434 250C428.284 257.043 422.046 267.818 414 272.306C408.25 275.514 393.976 273.121 388 271C391.502 289.864 395 307.778 395 327C395 331.85 392.039 344.762 395.603 348.258C404.444 356.928 422.916 337.539 426.715 331C440.22 307.756 441.795 275.55 434 250z"/>
<path style="fill:#5faae3; stroke:none;" d="M409 254L410 255L409 254M408.333 256.667L408.667 257.333L408.333 256.667M404 261L405 262L404 261M406 262L407 263L406 262z"/>
<path style="fill:#f8c743; stroke:none;" d="M181 264C179.933 268.975 180.757 274.93 187 274L181 264z"/>
<path style="fill:#4158ba; stroke:none;" d="M388 266C389.193 273.552 395.747 274.62 402 272L388 266z"/>
<path style="fill:#5faae3; stroke:none;" d="M398 269L399 270L398 269M400 270L401 271L400 270M402 271L403 272L402 271M391 272L392 273L391 272M401 272L402 273L401 272M393 273L394 274L393 273M398.667 273.333L399.333 273.667L398.667 273.333z"/>
<path style="fill:#4158ba; stroke:none;" d="M365 289L366 290L365 289M367 289L367 290L387 290L367 289M388 289L389 290L388 289z"/>
<path style="fill:#5faae3; stroke:none;" d="M309 292L309 297L310 297L309 292z"/>
<path style="fill:#4158ba; stroke:none;" d="M364.667 292.333L365.333 292.667L364.667 292.333M367 292L367 293L387 293L367 292M388 292L389 293L388 292M385 295L381 296C376.772 299.095 369.765 297.599 365 296C357.204 310.644 343.435 325.045 338.649 341C334.826 353.744 339.601 370.268 341.576 383C342.907 391.583 343.208 400.753 346 409L357 407C356.992 395.196 356.718 382.798 355.91 371C355.461 364.435 353.467 356.455 355.564 350C358.097 342.202 367.897 332.333 374 327C374 336.296 372.382 350.465 376.434 358.985C378.963 364.304 385.368 367.836 390 371.14C401.957 379.668 415.429 388.32 429 394L434 381L409 362.139L402 355L402 354C394.049 351.748 393.967 345.113 394.001 338C394.074 322.523 396.74 308.879 391 294L385 295z"/>
<path style="fill:#5faae3; stroke:none;" d="M391 295L392 296L391 295M223 297L223 298L226 298L223 297M392 297L393 298L392 297M211 298L211 299L218 299L211 298z"/>
<path style="fill:#4158ba; stroke:none;" d="M139 305L140 313C130.118 307.858 115.835 310 105 310L105 312L113 312L113 313L103 310L102 310L102 326L103 326L103 314L104 314L115 316.001L142 317L141 311L142 311L146 321L121 321L104 319L104 322L135 323L146 321L168 320.039L225 316L226 298L139 305z"/>
<path style="fill:#5faae3; stroke:none;" d="M198 299L198 300L202 300L198 299M186 300L186 301L190 301L186 300M226 300L226 305L227 305L226 300M362 300L363 301L362 300M393 300L394 301L393 300M175 301L175 302L181 302L175 301M122 304L122 305C127.679 305 133.628 303.873 138 308L104 306L104 305L121 305L121 304C116.327 304 108.562 302.501 104.319 304.603C95.557 308.945 109.812 312.998 113 313L113 312L105 312L105 310C116.546 310 129.05 308.804 140 313C141.707 300.616 130.836 301.382 122 304M162 302L162 303L169 303L162 302M361 302L362 303L361 302M394.333 302.667L394.667 303.333L394.333 302.667M152 303L152 304L155 304L152 303M265 303C263.795 307.947 265.47 311.645 270 314C270.656 309.466 268.103 306.193 265 303z"/>
<path style="fill:#4158ba; stroke:none;" d="M104 305L104 306L138 308C133.044 301.128 111.945 305 104 305M137 304L138 305L137 304z"/>
<path style="fill:#5faae3; stroke:none;" d="M142 304L142 305L145 305L142 304M359 305L360 306L359 305z"/>
<path style="fill:#4158ba; stroke:none;" d="M138 308L139 309L138 308z"/>
<path style="fill:#5faae3; stroke:none;" d="M357 308L358 309L357 308M395 308L396 309L395 308M225 309L225 312L226 312L225 309M356 310L357 311L356 310M141 311L142 317C132.499 317 111.563 319.73 104 314L103 314L102.101 347L87 397C103.066 401.928 99.5209 384.224 110 376L117.64 352L123 325C127.652 330.619 136.021 341.142 136.836 348.576C137.336 353.127 134.35 358.736 133.025 363C129.415 374.62 123.557 387.819 123 400L131 403C138.297 385.473 155.584 362.581 154.867 343C154.605 335.835 149.891 327.492 147 321C136.227 326.991 116.146 322 104 322L104 319L121 321L146 321L141 311M354 313L355 314L354 313M214 316L214 317L219 317L214 316z"/>
<path style="fill:#dfedfb; stroke:none;" d="M148 322C149.959 327.844 161.676 325 167 325L224 325L225 316L148 322z"/>
<path style="fill:#5faae3; stroke:none;" d="M352 316L353 317L352 316M199 317L199 318L206 318L199 317M189 318L189 319L194 319L189 318M351 318L352 319L351 318M178 319L178 320L182 320L178 319M163 320L163 321L170 321L163 320M154 321L154 322L158 322L154 321M349 321L350 322L349 321M348 323L349 324L348 323z"/>
<path style="fill:#dfedfb; stroke:none;" d="M123 325L124 326L123 325z"/>
<path style="fill:#5faae3; stroke:none;" d="M152 325L152 326L191 326C180.726 321.689 163.172 325 152 325M194 325L194 326L224 327C217.479 322.059 202.043 325 194 325M347 325L348 326L347 325z"/>
<path style="fill:#4158ba; stroke:none;" d="M122 326L109.618 372L110 414L118 414C119.973 419.778 129.367 422.996 135 424L130 414L238 414C251.405 414 270.986 420.033 271 402C252.595 414.939 221.39 409 199 409L199 408C214.977 407.67 232.404 403.591 247 397.138C252.494 394.709 259.938 392.528 261 386C250.327 386 233.99 389.094 224.001 385.258C214.048 381.435 214.223 368.883 223.715 364.603C228.559 362.419 236.752 364 242 364C252.684 364 265.224 362.161 275.715 364.089C281.4 365.133 285.846 368.412 292 369L292 368L288 368C286.273 365.272 282.469 363.266 281.752 359.985C279.433 349.383 293.803 353.803 298 356L301 344L302 344L303 346L304 343L268 341L206 341C208.653 329.875 222.251 335.614 223 326L149 326C150.602 331.857 154.897 337.825 154.733 344C154.144 366.144 134.915 386.873 128 407L122 405C124.48 391.692 128.623 378.995 132.424 366C133.969 360.718 137.203 354.58 137.092 349C136.962 342.484 128.176 327.927 122 326z"/>
<path style="fill:#5faae3; stroke:none;" d="M346 326L347 327L346 326M372.667 327.333L373.333 327.667L372.667 327.333M345 328L346 329L345 328z"/>
<path style="fill:#dfedfb; stroke:none;" d="M355 354L375 355L374 328C366.276 331.911 355.588 345.244 355 354z"/>
<path style="fill:#5faae3; stroke:none;" d="M394 330L394 341L395 341L394 330M222 331L223 332L222 331M343 331L344 332L343 331M369 331L370 332L369 331M368 332L369 333L368 332z"/>
<path style="fill:#4158ba; stroke:none;" d="M102 333L102 346L103 346L102 333z"/>
<path style="fill:#5faae3; stroke:none;" d="M342 333L343 334L342 333M341 335L342 336L341 335M206 337L207 338L206 337M364 337L365 338L364 337M339 338L340 339L339 338M363 338L364 339L363 338M338 340L339 341L338 340M295 341L295 342L303 342L295 341M361 341L362 342L361 341M303 342L304 343L303 342M360 342L361 343L360 342M304 343L305 344L304 343M337 343L337 352L338 352L337 343M359 343L360 344L359 343M374 343L374 349L375 349L374 343z"/>
<path style="fill:#010305; stroke:none;" d="M301 344C299.186 350.298 295.798 354.229 302 359L302 355L303 355C303.125 358.878 303.502 361.072 307 363L323 351L323 350L301 344z"/>
<path style="fill:#5faae3; stroke:none;" d="M358 344L359 345L358 344M356 347L357 348L356 347z"/>
<path style="fill:#4158ba; stroke:none;" d="M101.333 348.667L101.667 349.333L101.333 348.667z"/>
<path style="fill:#5faae3; stroke:none;" d="M355 348L356 349L355 348M394 348L395 349L394 348M395.667 349.333L396.333 349.667L395.667 349.333z"/>
<path style="fill:#4158ba; stroke:none;" d="M100.333 351.667L100.667 352.333L100.333 351.667z"/>
<path style="fill:#f8c743; stroke:none;" d="M307 363C301.631 359.846 297.314 353.799 291 352.434C284.61 351.054 277.879 357.922 283.318 363.468C288.233 368.478 295.59 368 302 368L302 416L310 416L310 368C316.542 368 325.325 369.492 326 361L312 365C315.648 361.385 318.598 357.804 324 358L326 357L328 353C319.368 350.038 311.223 355.319 307 363z"/>
<path style="fill:#4158ba; stroke:none;" d="M99 354L99 357L100 357L99 354z"/>
<path style="fill:#5faae3; stroke:none;" d="M295 354L296 355L295 354M326 354L326 368L310 368L310 389L324 383C317.401 391.731 310.009 395.144 310 407C316.463 403.786 323.955 396.53 327 390L328 390C327.855 402.26 315.805 406.08 311 416C318.251 415.995 323.639 415.142 327 408L328 408C328.13 418.96 338.583 416 347 416L338 354L326 354M355 354C355 366.983 355.696 379.996 356.015 393C356.134 397.883 358.764 403.911 354 407L355 416L381 416L381 365L384 367C375.081 355.926 369.179 354.009 355 354M400 356L432 380L434 354C424.817 354 407.707 350.734 400 356z"/>
<path style="fill:#4158ba; stroke:none;" d="M302 355L302 360L303 360L302 355z"/>
<path style="fill:#5faae3; stroke:none;" d="M286 356L287 357L286 356z"/>
<path style="fill:#4158ba; stroke:none;" d="M284 358L285 361C288.694 362.149 290.889 362.508 293 359L302 366C297.571 359.73 291.756 354.337 284 358z"/>
<path style="fill:#5faae3; stroke:none;" d="M291 356L292 357L291 356M298 356L299 357L298 356z"/>
<path style="fill:#dfedfb; stroke:none;" d="M324 356L323 362C325.764 360.194 325.923 358.652 324 356M433 356L434 357L433 356z"/>
<path style="fill:#5faae3; stroke:none;" d="M293 357L294 358L293 357z"/>
<path style="fill:#010305; stroke:none;" d="M312 365C317.552 364.248 322.039 363.08 323 357L312 365z"/>
<path style="fill:#4158ba; stroke:none;" d="M98.3333 358.667L98.6667 359.333L98.3333 358.667z"/>
<path style="fill:#5faae3; stroke:none;" d="M284 359L285 360L284 359z"/>
<path style="fill:#010305; stroke:none;" d="M285 359L286 360L285 359M293 359L290 362L290 363L300 365L293 359z"/>
<path style="fill:#5faae3; stroke:none;" d="M301 359L302 360L301 359M302 360L303 361L302 360z"/>
<path style="fill:#4158ba; stroke:none;" d="M97.3333 361.667L97.6667 362.333L97.3333 361.667z"/>
<path style="fill:#5faae3; stroke:none;" d="M286 361L287 362L286 361M288 362L289 363L288 362z"/>
<path style="fill:#010305; stroke:none;" d="M224 363L225 364L224 363M276 363L277 364L276 363z"/>
<path style="fill:#4158ba; stroke:none;" d="M291.667 363.333L292.333 363.667L291.667 363.333M96.3333 364.667L96.6667 365.333L96.3333 364.667z"/>
<path style="fill:#5faae3; stroke:none;" d="M223 364L224 365L223 364z"/>
<path style="fill:#dfedfb; stroke:none;" d="M261 386L259 368L282 368C272.977 359.281 247.897 364 236 364C231.15 364 225.367 363.191 221.105 366.009C214.293 370.513 214.792 380.785 222.019 384.543C227.135 387.204 234.416 386 240 386L261 386z"/>
<path style="fill:#5faae3; stroke:none;" d="M276.667 364.333L277.333 364.667L276.667 364.333M284 364L285 365L284 364z"/>
<path style="fill:#4158ba; stroke:none;" d="M294 364L294 365L297 365L294 364z"/>
<path style="fill:#5faae3; stroke:none;" d="M164 365L165 366L164 365z"/>
<path style="fill:#dfedfb; stroke:none;" d="M165 365.537C147.668 369.538 154.083 395.405 171 391.605C188.317 387.715 181.986 361.616 165 365.537z"/>
<path style="fill:#5faae3; stroke:none;" d="M171 365L172 366L171 365M221 365L222 366L221 365M279 365L280 366L279 365M298 365L299 366L298 365z"/>
<path style="fill:#dfedfb; stroke:none;" d="M381 365L381 416L355 416C357.874 426.066 345.441 426.452 338 425L338 423L348 417C339.984 414.631 328.378 419.622 328 408L327 408C322.631 414.147 318.359 415.979 311 416C317.564 406.976 327.957 402.215 328 390L327 390C320.35 399.44 310.01 403.513 310 416L293 416C297.284 410.33 300.916 407.547 301 400C291.709 406.545 287.331 415.965 275 416C282.382 405.667 301.104 396.352 302 383C292.659 385.622 272.521 405.142 271 415L232 414L131 414L136 425C130.412 423.097 119.951 420.069 118 414L110 414L110 376C104.526 378.844 93.1357 398.834 93.5733 405.015C94.0166 411.277 98.1555 416.656 101 422L82 414L85 405C72.8671 405.008 59.7307 407.023 48 410.155C45.3335 410.867 36.9613 412.548 38.3457 416.819C40.3498 423.002 57.6598 424.197 63 424.845C88.3222 427.916 113.605 429.35 139 431.09C207.155 435.757 275.784 433.686 344 432.015C385.261 431.004 433.98 433.053 473 418C469.273 405.441 441.428 407.937 431 405L431 416L392 416C392 398.548 398.08 374.509 381 365z"/>
<path style="fill:#5faae3; stroke:none;" d="M161 366L162 367L161 366M174 366L175 367L174 366z"/>
<path style="fill:#dfedfb; stroke:none;" d="M322 367L322 368L326 366L322 367z"/>
<path style="fill:#4158ba; stroke:none;" d="M95.3333 367.667L95.6667 368.333L95.3333 367.667z"/>
<path style="fill:#010305; stroke:none;" d="M288 367L289 368L288 367z"/>
<path style="fill:#5faae3; stroke:none;" d="M158 368L159 369L158 368M177 368L178 369L177 368z"/>
<path style="fill:#4158ba; stroke:none;" d="M259 368L259 380L262 383L269 380L269 368L259 368z"/>
<path style="fill:#5faae3; stroke:none;" d="M269 368L269 380L262 380L261 380L261 392L271 384L261 410L271 402L271 411C285.489 400.718 302 386.114 302 368L269 368M386 368L387 369L386 368M157 369L158 370L157 369M178 369L179 370L178 369M217 369L218 370L217 369z"/>
<path style="fill:#4158ba; stroke:none;" d="M279 369L280 370L279 369M317 369L318 370L317 369M323 369L324 370L323 369M94.3333 370.667L94.6667 371.333L94.3333 370.667z"/>
<path style="fill:#5faae3; stroke:none;" d="M156 370L157 371L156 370M179 370L180 371L179 370M389 370L390 371L389 370M216 371L217 372L216 371M155 372L156 373L155 372M180 372L181 373L180 372M392 373L392 416L431 416C431 411.882 429.758 405.19 433 406L431 392C419.654 395.187 402.562 376.867 392 373z"/>
<path style="fill:#4158ba; stroke:none;" d="M93 374L94 375L93 374z"/>
<path style="fill:#5faae3; stroke:none;" d="M163 374L163 383L164 383L163 374z"/>
<path style="fill:#4158ba; stroke:none;" d="M164 374L164 383L173 379L164 374z"/>
<path style="fill:#5faae3; stroke:none;" d="M181.333 374.667L181.667 375.333L181.333 374.667M154 375L155 376L154 375M169 376L170 377L169 376z"/>
<path style="fill:#4158ba; stroke:none;" d="M92.3333 377.667L92.6667 378.333L92.3333 377.667z"/>
<path style="fill:#5faae3; stroke:none;" d="M171 377L172 378L171 377M216 378L217 379L216 378M171 379L172 380L171 379M169 380L170 381L169 380z"/>
<path style="fill:#4158ba; stroke:none;" d="M271 380L271 383L283 380L271 380M290 383L301 380L290 383M311 380L311 383L319 380L311 380M91 381L92 382L91 381z"/>
<path style="fill:#5faae3; stroke:none;" d="M154 381L155 382L154 381M181.333 381.667L181.667 382.333L181.333 381.667z"/>
<path style="fill:#4158ba; stroke:none;" d="M327 381L326 383L328 383L327 381z"/>
<path style="fill:#dfedfb; stroke:none;" d="M271 400C277.209 396.861 284.588 389.066 288 383C277.946 383.036 271.119 389.82 271 400M310 398L311 398L324 383C314.184 383.116 310.007 388.725 310 398z"/>
<path style="fill:#5faae3; stroke:none;" d="M433 383L433 384L436 384L433 383z"/>
<path style="fill:#4158ba; stroke:none;" d="M90.3333 384.667L90.6667 385.333L90.3333 384.667z"/>
<path style="fill:#5faae3; stroke:none;" d="M155 384L156 385L155 384M180 384L181 385L180 384M221 384L222 385L221 384z"/>
<path style="fill:#4158ba; stroke:none;" d="M270 384C263.779 390.209 261.001 393.121 261 402C266.977 397.789 273.279 391.816 270 384M273.667 384.333L274.333 384.667L273.667 384.333M311.667 384.333L312.333 384.667L311.667 384.333M326 384L327 385L326 384z"/>
<path style="fill:#f8c743; stroke:none;" d="M433 384L430 392L440 397C442.039 390.085 439.615 386.435 433 384z"/>
<path style="fill:#dfedfb; stroke:none;" d="M435 384L438 386L435 384z"/>
<path style="fill:#5faae3; stroke:none;" d="M223 385L224 386L223 385M156 386L157 387L156 386M179 386L180 387L179 386M432 386L433 387L432 386z"/>
<path style="fill:#dfedfb; stroke:none;" d="M438 386L439 387L438 386z"/>
<path style="fill:#4158ba; stroke:none;" d="M89 387L90 388L89 387z"/>
<path style="fill:#5faae3; stroke:none;" d="M157 387L158 388L157 387M178 387L179 388L178 387M158 388L159 389L158 388M177 388L178 389L177 388M431 388L432 389L431 388M441 388L442 389L441 388z"/>
<path style="fill:#4158ba; stroke:none;" d="M442 388L441 389L438 407C443.93 403.256 449.608 392.31 442 388z"/>
<path style="fill:#5faae3; stroke:none;" d="M300 389L275 416C289.471 415.99 301.99 403.471 302 389L300 389z"/>
<path style="fill:#4158ba; stroke:none;" d="M88 390L89 391L88 390z"/>
<path style="fill:#5faae3; stroke:none;" d="M161 390L162 391L161 390M174 390L175 391L174 390z"/>
<path style="fill:#010305; stroke:none;" d="M260 390C241.798 400.624 220.1 407.094 199 408L199 409L261 409L260 390z"/>
<path style="fill:#5faae3; stroke:none;" d="M430 390L431 391L430 390M441 390L441 394L442 394L441 390M163 391L164 392L163 391M172 391L173 392L172 391z"/>
<path style="fill:#dfedfb; stroke:none;" d="M431.667 393.333L432.333 393.667L431.667 393.333z"/>
<path style="fill:#010305; stroke:none;" d="M432 394C430.874 399.176 430.898 404.982 437 406C437.249 400.087 438.236 396.531 432 394z"/>
<path style="fill:#5faae3; stroke:none;" d="M437 396L438 397L437 396M440 396L441 397L440 396z"/>
<path style="fill:#f8c743; stroke:none;" d="M88 397C87.3957 401.168 89.1542 402.649 93 404C93.359 399.829 91.8639 398.361 88 397z"/>
<path style="fill:#5faae3; stroke:none;" d="M438.667 397.333L439.333 397.667L438.667 397.333z"/>
<path style="fill:#f8c743; stroke:none;" d="M123 400L122 404L128 407L129 402L123 400z"/>
<path style="fill:#4158ba; stroke:none;" d="M86 401L83 414L101 422C97.3593 414.202 94.221 404.629 86 401z"/>
<path style="fill:#5faae3; stroke:none;" d="M87 401L88 402L87 401M122 402L123 403L122 402M85.3333 404.667L85.6667 405.333L85.3333 404.667M92 404L93 405L92 404M122 404L123 405L122 404M93 405L94 406L93 405M124 405L125 406L124 405M126 406L127 407L126 406M436.667 406.333L437.333 406.667L436.667 406.333M439 406L439 407L445 408L445 407L439 406M300 407L293 416C300.323 415.974 301.974 414.323 302 407L300 407M347 408L347 409L350 409L347 408z"/>
<path style="fill:#f8c743; stroke:none;" d="M346 409L346 421C354.477 420.125 354.999 415.498 355 408L346 409z"/>
<path style="fill:#5faae3; stroke:none;" d="M94 409L95 410L94 409M83 410L84 411L83 410z"/>
<path style="fill:#dfedfb; stroke:none;" d="M346 410L347 411L346 410z"/>
<path style="fill:#5faae3; stroke:none;" d="M270 411L267 415L271 415L270 411M82 413L83 414L82 413M84 414L85 415L84 414M130 414L131 415L130 414M261 414L267 416L267 415L261 414M97 415L98 416L97 415M117 415L118 416L117 415M87 416L88 417L87 416M89 417L90 418L89 417M98 417L99 418L98 417M119 417L120 418L119 417M355 417L356 418L355 417M91 418L92 419L91 418M121 418L122 419L121 418z"/>
<path style="fill:#4158ba; stroke:none;" d="M338 425L356 424L356 418L338 425z"/>
<path style="fill:#5faae3; stroke:none;" d="M93 419L94 420L93 419M123 419L124 420L123 419M352 419L353 420L352 419M96 420L97 421L96 420M100 420L101 421L100 420M125 420L126 421L125 420M133 420L134 421L133 420M343 420L344 421L343 420M345 420L346 421L345 420M350 420L351 421L350 420M356 420L356 423L357 423L356 420M98 421L99 422L98 421M127 421L128 422L127 421M341 421L342 422L341 421M129 422L130 423L129 422M339 422L340 423L339 422M131 423L132 424L131 423M135 423L134 425L136 425L135 423M338 423L339 424L338 423M348 424L348 425L352 425L348 424M339 425L339 426L344 426L339 425z"/>
</svg>
