<?xml version="1.0" standalone="yes"?>
<svg xmlns="http://www.w3.org/2000/svg" width="512" height="512">
<path style="fill:#010101; stroke:none;" d="M0 0L0 512L512 512L512 0L0 0z"/>
<path style="fill:#474b51; stroke:none;" d="M216 51C210.924 45.9386 205.446 40.3485 198 39.213C170.194 34.9721 154.655 77.1003 183 86.8117C189.348 88.9865 195.136 83.5004 193.551 77C192.607 73.1292 175.593 53.2466 193 55.3372C197.87 55.9221 201.758 60.7742 205 64.0008C212.232 71.1976 219.124 79.1763 227 85.6713C255.331 109.034 283.963 89.0374 305 68C309.503 63.497 321.75 48.0228 327.817 59.1088C332.565 67.784 315.176 79.8242 310 85C300.355 94.645 288.604 103.97 283.465 117C279.057 128.173 280 140.25 280 152L232 152C232 135.922 233.126 119.876 223.43 106C219.651 100.592 204.445 85.5784 200.897 100.043C199.257 106.733 205.984 111.27 209.363 116C213.864 122.303 215.113 129.472 215.83 137C219.536 175.918 216 216.889 216 256L166 256C160.743 256 150.711 254.103 146.434 257.742C141.425 262.003 144 276.032 144 282L144 352L54 352C45.166 352 26.859 348.514 19.2284 353.179C14.1399 356.29 16 365.972 16 371L16 421C16 426.622 13.8589 437.573 21.044 439.562C37.293 444.062 32 408.821 32 400L106 400C112.872 400 127.782 402.599 127.782 392C127.782 381.401 112.872 384 106 384L32 384L32 368L144 368C144 375.818 141.771 387.666 144.742 394.956C147.554 401.855 157.588 400.989 159.566 393.985C161.978 385.443 160 373.857 160 365L160 304L352 304L352 480L160 480L160 431C160 425.015 160.347 416.218 152 416.218C143.653 416.218 144 425.015 144 431L144 480L32 480L31.9992 468C31.9639 461.296 24.9968 449.906 17.7423 458.434C13.8156 463.049 13.7459 490.27 18.4336 494.258C22.7112 497.897 32.7425 496 38 496L89 496L289 496L345 496C350.45 496 361.143 498.02 365.566 494.258C370.575 489.997 368 475.968 368 470L368 400L480 400L480 480L407 480C399.961 480 385.743 477.219 384.244 487.004C382.422 498.891 398.783 496 406 496L468 496C474.62 496 486.982 498.361 492.772 494.821C499.077 490.966 496 473.437 496 467L496 384C496 377.174 499.375 357.217 492.772 353.179C485.141 348.514 466.834 352 458 352L368 352L368 308L366.258 290.434L352 288L314 288L160 288L160 272L314 272L352 272C356.262 272 363.138 273.234 366.258 269.566C371.078 263.899 366.536 256.455 359.999 256.044C338.847 254.714 317.198 256 296 256L296 201C296 195.271 297.758 185.455 289.985 184.244C279.871 182.668 280 193.056 280 200L280 256L264 256L264 207C264 201.015 264.347 192.218 256 192.218C247.653 192.218 248 201.015 248 207L248 256L232 256L232 168L279 168C283.704 168 291.907 169.537 294.821 164.772C297.547 160.313 296 152.036 296 147C296 135.423 296.904 124.322 304.468 115C316.777 99.8278 346.392 83.6819 345.946 62C345.61 45.6843 329.467 34.3791 314 39.2207C306.473 41.5766 301.403 47.5973 296 53C293.903 4.9151 222.279 4.40665 216 51z"/>
<path style="fill:#fb9859; stroke:none;" d="M251 32.5178C220.671 38.9983 230.722 85.5811 261 79.1798C291.342 72.7648 280.919 26.125 251 32.5178z"/>
<path style="fill:#474b51; stroke:none;" d="M96 56C92.1301 56 86.6731 55.0728 83.2284 57.179C78.887 59.8334 78.887 68.1666 83.2284 70.821C86.6731 72.9272 92.1301 72 96 72C96 75.8699 95.0728 81.3268 97.179 84.7716C99.8334 89.1129 108.167 89.1129 110.821 84.7716C112.927 81.3268 112 75.8699 112 72C115.87 72 121.327 72.9272 124.772 70.821C129.113 68.1666 129.113 59.8334 124.772 57.179C121.327 55.0728 115.87 56 112 56C112 52.1301 112.927 46.6731 110.821 43.2284C108.167 38.887 99.8334 38.8871 97.179 43.2284C95.0729 46.6731 96 52.1301 96 56M388.109 40.7423C378.743 44.7527 385.995 59.4949 395.891 55.2577C405.257 51.2472 398.005 36.505 388.109 40.7423M438 56C434.364 56 429.474 55.2198 426.225 57.179C421.497 60.0294 421.497 67.9706 426.225 70.821C429.474 72.7802 434.364 72 438 72C438.004 78.7816 445.715 98.0286 453.821 84.7716C455.927 81.3269 455 75.8699 455 72C458.87 72 464.327 72.9272 467.772 70.821C472.113 68.1666 472.113 59.8334 467.772 57.179C464.327 55.0728 458.87 56 455 56C455 52.13 455.927 46.6732 453.821 43.2284C445.715 29.9713 438.004 49.2185 438 56z"/>
<path style="fill:#fb9859; stroke:none;" d="M232 152L280 152C280 140.221 279.112 128.099 283.879 117C288.919 105.265 299.168 96.8317 308 88C314.089 81.9115 332.598 69.3441 328.257 59.1088C323.608 48.1483 311.081 60.9205 307 65C289.37 82.623 271.358 102.115 244 93.9576C226.089 88.6174 215.228 72.1684 202 60.0941C197.62 56.0963 189.121 51.721 185.322 59.0586C181.58 66.2843 190.178 70.4144 192.806 76C195.834 82.4386 191.534 85.9964 198.005 91.9375C203.268 96.7701 208.615 92.5063 213.996 96.4344C232.186 109.712 232 131.981 232 152z"/>
<path style="fill:#474b51; stroke:none;" d="M356.109 80.7423C346.743 84.7528 353.995 99.4949 363.891 95.2577C373.257 91.2472 366.005 76.5051 356.109 80.7423M388 108C384.13 108 378.673 107.073 375.228 109.179C370.887 111.833 370.887 120.167 375.228 122.821C378.673 124.927 384.13 124 388 124C388 127.87 387.073 133.327 389.179 136.772C391.833 141.113 400.167 141.113 402.821 136.772C404.927 133.327 404 127.87 404 124C407.87 124 413.327 124.927 416.772 122.821C421.113 120.167 421.113 111.833 416.772 109.179C413.327 107.073 407.87 108 404 108C404 104.13 404.927 98.6732 402.821 95.2284C400.167 90.887 391.833 90.887 389.179 95.2284C387.073 98.6732 388 104.13 388 108M140.109 96.7423C130.743 100.753 137.996 115.495 147.891 111.258C157.257 107.247 150.005 92.5051 140.109 96.7423M476.109 96.7423C466.743 100.753 473.995 115.495 483.891 111.258C493.257 107.247 486.005 92.5051 476.109 96.7423M36.1088 112.742C26.7426 116.753 33.9955 131.495 43.8912 127.258C53.2574 123.247 46.0045 108.505 36.1088 112.742M92.1088 120.742C82.7426 124.753 89.9955 139.495 99.8912 135.258C109.257 131.247 102.005 116.505 92.1088 120.742M444.109 120.742C434.743 124.753 441.995 139.495 451.891 135.258C461.257 131.247 454.004 116.505 444.109 120.742M164.109 128.742C156.189 132.133 161.47 144.409 163.333 150L181 203C183.255 209.758 186.635 219.221 195.891 215.258C203.811 211.867 198.53 199.591 196.667 194L179 141C176.745 134.242 173.365 124.779 164.109 128.742M340.105 128.742C334.232 131.223 332.803 141.59 331 147C324.893 165.32 315.468 184.955 312.326 204C311.108 211.378 315.445 218.827 323.895 215.258C329.768 212.777 331.197 202.41 333 197C339.107 178.68 348.532 159.045 351.674 140C352.892 132.622 348.555 125.173 340.105 128.742M48 168C44.1301 168 38.6731 167.073 35.2284 169.179C30.887 171.833 30.887 180.167 35.2284 182.821C38.6731 184.927 44.1301 184 48 184C48 187.87 47.0729 193.327 49.179 196.772C51.8334 201.113 60.1666 201.113 62.821 196.772C64.9272 193.327 64 187.87 64 184C67.8699 184 73.3269 184.927 76.7716 182.821C81.113 180.167 81.113 171.833 76.7716 169.179C73.3269 167.073 67.8699 168 64 168C64 164.13 64.9272 158.673 62.821 155.228C60.1666 150.887 51.8334 150.887 49.179 155.228C47.0729 158.673 48 164.13 48 168M134.005 159.616C127.62 161.105 126.289 167.83 129.076 173C135.829 185.529 147.682 196.911 156.6 207.999C160.06 212.301 163.735 217.189 169.995 215.678C176.289 214.159 177.114 206.91 174.297 202C167.342 189.878 156.159 178.893 147.4 168.001C144.105 163.904 140.085 158.198 134.005 159.616M372.09 160.742C367.54 162.601 364.352 168.309 361.4 172C353.723 181.597 342.442 191.891 337.164 203C333.697 210.299 338.716 217.88 346.961 215.566C351.747 214.222 354.875 208.656 357.8 205C365.722 195.099 377.392 184.461 382.836 173C386.327 165.65 380.207 157.426 372.09 160.742M420.109 160.742C410.743 164.753 417.995 179.495 427.891 175.258C437.257 171.247 430.005 156.505 420.109 160.742z"/>
<path style="fill:#20c1ff; stroke:none;" d="M232 168L232 256L248 256C248 237.725 242.724 209.465 251 193C246.014 194.937 242.937 198.014 241 203L240 203C240 190.485 237.153 174.048 252 169L232 168z"/>
<path style="fill:#a3dbff; stroke:none;" d="M240 203L241 203C245.033 196.042 258.347 185.564 263.258 198.015C270.436 216.218 253.601 238.377 280 246L280 202C280 194.166 279.33 186.974 288 184L288 168C274.946 168 248.464 162.635 241.573 177.001C238.086 184.269 240 195.122 240 203z"/>
<path style="fill:#20c1ff; stroke:none;" d="M252 192L253 193L252 192z"/>
<path style="fill:#474b51; stroke:none;" d="M407 199.819C400.601 200.229 393.816 204.527 388 207C375.21 212.439 359.747 216.777 348.108 224.363C341.548 228.639 342.566 239.09 351.004 240.131C356.683 240.832 362.962 236.893 368 234.719C381.16 229.041 403.193 224.241 413.581 214.362C419.587 208.651 414.985 199.307 407 199.819M100.059 201.028C94.3718 204.132 95.1355 212.378 100.109 215.637C113.724 224.558 132.01 229.626 147 236C152.216 238.218 159.219 242.418 164.775 238.856C170.3 235.316 168.802 227.564 163.892 224.363C150.519 215.647 132.692 210.69 118 204.421C112.888 202.24 105.65 197.975 100.059 201.028z"/>
<path style="fill:#20c1ff; stroke:none;" d="M264 236L264 256L280 256C279.999 244.716 272.974 241.93 264 236z"/>
<path style="fill:#fb9859; stroke:none;" d="M160 272L160 288L360 288L360 272L160 272M160 304L160 376C160 384.998 162.447 396.416 152 400L152 416C160.67 418.974 160 426.167 160 434L160 480L352 480L352 304L160 304z"/>
<path style="fill:#474b51; stroke:none;" d="M232 388L232 416C226.066 416 214.999 413.868 210.434 418.434C207.656 421.212 208.006 425.391 208 429C207.987 436.815 204.235 458.389 212.109 462.821C218.03 466.154 229.364 464 236 464C254.994 464 274.008 464.261 293 463.996C308.381 463.782 304 444.908 304 434C304 429.525 305.135 423.036 302.258 419.228C298.061 413.675 286.129 416 280 416L280 351C280 343.664 282.492 330.63 278.821 324.109C275.096 317.491 262.35 320 256 320C250.314 320 242.393 318.603 237.039 320.742C232.384 322.603 229.208 328.24 226.2 332C218.532 341.585 204.872 353.408 200.742 365C198.215 372.095 210.057 390.654 217.04 392.562C222.486 394.051 227.358 390.167 232 388z"/>
<path style="fill:#fb9859; stroke:none;" d="M243 336L244 337L243 336z"/>
<path style="fill:#a3dbff; stroke:none;" d="M218 368L218 369C227.178 379.15 237.931 356.818 246.397 369.059C248.858 372.619 248 377.904 248 382L248 413C248 416.851 246.832 423.093 249.028 426.471C252.64 432.027 264.934 434.811 271 436.37C276.57 437.803 282.242 438.881 288 439L288 432C281.638 432 270.997 434.125 266.318 428.852C261.553 423.482 264 410.74 264 404L264 336C258.346 336 250.36 334.551 245.039 336.603C234.684 340.598 225.236 359.691 218 368z"/>
<path style="fill:#fb9859; stroke:none;" d="M240 340L241 341L240 340M239 341L240 342L239 341M236 345L237 346L236 345M235 346L236 347L235 346M232 350L233 351L232 350M231 351L232 352L231 351M228 355L229 356L228 355M227 356L228 357L227 356M224 360L225 361L224 360M223 361L224 362L223 361M220 365L221 366L220 365M236 365L237 366L236 365M243 365L244 366L243 365M219 366L220 367L219 366M233 367L234 368L233 367M32 368L32 384L104 384C112.998 384 124.416 381.553 128 392L144 392L144 368L32 368M231 368L232 369L231 368M368 368L368 384L480 384L480 368L368 368M218 369L219 370L218 369M247.333 369.667L247.667 370.333L247.333 369.667M219 370L220 371L219 370M228 370L229 371L228 370M226 371L227 372L226 371M220 372L221 373L220 372M225 372L226 373L225 372M221 373L222 374L221 373M223 373L224 374L223 373z"/>
<path style="fill:#20c1ff; stroke:none;" d="M128 392C124.416 402.447 112.998 400 104 400L32 400L32 408L120 408C119.752 413.785 118.722 419.613 116.547 425C101.368 462.589 59.7705 456 27 456L27 457C33.9683 462.524 32 471.938 32 480L144 480L144 434C144 426.166 143.33 418.974 152 416L152 400C147.684 398.519 145.481 396.316 144 392L128 392M368 400L368 488L384 488C387.584 477.553 399.002 480 408 480L480 480L480 456C448.3 456 410.033 461.1 395.453 425C393.258 419.565 392.121 413.846 392 408L480 408L480 400L368 400z"/>
<path style="fill:#a3dbff; stroke:none;" d="M32 408C32 418.185 35.9759 435.892 24 440L24 456C57.1542 456 102.23 463.892 116.934 425C118.979 419.592 119.881 413.76 120 408L32 408M392 408C392.048 413.852 392.987 419.506 395.066 425C408.928 461.633 448.43 456 480 456L480 408L392 408z"/>
<path style="fill:#fb9859; stroke:none;" d="M247 426C242.327 434.079 232.086 432 224 432L224 448L288 448L288 439C273.061 438.359 260.251 432.185 247 426M264.333 426.667L264.667 427.333L264.333 426.667M265 428L266 429L265 428M267 430L268 431L267 430M268.667 431.333L269.333 431.667L268.667 431.333z"/>
</svg>
