<?xml version="1.0" standalone="yes"?>
<svg xmlns="http://www.w3.org/2000/svg" width="512" height="512">
<path style="fill:#010101; stroke:none;" d="M0 0L0 99L120 99L120 9L512 9L512 0L0 0z"/>
<path style="fill:#ffc741; stroke:none;" d="M120 9L120 99L390 99L390 284L390 334L391.028 353.482L416 371L480 413L480 340L512 340L512 9L120 9z"/>
<path style="fill:#60bcff; stroke:none;" d="M0 99L0 430L30 430L30 503C58.0303 489.74 84.1804 467.546 110 450.333C119.229 444.181 130.308 433.589 141 430.51C148.434 428.37 158.294 430 166 430L219 430L390 430L390 99L0 99z"/>
<path style="fill:#9bd0dd; stroke:none;" d="M120 99L120 100L315 100L296 99L257 99L120 99M180 189L180 190L195 190L180 189z"/>
<path style="fill:#ebeff6; stroke:none;" d="M180 190L180 219L210 219L210 189L180 190z"/>
<path style="fill:#9bd0dd; stroke:none;" d="M180 219L180 220L210 220L180 219M150 249L150 250L195 250C183.299 245.09 162.742 249 150 249z"/>
<path style="fill:#ebeff6; stroke:none;" d="M150 250L150 279L180 279L180 310L150 310L150 339L240 339L240 309L210 309L210 249L150 250z"/>
<path style="fill:#9bd0dd; stroke:none;" d="M150 279L150 280L180 280L150 279M150 309L150 310L180 310L150 309M150 339L150 340L240 340L212 339L150 339z"/>
<path style="fill:#010101; stroke:none;" d="M480 340L480 413L421 373.667L390 354L390 430L218 430L165 430L140 430.51L105 453L30 503L30 430L0 430L0 512L512 512L512 340L480 340z"/>
</svg>
