<?xml version="1.0" standalone="yes"?>
<svg xmlns="http://www.w3.org/2000/svg" width="512" height="512">
<path style="fill:#010101; stroke:none;" d="M0 0L0 512L512 512L512 0L0 0z"/>
<path style="fill:#628eb7; stroke:none;" d="M328 40L329 41L328 40z"/>
<path style="fill:#445c71; stroke:none;" d="M329 40L329 41L333 41L329 40z"/>
<path style="fill:#9cc8f2; stroke:none;" d="M328 41L328 72C328 76.3468 328.933 82.1113 326.258 85.8665C322.259 91.4782 316.496 88.2085 311 88.4714C302.78 88.8647 296.187 95.7298 296.187 104C296.187 112.27 302.78 119.135 311 119.529C315.75 119.756 320.587 116.998 324.772 120.518C331.362 126.061 328 144.138 328 152L344 152C344.347 110.609 407.141 110.607 408 152L439 152C438.844 95.2438 384.734 41.1563 328 41z"/>
<path style="fill:#628eb7; stroke:none;" d="M336.667 41.3333L337.333 41.6667L336.667 41.3333z"/>
<path style="fill:#445c71; stroke:none;" d="M338.667 41.3333L339.333 41.6667L338.667 41.3333z"/>
<path style="fill:#628eb7; stroke:none;" d="M342.667 42.3333L343.333 42.6667L342.667 42.3333z"/>
<path style="fill:#445c71; stroke:none;" d="M344 42L345 43L344 42z"/>
<path style="fill:#628eb7; stroke:none;" d="M347 43L348 44L347 43z"/>
<path style="fill:#445c71; stroke:none;" d="M348.667 43.3333L349.333 43.6667L348.667 43.3333z"/>
<path style="fill:#628eb7; stroke:none;" d="M351 44L352 45L351 44z"/>
<path style="fill:#445c71; stroke:none;" d="M352 44L353 45L352 44z"/>
<path style="fill:#628eb7; stroke:none;" d="M354 45L355 46L354 45z"/>
<path style="fill:#445c71; stroke:none;" d="M355.667 45.3333L356.333 45.6667L355.667 45.3333z"/>
<path style="fill:#628eb7; stroke:none;" d="M358 46L359 47L358 46z"/>
<path style="fill:#445c71; stroke:none;" d="M359 46L360 47L359 46M361 47L362 48L361 47z"/>
<path style="fill:#628eb7; stroke:none;" d="M363 48L364 49L363 48z"/>
<path style="fill:#445c71; stroke:none;" d="M364 48L365 49L364 48z"/>
<path style="fill:#628eb7; stroke:none;" d="M366 49L367 50L366 49M368 50L369 51L368 50z"/>
<path style="fill:#445c71; stroke:none;" d="M369 50L370 51L369 50z"/>
<path style="fill:#628eb7; stroke:none;" d="M370 51L371 52L370 51z"/>
<path style="fill:#445c71; stroke:none;" d="M371 51L372 52L371 51z"/>
<path style="fill:#628eb7; stroke:none;" d="M372 52L373 53L372 52z"/>
<path style="fill:#445c71; stroke:none;" d="M373 52L374 53L373 52z"/>
<path style="fill:#628eb7; stroke:none;" d="M374 53L375 54L374 53z"/>
<path style="fill:#445c71; stroke:none;" d="M375 53L376 54L375 53z"/>
<path style="fill:#628eb7; stroke:none;" d="M376 54L377 55L376 54z"/>
<path style="fill:#445c71; stroke:none;" d="M377 54L378 55L377 54z"/>
<path style="fill:#628eb7; stroke:none;" d="M378 55L379 56L378 55M380 56L381 57L380 56z"/>
<path style="fill:#445c71; stroke:none;" d="M382 57L383 58L382 57z"/>
<path style="fill:#628eb7; stroke:none;" d="M383 58L384 59L383 58z"/>
<path style="fill:#445c71; stroke:none;" d="M385 59L386 60L385 59z"/>
<path style="fill:#628eb7; stroke:none;" d="M386 60L387 61L386 60z"/>
<path style="fill:#445c71; stroke:none;" d="M388 61L389 62L388 61z"/>
<path style="fill:#628eb7; stroke:none;" d="M389 62L390 63L389 62M390 63L391 64L390 63z"/>
<path style="fill:#445c71; stroke:none;" d="M391 63L392 64L391 63M392 64L393 65L392 64z"/>
<path style="fill:#628eb7; stroke:none;" d="M393 65L394 66L393 65M394 66L395 67L394 66z"/>
<path style="fill:#445c71; stroke:none;" d="M396 67L397 68L396 67M397 68L398 69L397 68z"/>
<path style="fill:#628eb7; stroke:none;" d="M398 69L399 70L398 69M399 70L400 71L399 70M400 71L401 72L400 71M401 72L402 73L401 72M402 73L403 74L402 73M403 74L404 75L403 74M405 76L406 77L405 76M406 77L407 78L406 77M407 78L408 79L407 78M408 79L409 80L408 79M409 80L410 81L409 80M410 81L411 82L410 81z"/>
<path style="fill:#445c71; stroke:none;" d="M411 82L412 83L411 82M327 83L328 84L327 83M412 83L413 84L412 83z"/>
<path style="fill:#628eb7; stroke:none;" d="M327 84L328 85L327 84M413 85L414 86L413 85M326 86L327 87L326 86M414 86L415 87L414 86M325 87L326 88L325 87z"/>
<path style="fill:#445c71; stroke:none;" d="M415 87L416 88L415 87M307 88L308 89L307 88z"/>
<path style="fill:#628eb7; stroke:none;" d="M308.667 88.3333L309.333 88.6667L308.667 88.3333M313.667 88.3333L314.333 88.6667L313.667 88.3333z"/>
<path style="fill:#445c71; stroke:none;" d="M315.667 88.3333L316.333 88.6667L315.667 88.3333M323 88L324 89L323 88z"/>
<path style="fill:#628eb7; stroke:none;" d="M324 88L325 89L324 88z"/>
<path style="fill:#445c71; stroke:none;" d="M416 88L417 89L416 88M304 89L305 90L304 89z"/>
<path style="fill:#628eb7; stroke:none;" d="M305 89L306 90L305 89M318 89L319 90L318 89z"/>
<path style="fill:#445c71; stroke:none;" d="M319.667 89.3333L320.333 89.6667L319.667 89.3333z"/>
<path style="fill:#628eb7; stroke:none;" d="M321 89L322 90L321 89M416 89L417 90L416 89M303 90L304 91L303 90M417 90L418 91L417 90z"/>
<path style="fill:#445c71; stroke:none;" d="M301 91L302 92L301 91M418 91L419 92L418 91M300 92L301 93L300 92M299 93L300 94L299 93z"/>
<path style="fill:#628eb7; stroke:none;" d="M419 93L420 94L419 93z"/>
<path style="fill:#445c71; stroke:none;" d="M420 94L421 95L420 94z"/>
<path style="fill:#628eb7; stroke:none;" d="M298 95L299 96L298 95z"/>
<path style="fill:#445c71; stroke:none;" d="M297 96L298 97L297 96z"/>
<path style="fill:#628eb7; stroke:none;" d="M421 96L422 97L421 96M297 97L298 98L297 97z"/>
<path style="fill:#445c71; stroke:none;" d="M422 97L423 98L422 97M296.333 98.6667L296.667 99.3333L296.333 98.6667z"/>
<path style="fill:#628eb7; stroke:none;" d="M422 98L423 99L422 98z"/>
<path style="fill:#445c71; stroke:none;" d="M423 99L424 100L423 99z"/>
<path style="fill:#628eb7; stroke:none;" d="M296 100L297 101L296 100M424 101L425 102L424 101z"/>
<path style="fill:#445c71; stroke:none;" d="M425 102L426 103L425 102z"/>
<path style="fill:#628eb7; stroke:none;" d="M425 103L426 104L425 103z"/>
<path style="fill:#445c71; stroke:none;" d="M244 104L244 105L248 105L244 104M426 104L427 105L426 104M236 105L236 106L240 106L236 105z"/>
<path style="fill:#dfb77c; stroke:none;" d="M137 216L168 216C172.292 216 178.108 215.038 181.786 217.742C187.095 221.645 184.336 226.715 184.347 232C184.365 240.587 191.338 247.813 200 247.813C208.662 247.813 215.635 240.587 215.653 232C215.662 227.401 213.28 223.322 216.657 219.228C222.093 212.637 240.203 216 248 216L248 200C206.685 199.143 206.666 136.858 248 136L248 105C191.044 105.157 137.157 159.044 137 216z"/>
<path style="fill:#628eb7; stroke:none;" d="M426 105L427 106L426 105z"/>
<path style="fill:#445c71; stroke:none;" d="M231 106L231 107L234 107L231 106M427 106L428 107L427 106M227.667 107.333L228.333 107.667L227.667 107.333z"/>
<path style="fill:#628eb7; stroke:none;" d="M296 107L297 108L296 107M427 107L428 108L427 107z"/>
<path style="fill:#445c71; stroke:none;" d="M223.667 108.333L224.333 108.667L223.667 108.333M296.333 108.667L296.667 109.333L296.333 108.667M428 108L429 109L428 108M220 109L221 110L220 109z"/>
<path style="fill:#628eb7; stroke:none;" d="M428 109L429 110L428 109z"/>
<path style="fill:#445c71; stroke:none;" d="M217 110L218 111L217 110z"/>
<path style="fill:#628eb7; stroke:none;" d="M297 110L298 111L297 110z"/>
<path style="fill:#445c71; stroke:none;" d="M429 110L430 111L429 110M214 111L215 112L214 111M297 111L298 112L297 111z"/>
<path style="fill:#628eb7; stroke:none;" d="M429 111L430 112L429 111z"/>
<path style="fill:#445c71; stroke:none;" d="M211.667 112.333L212.333 112.667L211.667 112.333z"/>
<path style="fill:#628eb7; stroke:none;" d="M298 112L299 113L298 112z"/>
<path style="fill:#445c71; stroke:none;" d="M209 113L210 114L209 113M430 113L431 114L430 113M207 114L208 115L207 114M299 114L300 115L299 114M205 115L206 116L205 115M300 115L301 116L300 115M431 115L432 116L431 115M202.667 116.333L203.333 116.667L202.667 116.333M301 116L302 117L301 116z"/>
<path style="fill:#628eb7; stroke:none;" d="M431 116L432 117L431 116z"/>
<path style="fill:#445c71; stroke:none;" d="M200.667 117.333L201.333 117.667L200.667 117.333z"/>
<path style="fill:#628eb7; stroke:none;" d="M303 117L304 118L303 117z"/>
<path style="fill:#445c71; stroke:none;" d="M199 118L200 119L199 118M304 118L305 119L304 118z"/>
<path style="fill:#628eb7; stroke:none;" d="M305 118L306 119L305 118M318 118L319 119L318 118z"/>
<path style="fill:#445c71; stroke:none;" d="M319.667 118.333L320.333 118.667L319.667 118.333z"/>
<path style="fill:#628eb7; stroke:none;" d="M321 118L322 119L321 118z"/>
<path style="fill:#445c71; stroke:none;" d="M432 118L433 119L432 118M197 119L198 120L197 119M307 119L308 120L307 119z"/>
<path style="fill:#628eb7; stroke:none;" d="M308.667 119.333L309.333 119.667L308.667 119.333M313.667 119.333L314.333 119.667L313.667 119.333z"/>
<path style="fill:#445c71; stroke:none;" d="M315.667 119.333L316.333 119.667L315.667 119.333M323 119L324 120L323 119z"/>
<path style="fill:#628eb7; stroke:none;" d="M324 119L325 120L324 119M432 119L433 120L432 119z"/>
<path style="fill:#445c71; stroke:none;" d="M195 120L196 121L195 120z"/>
<path style="fill:#628eb7; stroke:none;" d="M325 120L326 121L325 120M368.667 120.333L369.333 120.667L368.667 120.333z"/>
<path style="fill:#445c71; stroke:none;" d="M370.667 120.333L371.333 120.667L370.667 120.333M380.667 120.333L381.333 120.667L380.667 120.333z"/>
<path style="fill:#628eb7; stroke:none;" d="M382.667 120.333L383.333 120.667L382.667 120.333z"/>
<path style="fill:#445c71; stroke:none;" d="M433.333 120.667L433.667 121.333L433.333 120.667M193 121L194 122L193 121z"/>
<path style="fill:#628eb7; stroke:none;" d="M326 121L327 122L326 121M365 121L366 122L365 121z"/>
<path style="fill:#445c71; stroke:none;" d="M366 121L367 122L366 121M385 121L386 122L385 121z"/>
<path style="fill:#628eb7; stroke:none;" d="M386 121L387 122L386 121z"/>
<path style="fill:#445c71; stroke:none;" d="M192 122L193 123L192 122M363 122L364 123L363 122M388 122L389 123L388 122M190 123L191 124L190 123z"/>
<path style="fill:#628eb7; stroke:none;" d="M327 123L328 124L327 123z"/>
<path style="fill:#445c71; stroke:none;" d="M361 123L362 124L361 123M390 123L391 124L390 123M434.333 123.667L434.667 124.333L434.333 123.667M189 124L190 125L189 124M327 124L328 125L327 124M359 124L360 125L359 124M392 124L393 125L392 124M187 125L188 126L187 125z"/>
<path style="fill:#628eb7; stroke:none;" d="M357 125L358 126L357 125M394 125L395 126L394 125M434 125L435 126L434 125z"/>
<path style="fill:#445c71; stroke:none;" d="M186 126L187 127L186 126z"/>
<path style="fill:#628eb7; stroke:none;" d="M356 126L357 127L356 126M395 126L396 127L395 126z"/>
<path style="fill:#445c71; stroke:none;" d="M355 127L356 128L355 127M396 127L397 128L396 127M435 127L436 128L435 127M183 128L184 129L183 128M354 128L355 129L354 128M397 128L398 129L397 128z"/>
<path style="fill:#628eb7; stroke:none;" d="M435 128L436 129L435 128z"/>
<path style="fill:#445c71; stroke:none;" d="M182 129L183 130L182 129M353 129L354 130L353 129M398 129L399 130L398 129M352 130L353 131L352 130M399 130L400 131L399 130M436.333 130.667L436.667 131.333L436.333 130.667M179 131L180 132L179 131M351 131L352 132L351 131M400 131L401 132L400 131M178 132L179 133L178 132z"/>
<path style="fill:#628eb7; stroke:none;" d="M350 132L351 133L350 132M401 132L402 133L401 132M436 132L437 133L436 132z"/>
<path style="fill:#445c71; stroke:none;" d="M177 133L178 134L177 133z"/>
<path style="fill:#628eb7; stroke:none;" d="M349 133L350 134L349 133M402 133L403 134L402 133z"/>
<path style="fill:#445c71; stroke:none;" d="M176 134L177 135L176 134M175 135L176 136L175 135M348 135L349 136L348 135z"/>
<path style="fill:#628eb7; stroke:none;" d="M403 135L404 136L403 135z"/>
<path style="fill:#445c71; stroke:none;" d="M437 135L438 136L437 135M241 136L241 137L244 137L241 136z"/>
<path style="fill:#628eb7; stroke:none;" d="M437.333 136.667L437.667 137.333L437.333 136.667z"/>
<path style="fill:#445c71; stroke:none;" d="M237.667 137.333L238.333 137.667L237.667 137.333M347 137L348 138L347 137M404 137L405 138L404 137M235 138L236 139L235 138M233 139L234 140L233 139M346 139L347 140L346 139M405 139L406 140L405 139M231 140L232 141L231 140M438.333 140.667L438.667 141.333L438.333 140.667M229 141L230 142L229 141z"/>
<path style="fill:#628eb7; stroke:none;" d="M345 141L346 142L345 141M406 141L407 142L406 141z"/>
<path style="fill:#445c71; stroke:none;" d="M228 142L229 143L228 142M345 142L346 143L345 142M406 142L407 143L406 142z"/>
<path style="fill:#628eb7; stroke:none;" d="M438.333 142.667L438.667 143.333L438.333 142.667z"/>
<path style="fill:#445c71; stroke:none;" d="M167 143L168 144L167 143M227 143L228 144L227 143M166 144L167 145L166 144M226 144L227 145L226 144z"/>
<path style="fill:#628eb7; stroke:none;" d="M344.333 144.667L344.667 145.333L344.333 144.667z"/>
<path style="fill:#445c71; stroke:none;" d="M165 145L166 146L165 145z"/>
<path style="fill:#628eb7; stroke:none;" d="M407 145L408 146L407 145z"/>
<path style="fill:#445c71; stroke:none;" d="M164 146L165 147L164 146M224 146L225 147L224 146M344.333 146.667L344.667 147.333L344.333 146.667M407.333 146.667L407.667 147.333L407.333 146.667M163 147L164 148L163 147M223 147L224 148L223 147M439 147L439 151L440 151L439 147M222 148L223 149L222 148M221 149L222 150L221 149M161 150L162 151L161 150M160 151L161 152L160 151M220 151L221 152L220 151z"/>
<path style="fill:#628eb7; stroke:none;" d="M439 151L440 152L439 151z"/>
<path style="fill:#445c71; stroke:none;" d="M219 153L220 154L219 153M158 154L159 155L158 154M157 155L158 156L157 155M218 155L219 156L218 155M156 157L157 158L156 157M217.333 157.667L217.667 158.333L217.333 157.667M155 158L156 159L155 158M154 160L155 161L154 160M153 161L154 162L153 161M216 161L216 164L217 164L216 161M152 163L153 164L152 163M151 165L152 166L151 165M150 167L151 168L150 167M149.333 168.667L149.667 169.333L149.333 168.667M148.333 170.667L148.667 171.333L148.333 170.667M147.333 172.667L147.667 173.333L147.333 172.667M216 172L216 175L217 175L216 172M146 175L147 176L146 175M145 177L146 178L145 177M217.333 177.667L217.667 178.333L217.333 177.667M144.333 179.667L144.667 180.333L144.333 179.667M218 180L219 181L218 180M143 182L144 183L143 182M219 182L220 183L219 182M220 184L221 185L220 184M142 185L143 186L142 185M221 186L222 187L221 186M222 187L223 188L222 187M141 188L142 189L141 188M223 188L224 189L223 188M224 189L225 190L224 189M140.333 191.667L140.667 192.333L140.333 191.667M226 191L227 192L226 191M227 192L228 193L227 192M228 193L229 194L228 193M139.333 195.667L139.667 196.333L139.333 195.667M231 195L232 196L231 195M233 196L234 197L233 196M235 197L236 198L235 197M237.667 198.333L238.333 198.667L237.667 198.333M138 199L138 202L139 202L138 199M241 199L241 200L244 200L241 199M311.667 199.333L312.333 199.667L311.667 199.333M306 200L307 201L306 200z"/>
<path style="fill:#628eb7; stroke:none;" d="M307 200L308 201L307 200z"/>
<path style="fill:#9cc8f2; stroke:none;" d="M264 232L264 248C305.224 248.878 305.224 311.122 264 312L264 360L296 360C296 353.938 294.233 344.524 297.318 339.105C300.176 334.084 307.251 332.73 312 330.136C321.718 324.827 330.898 318.49 338.999 310.91C359.962 291.297 374.981 261.013 375 232L344 232C339.593 232 333.99 232.882 330.214 230.106C324.552 225.944 328.013 220.579 327.725 215C327.297 206.737 320.201 200.08 312 200.08C303.799 200.08 296.703 206.737 296.275 215C296.025 219.84 298.986 224.363 295.343 228.656C289.672 235.34 271.988 232 264 232z"/>
<path style="fill:#628eb7; stroke:none;" d="M316 200L317 201L316 200z"/>
<path style="fill:#445c71; stroke:none;" d="M317 200L318 201L317 200M304 201L305 202L304 201M319 201L320 202L319 201z"/>
<path style="fill:#628eb7; stroke:none;" d="M303 202L304 203L303 202M320 202L321 203L320 202z"/>
<path style="fill:#445c71; stroke:none;" d="M301 203L302 204L301 203M322 203L323 204L322 203M137 204L137 208L138 208L137 204M300 204L301 205L300 204M323 204L324 205L323 204M299 205L300 206L299 205M324 205L325 206L324 205z"/>
<path style="fill:#628eb7; stroke:none;" d="M298 207L299 208L298 207M325 207L326 208L325 207z"/>
<path style="fill:#445c71; stroke:none;" d="M297 208L298 209L297 208M326 208L327 209L326 208z"/>
<path style="fill:#628eb7; stroke:none;" d="M297 209L298 210L297 209M326 209L327 210L326 209z"/>
<path style="fill:#445c71; stroke:none;" d="M136 211L136 216L137 216L136 211M296 211L297 212L296 211M327 211L328 212L327 211z"/>
<path style="fill:#628eb7; stroke:none;" d="M296 212L297 213L296 212M327 212L328 213L327 212z"/>
<path style="fill:#445c71; stroke:none;" d="M180 216L181 217L180 216M219 216L220 217L219 216M182 217L183 218L182 217M217 217L218 218L217 217M183 218L184 219L183 218M216 218L217 219L216 218z"/>
<path style="fill:#628eb7; stroke:none;" d="M296 218L297 219L296 218M327 218L328 219L327 218z"/>
<path style="fill:#445c71; stroke:none;" d="M296.333 219.667L296.667 220.333L296.333 219.667M327.333 219.667L327.667 220.333L327.333 219.667M184 220L185 221L184 220M215 220L216 221L215 220M185 222L185 226L186 226L185 222M214 222L214 226L215 226L214 222z"/>
<path style="fill:#628eb7; stroke:none;" d="M297 222L297 226L298 226L297 222M326 222L326 226L327 226L326 222z"/>
<path style="fill:#445c71; stroke:none;" d="M296 227L297 228L296 227M327 227L328 228L327 227M184.333 228.667L184.667 229.333L184.333 228.667M215.333 228.667L215.667 229.333L215.333 228.667z"/>
<path style="fill:#628eb7; stroke:none;" d="M295 229L296 230L295 229M328 229L329 230L328 229z"/>
<path style="fill:#445c71; stroke:none;" d="M291 231L292 232L291 231z"/>
<path style="fill:#628eb7; stroke:none;" d="M292 231L293 232L292 231M331 231L332 232L331 231z"/>
<path style="fill:#445c71; stroke:none;" d="M332 231L333 232L332 231z"/>
<path style="fill:#dfb77c; stroke:none;" d="M136 232C142.563 259.555 147.341 282.968 167.171 305C175.426 314.172 185.373 321.771 196 327.988C201.66 331.3 210.529 333.377 214.258 339.044C217.777 344.391 216 353.857 216 360L248 360L248 318C248 312.747 246.539 304.797 249.028 300.019C255.476 287.639 279.92 303 279.92 280C279.92 271.472 273.484 264.757 265 264.213C260.035 263.895 255.398 266.573 251.148 262.707C244.773 256.907 248 239.961 248 232L232 232C230.208 273.108 169.792 273.108 168 232L136 232z"/>
<path style="fill:#628eb7; stroke:none;" d="M375.333 232.667L375.667 233.333L375.333 232.667M136 233L137 234L136 233z"/>
<path style="fill:#445c71; stroke:none;" d="M136 234L136 238L137 238L136 234M184 234L184 237L185 237L184 234M215 234L215 237L216 237L215 234M375 234L375 238L376 238L375 234M231 235L231 238L232 238L231 235M168.333 236.667L168.667 237.333L168.333 236.667M185 238L186 239L185 238M214 238L215 239L214 238M186 240L187 241L186 240M213 240L214 241L213 240M169 241L170 242L169 241M230 241L231 242L230 241z"/>
<path style="fill:#628eb7; stroke:none;" d="M374.333 241.667L374.667 242.333L374.333 241.667M137 242L138 243L137 242z"/>
<path style="fill:#445c71; stroke:none;" d="M137.333 243.667L137.667 244.333L137.333 243.667M188 243L189 244L188 243M211 243L212 244L211 243M374.333 243.667L374.667 244.333L374.333 243.667z"/>
<path style="fill:#628eb7; stroke:none;" d="M170 244L171 245L170 244M229 244L230 245L229 244z"/>
<path style="fill:#445c71; stroke:none;" d="M191 245L192 246L191 245M208 245L209 246L208 245M171 246L172 247L171 246M192.667 246.333L193.333 246.667L192.667 246.333M206.667 246.333L207.333 246.667L206.667 246.333M228 246L229 247L228 246M195.667 247.333L196.333 247.667L195.667 247.333M203.667 247.333L204.333 247.667L203.667 247.333z"/>
<path style="fill:#628eb7; stroke:none;" d="M373 247L374 248L373 247z"/>
<path style="fill:#445c71; stroke:none;" d="M138.333 248.667L138.667 249.333L138.333 248.667z"/>
<path style="fill:#628eb7; stroke:none;" d="M172 248L173 249L172 248M227 248L228 249L227 248z"/>
<path style="fill:#445c71; stroke:none;" d="M268.667 248.333L269.333 248.667L268.667 248.333z"/>
<path style="fill:#628eb7; stroke:none;" d="M270 248L271 249L270 248z"/>
<path style="fill:#445c71; stroke:none;" d="M373.333 248.667L373.667 249.333L373.333 248.667M173 249L174 250L173 249M226 249L227 250L226 249M273 249L274 250L273 249M276 250L277 251L276 250M278 251L279 252L278 251z"/>
<path style="fill:#628eb7; stroke:none;" d="M372 251L373 252L372 251M139 252L140 253L139 252z"/>
<path style="fill:#445c71; stroke:none;" d="M175 252L176 253L175 252M224 252L225 253L224 252z"/>
<path style="fill:#628eb7; stroke:none;" d="M280 252L281 253L280 252z"/>
<path style="fill:#445c71; stroke:none;" d="M372.333 252.667L372.667 253.333L372.333 252.667M139 253L140 254L139 253M176 253L177 254L176 253M223 253L224 254L223 253M281 253L282 254L281 253M177 254L178 255L177 254M222 254L223 255L222 254z"/>
<path style="fill:#628eb7; stroke:none;" d="M283 254L284 255L283 254z"/>
<path style="fill:#445c71; stroke:none;" d="M178 255L179 256L178 255M221 255L222 256L221 255M284 255L285 256L284 255z"/>
<path style="fill:#628eb7; stroke:none;" d="M371 255L372 256L371 255M140 256L141 257L140 256z"/>
<path style="fill:#445c71; stroke:none;" d="M179 256L180 257L179 256M220 256L221 257L220 256M285 256L286 257L285 256M371.333 256.667L371.667 257.333L371.333 256.667M140 257L141 258L140 257M286 257L287 258L286 257M182 258L183 259L182 258M217 258L218 259L217 258M287 258L288 259L287 258z"/>
<path style="fill:#628eb7; stroke:none;" d="M141 259L142 260L141 259M183 259L184 260L183 259M216 259L217 260L216 259z"/>
<path style="fill:#445c71; stroke:none;" d="M248 259L249 260L248 259M288 259L289 260L288 259z"/>
<path style="fill:#628eb7; stroke:none;" d="M370 259L371 260L370 259z"/>
<path style="fill:#445c71; stroke:none;" d="M141 260L142 261L141 260M185 260L186 261L185 260M214 260L215 261L214 260z"/>
<path style="fill:#628eb7; stroke:none;" d="M248 260L249 261L248 260M289 260L290 261L289 260z"/>
<path style="fill:#445c71; stroke:none;" d="M370 260L371 261L370 260z"/>
<path style="fill:#628eb7; stroke:none;" d="M187 261L188 262L187 261M212 261L213 262L212 261M142 262L143 263L142 262z"/>
<path style="fill:#445c71; stroke:none;" d="M190 262L191 263L190 262M209 262L210 263L209 262M290 262L291 263L290 262z"/>
<path style="fill:#628eb7; stroke:none;" d="M369 262L370 263L369 262z"/>
<path style="fill:#445c71; stroke:none;" d="M142 263L143 264L142 263M194.667 263.333L195.333 263.667L194.667 263.333M204.667 263.333L205.333 263.667L204.667 263.333z"/>
<path style="fill:#628eb7; stroke:none;" d="M291 263L292 264L291 263z"/>
<path style="fill:#445c71; stroke:none;" d="M369 263L370 264L369 263M252 264L253 265L252 264M259 264L260 265L259 264z"/>
<path style="fill:#628eb7; stroke:none;" d="M260 264L261 265L260 264M267 264L268 265L267 264z"/>
<path style="fill:#445c71; stroke:none;" d="M268 264L269 265L268 264z"/>
<path style="fill:#628eb7; stroke:none;" d="M143 265L144 266L143 265M255.667 265.333L256.333 265.667L255.667 265.333z"/>
<path style="fill:#445c71; stroke:none;" d="M271 265L272 266L271 265M292 265L293 266L292 265z"/>
<path style="fill:#628eb7; stroke:none;" d="M368 265L369 266L368 265z"/>
<path style="fill:#445c71; stroke:none;" d="M143 266L144 267L143 266M368 266L369 267L368 266M274 267L275 268L274 267M293 267L294 268L293 267M144 268L145 269L144 268M275 268L276 269L275 268M367 268L368 269L367 268M276 269L277 270L276 269z"/>
<path style="fill:#628eb7; stroke:none;" d="M145 270L146 271L145 270z"/>
<path style="fill:#445c71; stroke:none;" d="M294 270L295 271L294 270z"/>
<path style="fill:#628eb7; stroke:none;" d="M366 270L367 271L366 270z"/>
<path style="fill:#445c71; stroke:none;" d="M145 271L146 272L145 271M366 271L367 272L366 271M278 272L279 273L278 272M146 273L147 274L146 273z"/>
<path style="fill:#628eb7; stroke:none;" d="M295 273L296 274L295 273z"/>
<path style="fill:#445c71; stroke:none;" d="M365 273L366 274L365 273M279 274L280 275L279 274M295.333 274.667L295.667 275.333L295.333 274.667M147 275L148 276L147 275z"/>
<path style="fill:#628eb7; stroke:none;" d="M279 275L280 276L279 275z"/>
<path style="fill:#445c71; stroke:none;" d="M364 275L365 276L364 275M148 277L149 278L148 277M363 277L364 278L363 277M149 279L150 280L149 279M280.333 279.667L280.667 280.333L280.333 279.667M362 279L363 280L362 279M150 281L151 282L150 281M361 281L362 282L361 281z"/>
<path style="fill:#628eb7; stroke:none;" d="M360 282L361 283L360 282M152 284L153 285L152 284M279 284L280 285L279 284z"/>
<path style="fill:#445c71; stroke:none;" d="M295.333 284.667L295.667 285.333L295.333 284.667z"/>
<path style="fill:#628eb7; stroke:none;" d="M359 284L360 285L359 284z"/>
<path style="fill:#445c71; stroke:none;" d="M279 285L280 286L279 285M153 286L154 287L153 286z"/>
<path style="fill:#628eb7; stroke:none;" d="M295 286L296 287L295 286z"/>
<path style="fill:#445c71; stroke:none;" d="M358 286L359 287L358 286M278 287L279 288L278 287M154 288L155 289L154 288M357 288L358 289L357 288z"/>
<path style="fill:#628eb7; stroke:none;" d="M155 289L156 290L155 289z"/>
<path style="fill:#445c71; stroke:none;" d="M294 289L295 290L294 289M356 289L357 290L356 289M276 290L277 291L276 290M156 291L157 292L156 291M275 291L276 292L275 291M355 291L356 292L355 291z"/>
<path style="fill:#628eb7; stroke:none;" d="M157 292L158 293L157 292z"/>
<path style="fill:#445c71; stroke:none;" d="M274 292L275 293L274 292M293 292L294 293L293 292M354 292L355 293L354 292z"/>
<path style="fill:#628eb7; stroke:none;" d="M255.667 294.333L256.333 294.667L255.667 294.333z"/>
<path style="fill:#445c71; stroke:none;" d="M271 294L272 295L271 294M292 294L293 295L292 294M159 295L160 296L159 295M252 295L253 296L252 295M259 295L260 296L259 295z"/>
<path style="fill:#628eb7; stroke:none;" d="M260 295L261 296L260 295M267 295L268 296L267 295z"/>
<path style="fill:#445c71; stroke:none;" d="M268 295L269 296L268 295M352 295L353 296L352 295z"/>
<path style="fill:#628eb7; stroke:none;" d="M160 296L161 297L160 296M291 296L292 297L291 296M351 296L352 297L351 296z"/>
<path style="fill:#445c71; stroke:none;" d="M290 297L291 298L290 297M162 299L163 300L162 299z"/>
<path style="fill:#628eb7; stroke:none;" d="M248 299L249 300L248 299M289 299L290 300L289 299z"/>
<path style="fill:#445c71; stroke:none;" d="M349 299L350 300L349 299M163 300L164 301L163 300M248 300L249 301L248 300M288 300L289 301L288 300M348 300L349 301L348 300z"/>
<path style="fill:#628eb7; stroke:none;" d="M164 301L165 302L164 301z"/>
<path style="fill:#445c71; stroke:none;" d="M287 301L288 302L287 301z"/>
<path style="fill:#628eb7; stroke:none;" d="M347 301L348 302L347 301z"/>
<path style="fill:#445c71; stroke:none;" d="M286 302L287 303L286 302z"/>
<path style="fill:#628eb7; stroke:none;" d="M346 302L347 303L346 302z"/>
<path style="fill:#445c71; stroke:none;" d="M285 303L286 304L285 303M284 304L285 305L284 304z"/>
<path style="fill:#628eb7; stroke:none;" d="M283 305L284 306L283 305z"/>
<path style="fill:#445c71; stroke:none;" d="M168 306L169 307L168 306M281 306L282 307L281 306M343 306L344 307L343 306M169 307L170 308L169 307z"/>
<path style="fill:#628eb7; stroke:none;" d="M280 307L281 308L280 307z"/>
<path style="fill:#445c71; stroke:none;" d="M342 307L343 308L342 307M170 308L171 309L170 308M278 308L279 309L278 308M341 308L342 309L341 308M171 309L172 310L171 309z"/>
<path style="fill:#628eb7; stroke:none;" d="M276 309L277 310L276 309z"/>
<path style="fill:#445c71; stroke:none;" d="M340 309L341 310L340 309M172 310L173 311L172 310M273 310L274 311L273 310M268.667 311.333L269.333 311.667L268.667 311.333z"/>
<path style="fill:#628eb7; stroke:none;" d="M270 311L271 312L270 311M334 314L335 315L334 314M178 315L179 316L178 315M333 315L334 316L333 315z"/>
<path style="fill:#445c71; stroke:none;" d="M179 316L180 317L179 316M332 316L333 317L332 316M180 317L181 318L180 317M331 317L332 318L331 317z"/>
<path style="fill:#628eb7; stroke:none;" d="M183 319L184 320L183 319M328 319L329 320L328 319z"/>
<path style="fill:#445c71; stroke:none;" d="M184 320L185 321L184 320M327 320L328 321L327 320z"/>
<path style="fill:#628eb7; stroke:none;" d="M325 321L326 322L325 321z"/>
<path style="fill:#445c71; stroke:none;" d="M187 322L188 323L187 322z"/>
<path style="fill:#628eb7; stroke:none;" d="M324 322L325 323L324 322z"/>
<path style="fill:#445c71; stroke:none;" d="M188 323L189 324L188 323M323 323L324 324L323 323z"/>
<path style="fill:#628eb7; stroke:none;" d="M190 324L191 325L190 324M321 324L322 325L321 324z"/>
<path style="fill:#445c71; stroke:none;" d="M191 325L192 326L191 325M193 326L194 327L193 326M318 326L319 327L318 326z"/>
<path style="fill:#628eb7; stroke:none;" d="M195 327L196 328L195 327M316 327L317 328L316 327M314 328L315 329L314 328z"/>
<path style="fill:#445c71; stroke:none;" d="M315 328L316 329L315 328M198 329L199 330L198 329M313 329L314 330L313 329M200 330L201 331L200 330M311 330L312 331L311 330M202 331L203 332L202 331M309 331L310 332L309 331M204 332L205 333L204 332M307 332L308 333L307 332M206 333L207 334L206 333z"/>
<path style="fill:#628eb7; stroke:none;" d="M304 333L305 334L304 333z"/>
<path style="fill:#445c71; stroke:none;" d="M305 333L306 334L305 333z"/>
<path style="fill:#628eb7; stroke:none;" d="M209 334L210 335L209 334M302 334L303 335L302 334z"/>
<path style="fill:#445c71; stroke:none;" d="M211 335L212 336L211 335M300 335L301 336L300 335z"/>
<path style="fill:#628eb7; stroke:none;" d="M298 336L299 337L298 336M296 339L297 340L296 339z"/>
<path style="fill:#445c71; stroke:none;" d="M215 340L216 341L215 340M296 340L297 341L296 340M189.044 376.742C181.143 379.962 181.143 404.038 189.044 407.258C197.298 410.621 211.138 408 220 408L291 408C299.726 408 316.184 411.159 323.891 406.821C331.159 402.73 330.557 378.854 321.985 376.434C312.878 373.862 300.448 376 291 376L226 376C215.544 376 198.756 372.785 189.044 376.742z"/>
<path style="fill:#9cc8f2; stroke:none;" d="M216 424C216 436.343 213.079 452.674 221.39 462.985C231.659 475.722 263.309 475.052 278 471.073C282.952 469.731 287.377 466.994 290.61 462.985C298.921 452.674 296 436.343 296 424L280 424C280 431.457 283.978 455.543 272 455.543C260.022 455.543 264 431.457 264 424L248 424C248 431.457 251.978 455.543 240 455.543C228.022 455.543 232 431.457 232 424L216 424z"/>
<path style="fill:#445c71; stroke:none;" d="M232 450L233 451L232 450M247 450L248 451L247 450M264 450L265 451L264 450M279 450L280 451L279 450z"/>
<path style="fill:#628eb7; stroke:none;" d="M216 452L217 453L216 452z"/>
<path style="fill:#445c71; stroke:none;" d="M233 452L234 453L233 452M246 452L247 453L246 452M265 452L266 453L265 452M278 452L279 453L278 452z"/>
<path style="fill:#628eb7; stroke:none;" d="M295 452L296 453L295 452z"/>
<path style="fill:#445c71; stroke:none;" d="M216 453L217 454L216 453M234 453L235 454L234 453M245 453L246 454L245 453M266 453L267 454L266 453M277 453L278 454L277 453M295 453L296 454L295 453M235 454L236 455L235 454M244 454L245 455L244 454M267 454L268 455L267 454M276 454L277 455L276 454M237 455L238 456L237 455M242 455L243 456L242 455M269 455L270 456L269 455M274 455L275 456L274 455M217 456L218 457L217 456M294 456L295 457L294 456z"/>
<path style="fill:#628eb7; stroke:none;" d="M218 458L219 459L218 458M293 458L294 459L293 458z"/>
<path style="fill:#445c71; stroke:none;" d="M219 460L220 461L219 460M292 460L293 461L292 460M221 463L222 464L221 463M290 463L291 464L290 463M222 464L223 465L222 464M289 464L290 465L289 464M223 465L224 466L223 465M288 465L289 466L288 465M224 466L225 467L224 466M287 466L288 467L287 466M227 468L228 469L227 468z"/>
<path style="fill:#628eb7; stroke:none;" d="M284 468L285 469L284 468M229 469L230 470L229 469M282 469L283 470L282 469z"/>
<path style="fill:#445c71; stroke:none;" d="M231 470L232 471L231 470M280 470L281 471L280 470M234 471L235 472L234 471z"/>
<path style="fill:#628eb7; stroke:none;" d="M235 471L236 472L235 471M276 471L277 472L276 471z"/>
<path style="fill:#445c71; stroke:none;" d="M277 471L278 472L277 471z"/>
</svg>
