<?xml version="1.0" standalone="yes"?>
<svg xmlns="http://www.w3.org/2000/svg" width="512" height="512">
<path style="fill:#f7fafc; stroke:none;" d="M0 0L0 33L1 33C4.62218 17.3878 17.3877 4.62213 33 1L0 0z"/>
<path style="fill:#0e2e34; stroke:none;" d="M86 316C108.968 324.908 133.06 327.582 157 320.703C164.644 318.506 172.161 315.462 179 311.396C181.854 309.699 186.384 305.412 189.91 305.871C193.115 306.288 195.942 310.838 198 313C203.882 319.18 209.454 325.667 215.17 332C216.996 334.023 220.823 336.694 221.231 339.576C221.636 342.439 217.55 345.897 216.015 348C211.442 354.263 207.499 360.925 204.312 368C196.278 385.834 194.573 405.8 197 425L158 434C151.364 411.649 121.51 404.342 102 412.721C79.7681 422.269 69.7967 450.416 80.9012 472C84.143 478.301 89.0817 484.109 95 488.045C101.999 492.7 109.659 494.987 118 495C127.992 495.016 136.684 493.167 145 487.211C152.046 482.165 157.211 475.174 159.995 467C161.457 462.71 160.983 454.917 164.514 451.854C172.646 444.799 190.936 445.776 201 442C225.679 517.715 328.175 536.414 378.535 475C406.431 440.982 405.046 399.782 390 361C401.569 355.527 412.313 347.049 423 340.003C426.977 337.381 433.16 331.761 438 331.356C443.048 330.934 450.084 337.569 455 339.301C469.849 344.533 487.282 341.178 498.829 330.409C530.366 300.998 502.355 249.433 461 256.326C441.017 259.656 428.361 276.765 426.289 296C425.732 301.179 429.537 309.219 427.072 313.815C422.756 321.862 405.633 328.776 398 333.692C393.526 336.574 385.774 344.338 380.3 344.402C376.384 344.448 371.704 336.617 368.999 334.171C361.298 327.206 352.107 319.912 342 317C351.415 289.17 361.855 261.594 371.947 234C374.742 226.359 377.46 208.947 383.702 203.693C386.836 201.055 394.361 204.051 398 204.572C407.96 205.998 419.141 205.399 429 203.54C472.745 195.29 506.437 159.126 511.715 115C521.168 35.9557 440.287 -21.9872 368 8.0116C353.52 14.0208 339.481 24.6147 329.888 37C326.629 41.2078 320.156 56.0349 314.895 56.8681C311.816 57.3556 307.815 54.9993 305 53.9499C301.198 52.5324 294.393 51.4101 291.643 48.2979C287.271 43.351 289.347 28.8604 285.557 22C273.092 -0.565491 241.61 -7.61957 221.015 8.33951C197.877 26.2687 199.219 64.6282 225 79.6512C242.87 90.0646 273.945 87.3719 283 66L310 75C308.369 94.972 303.624 114.532 312 134L218 173C206.232 140.857 164.791 119.394 132 119.004C123.176 118.899 114.639 119.52 106 121.424C102.516 122.193 96.6902 125.029 93.213 123.647C89.0723 122.002 87.5037 114.642 85.7415 111C80.1294 99.4013 73.951 87.8918 69 76C88.5275 66.8178 89.2144 36.2142 79.6481 20C64.9463 -4.91876 27.476 -6.86536 9.3287 15.0008C-7.32046 35.0617 -1.62145 68.6344 22 80.7261C27.9454 83.7695 34.3665 85.2715 41 85.8264C44.2054 86.0945 48.7333 84.3931 51.6096 86.0671C54.7107 87.8721 56.2296 92.953 57.7531 96C61.9992 104.492 74.7259 122.406 73.7623 131.907C73.3986 135.493 68.5243 137.574 66 139.503C58.9157 144.917 52.702 151.08 47.0949 158C32.6631 175.812 24.5644 200.079 25.0154 223C25.4618 245.687 33.2062 268.139 47.2114 286C51.0847 290.94 69.9676 304.315 68.0525 310.17C66.326 315.447 59.5879 330.235 54.6096 332.802C49.9939 335.183 39.5791 332.426 34 333.296C17.5807 335.859 4.75307 349.195 0.760031 365C-9.72931 406.52 43.9048 436.706 73.7106 405.829C85.2794 393.845 89.2872 374.408 82.662 359C80.4438 353.841 73.6181 348.26 72.8418 343C71.7298 335.464 83.0844 322.966 86 316z"/>
<path style="fill:#f7fafc; stroke:none;" d="M52 0L52 1C85.4712 8.74707 98.5693 54.9971 69 76C72.562 88.3647 80.1362 100.415 85.7415 112C87.4095 115.447 88.7814 121.944 92.3904 123.879C95.685 125.645 101.641 122.682 105 121.884C114.197 119.701 123.547 118.625 133 119.039C168.047 120.574 201.602 142.197 218 173L255 158.281L312 134C305.296 113.034 309.082 96.0593 310 75L283 66C255.942 109.23 188.112 72.0198 207.879 26C210.386 20.1619 214.352 14.9657 219.09 10.7577C224.623 5.84326 230.817 2.66248 238 1L220 0L183 0L52 0M257 0L257 1C269.777 3.96445 280.993 13.0787 286.601 25C289.987 32.1974 287.691 40.9932 290.639 47.581C292.454 51.6367 310.544 57.7232 314.895 57.3534C318.481 57.0486 319.874 52.6362 321.453 50C325.276 43.618 329.899 37.3766 335.039 32C350.069 16.2808 372.626 1.97552 395 1C384.02 -3.60736 364.944 0 353 0L257 0M423 0L423 1C465.199 1.87576 510.124 46.8014 511 89L512 89L512 0L423 0z"/>
<path style="fill:#a08154; stroke:none;" d="M37 17L37 18L40 18L37 17z"/>
<path style="fill:#65bdde; stroke:none;" d="M40 17.4429C6.33915 22.341 13.7768 73.2223 47 67.6744C78.3988 62.4311 71.3437 12.882 40 17.4429z"/>
<path style="fill:#a08154; stroke:none;" d="M46.6667 17.3333L47.3333 17.6667L46.6667 17.3333M242 17L242 18L245 18L242 17z"/>
<path style="fill:#65bdde; stroke:none;" d="M245 17.4537C211.653 21.8859 217.742 71.8489 251 67.8156C282.946 63.9414 276.959 13.2061 245 17.4537z"/>
<path style="fill:#a08154; stroke:none;" d="M250 17L250 18L253 18L250 17M399 17L399 18L403 18L399 17z"/>
<path style="fill:#65bdde; stroke:none;" d="M403 17L403 18L406 18L403 17z"/>
<path style="fill:#f7fafc; stroke:none;" d="M344 157L346 157C351.611 141.794 364.231 130.15 379 124C373.632 115.85 367.833 108.129 367.09 98C366.613 91.5015 367.341 85.0767 369.76 79C386.658 36.5453 452.086 47.0916 452.151 93.5756C452.169 105.977 445.728 113.325 441 124C456.425 131.534 465.503 142.455 474 157C506.375 130.643 497.443 72.5256 472.826 45C435.821 3.6214 362.385 10.0386 335.782 60C328.013 74.5896 324.994 88.5894 325 105C325.008 124.683 332.737 141.274 344 157z"/>
<path style="fill:#65bdde; stroke:none;" d="M413 17L413 18L417 18L413 17z"/>
<path style="fill:#a08154; stroke:none;" d="M417 17L417 18L420 18L417 17M34 18L35 19L34 18M50 18L51 19L50 18M239 18L240 19L239 18M255 18L256 19L255 18M393.667 18.3333L394.333 18.6667L393.667 18.3333z"/>
<path style="fill:#65bdde; stroke:none;" d="M395 18L396 19L395 18M423 18L424 19L423 18z"/>
<path style="fill:#a08154; stroke:none;" d="M424.667 18.3333L425.333 18.6667L424.667 18.3333M53 19L54 20L53 19M236 19L237 20L236 19M389 19L390 20L389 19z"/>
<path style="fill:#65bdde; stroke:none;" d="M390 19L391 20L390 19M428 19L429 20L428 19z"/>
<path style="fill:#a08154; stroke:none;" d="M429 19L430 20L429 19M55 20L56 21L55 20M385 20L386 21L385 20z"/>
<path style="fill:#65bdde; stroke:none;" d="M386 20L387 21L386 20M432 20L433 21L432 20z"/>
<path style="fill:#a08154; stroke:none;" d="M433 20L434 21L433 20M28 21L29 22L28 21M382 21L383 22L382 21M436 21L437 22L436 21M379 22L380 23L379 22z"/>
<path style="fill:#65bdde; stroke:none;" d="M380 22L381 23L380 22z"/>
<path style="fill:#a08154; stroke:none;" d="M439 22L440 23L439 22M59 23L60 24L59 23M230 23L231 24L230 23z"/>
<path style="fill:#65bdde; stroke:none;" d="M377 23L378 24L377 23M441 23L442 24L441 23z"/>
<path style="fill:#a08154; stroke:none;" d="M442 23L443 24L442 23M24 24L25 25L24 24M60 24L61 25L60 24M229 24L230 25L229 24M265 24L266 25L265 24M374 24L375 25L374 24z"/>
<path style="fill:#f6ac50; stroke:none;" d="M375 24L376 25L375 24z"/>
<path style="fill:#a08154; stroke:none;" d="M444 24L445 25L444 24M61 25L62 26L61 25M228 25L229 26L228 25M372 25L373 26L372 25M446 25L447 26L446 25M370 26L371 27L370 26M448 26L449 27L448 26M368 27L369 28L368 27M450 27L451 28L450 27M21 28L22 29L21 28z"/>
<path style="fill:#65bdde; stroke:none;" d="M367 28L368 29L367 28z"/>
<path style="fill:#a08154; stroke:none;" d="M64 29L65 30L64 29M225 29L226 30L225 29M365 29L366 30L365 29z"/>
<path style="fill:#65bdde; stroke:none;" d="M453 29L454 30L453 29z"/>
<path style="fill:#a08154; stroke:none;" d="M363 30L364 31L363 30M455 30L456 31L455 30M65 31L66 32L65 31M224 31L225 32L224 31M270 31L271 32L270 31z"/>
<path style="fill:#65bdde; stroke:none;" d="M362 31L363 32L362 31z"/>
<path style="fill:#a08154; stroke:none;" d="M360 32L361 33L360 32M458 32L459 33L458 32M66 33L67 34L66 33M223 33L224 34L223 33M359 33L360 34L359 33z"/>
<path style="fill:#65bdde; stroke:none;" d="M459 33L460 34L459 33z"/>
<path style="fill:#a08154; stroke:none;" d="M18 34L19 35L18 34M271 34L272 35L271 34z"/>
<path style="fill:#65bdde; stroke:none;" d="M358 34L359 35L358 34z"/>
<path style="fill:#a08154; stroke:none;" d="M356 35L357 36L356 35M462 35L463 36L462 35M67 36L68 37L67 36M355 36L356 37L355 36z"/>
<path style="fill:#65bdde; stroke:none;" d="M463 36L464 37L463 36z"/>
<path style="fill:#a08154; stroke:none;" d="M17 37L17 40L18 40L17 37M222 37L223 38L222 37M272 37L273 38L272 37z"/>
<path style="fill:#65bdde; stroke:none;" d="M354 37L355 38L354 37M353 38L354 39L353 38z"/>
<path style="fill:#a08154; stroke:none;" d="M469 41L470 42L469 41M470 42L471 43L470 42z"/>
<path style="fill:#65bdde; stroke:none;" d="M346 45L347 46L346 45z"/>
<path style="fill:#a08154; stroke:none;" d="M17.3333 46.6667L17.6667 47.3333L17.3333 46.6667z"/>
<path style="fill:#65bdde; stroke:none;" d="M345 46L346 47L345 46z"/>
<path style="fill:#a08154; stroke:none;" d="M272 47L273 48L272 47z"/>
<path style="fill:#65bdde; stroke:none;" d="M344 47L345 48L344 47z"/>
<path style="fill:#a08154; stroke:none;" d="M67 48L68 49L67 48M222 48L223 49L222 48M343 48L344 49L343 48z"/>
<path style="fill:#65bdde; stroke:none;" d="M475 48L476 49L475 48z"/>
<path style="fill:#a08154; stroke:none;" d="M476 49L477 50L476 49M18 50L19 51L18 50M66 51L67 52L66 51M223 51L224 52L223 51M271 51L272 52L271 51z"/>
<path style="fill:#65bdde; stroke:none;" d="M341 51L342 52L341 51M404.667 51.3333L405.333 51.6667L404.667 51.3333z"/>
<path style="fill:#a08154; stroke:none;" d="M406 51L406 52L409 52L406 51M410 51L410 52L414 52L410 51z"/>
<path style="fill:#65bdde; stroke:none;" d="M414 51L415 52L414 51z"/>
<path style="fill:#f7fafc; stroke:none;" d="M0 52L0 366L1 366C4.74675 349.812 18.2815 335.899 35 333.296C40.1984 332.487 51.2945 335.52 55.3627 332.933C60.1397 329.895 67.1308 315.452 68.4992 310.001C70.1696 303.346 55.3137 294.625 51.2894 290C38.1039 274.846 28.9213 256.016 26.2894 236C22.8449 209.805 29.3179 182.2 45.5031 161C51.4434 153.219 58.3243 146.35 66 140.286C68.6746 138.173 74.1303 135.821 74.2924 131.907C74.7109 121.802 62.7425 104.992 58.2469 96C56.6952 92.8963 55.038 87.1236 51.6096 85.618C48.7509 84.3627 45.0157 85.947 42 85.7909C34.3473 85.3948 26.4767 83.1802 20 79.0378C9.00078 72.0029 6.42131 62.2044 0 52z"/>
<path style="fill:#a08154; stroke:none;" d="M340 52L341 53L340 52M399 52L400 53L399 52M419 52L420 53L419 52z"/>
<path style="fill:#65bdde; stroke:none;" d="M478 52L479 53L478 52z"/>
<path style="fill:#a08154; stroke:none;" d="M19 53L20 54L19 53M270 53L271 54L270 53z"/>
<path style="fill:#f6ac50; stroke:none;" d="M395 53L396 54L395 53z"/>
<path style="fill:#a08154; stroke:none;" d="M396 53L397 54L396 53M422 53L423 54L422 53z"/>
<path style="fill:#65bdde; stroke:none;" d="M423 53L424 54L423 53z"/>
<path style="fill:#a08154; stroke:none;" d="M479 53L480 54L479 53M393 54L394 55L393 54M425 54L426 55L425 54z"/>
<path style="fill:#65bdde; stroke:none;" d="M426 54L427 55L426 54z"/>
<path style="fill:#a08154; stroke:none;" d="M20 55L21 56L20 55M225 55L226 56L225 55M269 55L270 56L269 55M338 55L339 56L338 55M391 55L392 56L391 55M427 55L428 56L427 55M389 56L390 57L389 56M429 56L430 57L429 56M481 56L482 57L481 56M63 57L64 58L63 57M387 57L388 58L387 57M431 57L432 58L431 57M62 58L63 59L62 58M227 58L228 59L227 58M267 58L268 59L267 58M336 58L337 59L336 58z"/>
<path style="fill:#65bdde; stroke:none;" d="M385 58L386 59L385 58z"/>
<path style="fill:#a08154; stroke:none;" d="M433 58L434 59L433 58z"/>
<path style="fill:#65bdde; stroke:none;" d="M482 58L483 59L482 58z"/>
<path style="fill:#a08154; stroke:none;" d="M23 59L24 60L23 59M266 59L267 60L266 59M384 59L385 60L384 59M434 59L435 60L434 59M24 60L25 61L24 60z"/>
<path style="fill:#65bdde; stroke:none;" d="M335 60L336 61L335 60z"/>
<path style="fill:#a08154; stroke:none;" d="M383 60L384 61L383 60M25 61L26 62L25 61M264 61L265 62L264 61M484 61L485 62L484 61M58 62L59 63L58 62M231 62L232 63L231 62M263 62L264 63L263 62z"/>
<path style="fill:#65bdde; stroke:none;" d="M334 62L335 63L334 62M438 62L439 63L438 62z"/>
<path style="fill:#a08154; stroke:none;" d="M57 63L58 64L57 63z"/>
<path style="fill:#65bdde; stroke:none;" d="M379 63L380 64L379 63z"/>
<path style="fill:#a08154; stroke:none;" d="M439 63L440 64L439 63M485 63L486 64L485 63M29 64L30 65L29 64M234 64L235 65L234 64M260 64L261 65L260 64z"/>
<path style="fill:#65bdde; stroke:none;" d="M333 64L334 65L333 64M378 64L379 65L378 64M440 64L441 65L440 64z"/>
<path style="fill:#a08154; stroke:none;" d="M31 65L32 66L31 65z"/>
<path style="fill:#65bdde; stroke:none;" d="M441 65L442 66L441 65z"/>
<path style="fill:#a08154; stroke:none;" d="M486 65L487 66L486 65M33 66L34 67L33 66M51 66L52 67L51 66M238 66L239 67L238 66M256 66L257 67L256 66z"/>
<path style="fill:#65bdde; stroke:none;" d="M332 66L333 67L332 66z"/>
<path style="fill:#a08154; stroke:none;" d="M36 67L37 68L36 67M48 67L49 68L48 67M241 67L242 68L241 67M253 67L254 68L253 67M376 67L377 68L376 67M487 67L488 68L487 67z"/>
<path style="fill:#65bdde; stroke:none;" d="M331 68L332 69L331 68z"/>
<path style="fill:#a08154; stroke:none;" d="M375 68L376 69L375 68M406 68L406 69L413 69L406 68M443 68L444 69L443 68z"/>
<path style="fill:#65bdde; stroke:none;" d="M374 69L375 70L374 69z"/>
<path style="fill:#a08154; stroke:none;" d="M402.667 69.3333L403.333 69.6667L402.667 69.3333z"/>
<path style="fill:#f6ac50; stroke:none;" d="M404 69.4684C372.851 75.4569 382.953 124.103 414 118.671C446.709 112.948 436.599 63.201 404 69.4684z"/>
<path style="fill:#a08154; stroke:none;" d="M416 69L417 70L416 69M444 69L445 70L444 69M488 69L489 70L488 69M330 70L331 71L330 70M399 70L400 71L399 70M419 70L420 71L419 70z"/>
<path style="fill:#f6ac50; stroke:none;" d="M445 70L446 71L445 70z"/>
<path style="fill:#65bdde; stroke:none;" d="M488 70L489 71L488 70z"/>
<path style="fill:#a08154; stroke:none;" d="M373 71L374 72L373 71M397 71L398 72L397 71M421 71L422 72L421 71M395.667 72.3333L396.333 72.6667L395.667 72.3333M423 72L424 73L423 72z"/>
<path style="fill:#65bdde; stroke:none;" d="M446 72L447 73L446 72z"/>
<path style="fill:#a08154; stroke:none;" d="M489 72L490 73L489 72M329 73L330 74L329 73M372 73L373 74L372 73M394 73L395 74L394 73M424 73L425 74L424 73M393 74L394 75L393 74M425 74L426 75L425 74z"/>
<path style="fill:#65bdde; stroke:none;" d="M447 74L448 75L447 74z"/>
<path style="fill:#a08154; stroke:none;" d="M328 75L329 76L328 75M392 75L393 76L392 75M490 75L491 76L490 75z"/>
<path style="fill:#65bdde; stroke:none;" d="M328 76L329 77L328 76M370 76L371 77L370 76z"/>
<path style="fill:#a08154; stroke:none;" d="M448 76L449 77L448 76M390 77L391 78L390 77M389 78L390 79L389 78M429 78L430 79L429 78z"/>
<path style="fill:#65bdde; stroke:none;" d="M449 78L450 79L449 78z"/>
<path style="fill:#a08154; stroke:none;" d="M491 78L492 79L491 78M327 79L328 80L327 79M369.333 79.6667L369.667 80.3333L369.333 79.6667M388 79L389 80L388 79M430 79L431 80L430 79M449 79L450 80L449 79z"/>
<path style="fill:#65bdde; stroke:none;" d="M491 79L492 80L491 79M327 80L328 81L327 80z"/>
<path style="fill:#a08154; stroke:none;" d="M387 81L388 82L387 81M431 81L432 82L431 81z"/>
<path style="fill:#f6ac50; stroke:none;" d="M450 81L451 82L450 81z"/>
<path style="fill:#a08154; stroke:none;" d="M326.333 82.6667L326.667 83.3333L326.333 82.6667z"/>
<path style="fill:#65bdde; stroke:none;" d="M368 82L369 83L368 82z"/>
<path style="fill:#a08154; stroke:none;" d="M432.333 82.6667L432.667 83.3333L432.333 82.6667M450 82L451 83L450 82M492 82L493 83L492 82M368 83L369 84L368 83M386 83L387 84L386 83z"/>
<path style="fill:#65bdde; stroke:none;" d="M492 83L493 84L492 83z"/>
<path style="fill:#a08154; stroke:none;" d="M433.333 84.6667L433.667 85.3333L433.333 84.6667M385.333 85.6667L385.667 86.3333L385.333 85.6667M451 85L451 89L452 89L451 85z"/>
<path style="fill:#65bdde; stroke:none;" d="M367 86L368 87L367 86z"/>
<path style="fill:#a08154; stroke:none;" d="M493.333 86.6667L493.667 87.3333L493.333 86.6667M325.333 87.6667L325.667 88.3333L325.333 87.6667M367 87L367 91L368 91L367 87M384 88L384 93L385 93L384 88M434 88L434 91L435 91L434 88z"/>
<path style="fill:#65bdde; stroke:none;" d="M493 88L494 89L493 88M325 89L326 90L325 89z"/>
<path style="fill:#a08154; stroke:none;" d="M494 92L494 95L495 95L494 92z"/>
<path style="fill:#65bdde; stroke:none;" d="M452 93L453 94L452 93z"/>
<path style="fill:#a08154; stroke:none;" d="M324 94L324 100L325 100L324 94M384 95L384 99L385 99L384 95z"/>
<path style="fill:#65bdde; stroke:none;" d="M494 95L494 99L495 99L494 95z"/>
<path style="fill:#a08154; stroke:none;" d="M367 97L367 101L368 101L367 97M434 97L434 100L435 100L434 97M451 99L451 102L452 102L451 99z"/>
<path style="fill:#65bdde; stroke:none;" d="M324 100L324 105L325 105L324 100M367 101L368 102L367 101z"/>
<path style="fill:#a08154; stroke:none;" d="M385.333 101.667L385.667 102.333L385.333 101.667M433.333 101.667L433.667 102.333L433.333 101.667z"/>
<path style="fill:#65bdde; stroke:none;" d="M451 102L452 103L451 102z"/>
<path style="fill:#a08154; stroke:none;" d="M368 104L369 105L368 104M386 104L387 105L386 104M432 104L433 105L432 104M450.333 104.667L450.667 105.333L450.333 104.667M324 105L324 111L325 111L324 105z"/>
<path style="fill:#65bdde; stroke:none;" d="M368 105L369 106L368 105z"/>
<path style="fill:#a08154; stroke:none;" d="M387 106L388 107L387 106M431 106L432 107L431 106z"/>
<path style="fill:#65bdde; stroke:none;" d="M494 106L494 109L495 109L494 106z"/>
<path style="fill:#a08154; stroke:none;" d="M369 107L370 108L369 107M388 107L389 108L388 107z"/>
<path style="fill:#65bdde; stroke:none;" d="M369 108L370 109L369 108z"/>
<path style="fill:#a08154; stroke:none;" d="M430 108L431 109L430 108M449 108L450 109L449 108M389 109L390 110L389 109M429 109L430 110L429 109M494 109L494 113L495 113L494 109M370 110L371 111L370 110M390 110L391 111L390 110M428 110L429 111L428 110M391 111L392 112L391 111z"/>
<path style="fill:#65bdde; stroke:none;" d="M448 111L449 112L448 111z"/>
<path style="fill:#a08154; stroke:none;" d="M371 112L372 113L371 112M392 112L393 113L392 112M426 112L427 113L426 112M393 113L394 114L393 113M425 113L426 114L425 113z"/>
<path style="fill:#f6ac50; stroke:none;" d="M447 113L448 114L447 113M325 114L326 115L325 114z"/>
<path style="fill:#a08154; stroke:none;" d="M372 114L373 115L372 114M394 114L395 115L394 114M424 114L425 115L424 114M446 114L447 115L446 114z"/>
<path style="fill:#65bdde; stroke:none;" d="M325 115L326 116L325 115z"/>
<path style="fill:#a08154; stroke:none;" d="M396 115L397 116L396 115M422 115L423 116L422 115M325.333 116.667L325.667 117.333L325.333 116.667M373 116L374 117L373 116M398 116L399 117L398 116M420.667 116.333L421.333 116.667L420.667 116.333M445 116L446 117L445 116z"/>
<path style="fill:#65bdde; stroke:none;" d="M493 116L494 117L493 116z"/>
<path style="fill:#f7fafc; stroke:none;" d="M511 116C510.101 159.3 468.027 195.991 428 203.54C418.724 205.29 408.375 205.914 399 204.572C395.248 204.034 387.052 200.777 383.702 203.067C377.607 207.235 374.473 226.094 371.947 233C361.935 260.374 348.716 288.658 342 317C352.381 321.323 361.929 328.237 369.996 336.039C373.101 339.042 376.939 345.951 382.004 344.435C387.289 342.853 392.433 338.014 397 335.003C406.075 329.02 419.352 323.525 426.642 315.471C430.189 311.553 426.388 303.763 426.259 299C426.057 291.517 428.581 283.393 432.352 277C451.635 244.306 502.41 251.976 511 289L512 289L512 168L512 133L511 116z"/>
<path style="fill:#a08154; stroke:none;" d="M400 117L401 118L400 117M418.667 117.333L419.333 117.667L418.667 117.333M493.333 117.667L493.667 118.333L493.333 117.667M403.667 118.333L404.333 118.667L403.667 118.333M415.667 118.333L416.333 118.667L415.667 118.333z"/>
<path style="fill:#65bdde; stroke:none;" d="M444 118L445 119L444 118M375 119L376 120L375 119z"/>
<path style="fill:#a08154; stroke:none;" d="M409.667 119.333L410.333 119.667L409.667 119.333M443 119L444 120L443 119z"/>
<path style="fill:#65bdde; stroke:none;" d="M326 120L327 121L326 120z"/>
<path style="fill:#a08154; stroke:none;" d="M376 120L377 121L376 120M442 120L443 121L442 120M326 121L327 122L326 121M377 121L378 122L377 121z"/>
<path style="fill:#65bdde; stroke:none;" d="M492 121L493 122L492 121z"/>
<path style="fill:#a08154; stroke:none;" d="M492 122L493 123L492 122z"/>
<path style="fill:#65bdde; stroke:none;" d="M440 123L441 124L440 123M327 124L328 125L327 124z"/>
<path style="fill:#a08154; stroke:none;" d="M377 124L378 125L377 124M441 124L442 125L441 124M327 125L328 126L327 125M375 125L376 126L375 125M443 125L444 126L443 125z"/>
<path style="fill:#65bdde; stroke:none;" d="M444 125L445 126L444 125M491 125L492 126L491 125z"/>
<path style="fill:#a08154; stroke:none;" d="M373 126L374 127L373 126z"/>
<path style="fill:#65bdde; stroke:none;" d="M446 126L447 127L446 126z"/>
<path style="fill:#a08154; stroke:none;" d="M491 126L492 127L491 126M371 127L372 128L371 127M447 127L448 128L447 127M328 128L329 129L328 128z"/>
<path style="fill:#65bdde; stroke:none;" d="M369 128L370 129L369 128z"/>
<path style="fill:#a08154; stroke:none;" d="M449 128L450 129L449 128z"/>
<path style="fill:#65bdde; stroke:none;" d="M490 128L491 129L490 128z"/>
<path style="fill:#a08154; stroke:none;" d="M368 129L369 130L368 129z"/>
<path style="fill:#f6ac50; stroke:none;" d="M451 129L452 130L451 129z"/>
<path style="fill:#a08154; stroke:none;" d="M490 129L491 130L490 129z"/>
<path style="fill:#65bdde; stroke:none;" d="M366 130L367 131L366 130z"/>
<path style="fill:#a08154; stroke:none;" d="M452 130L453 131L452 130M329 131L330 132L329 131M365 131L366 132L365 131M453 131L454 132L453 131z"/>
<path style="fill:#65bdde; stroke:none;" d="M489 131L490 132L489 131M455 132L456 133L455 132z"/>
<path style="fill:#a08154; stroke:none;" d="M489 132L490 133L489 132z"/>
<path style="fill:#65bdde; stroke:none;" d="M362 133L363 134L362 133M456 133L457 134L456 133z"/>
<path style="fill:#a08154; stroke:none;" d="M330 134L331 135L330 134z"/>
<path style="fill:#65bdde; stroke:none;" d="M361 134L362 135L361 134z"/>
<path style="fill:#a08154; stroke:none;" d="M457 134L458 135L457 134M488 134L489 135L488 134z"/>
<path style="fill:#65bdde; stroke:none;" d="M360 135L361 136L360 135z"/>
<path style="fill:#a08154; stroke:none;" d="M458 135L459 136L458 135M124 136L124 137L132 137L124 136M331 136L332 137L331 136M359 136L360 137L359 136M400 136L400 137L419 137L400 136M459 136L460 137L459 136z"/>
<path style="fill:#65bdde; stroke:none;" d="M487 136L488 137L487 136z"/>
<path style="fill:#a08154; stroke:none;" d="M114 137L114 138L117 138L114 137z"/>
<path style="fill:#65bdde; stroke:none;" d="M117 137L118 138L117 137z"/>
<path style="fill:#f7fafc; stroke:none;" d="M64 277C69.6199 260.785 82.8321 251.277 97 243C91.5433 234.715 86.2621 227.198 85.1736 217C79.9233 167.811 152.149 154.194 168.301 200C170.436 206.055 170.906 212.679 169.995 219C168.645 228.372 163.843 235.145 159 243C173.416 251.503 185.354 261.121 192 277C225.876 249.421 215.461 189.855 188.91 162.015C151.208 122.479 82.4881 131.634 55.0147 178C47.1431 191.285 42.995 206.589 43 222C43.0059 240.429 49.0788 264.852 64 277z"/>
<path style="fill:#65bdde; stroke:none;" d="M138 137L139 138L138 137z"/>
<path style="fill:#a08154; stroke:none;" d="M139 137L139 138L142 138L139 137M358 137L359 138L358 137M392 137L392 138L395 138L392 137z"/>
<path style="fill:#f6ac50; stroke:none;" d="M395 137.464C382.349 139.7 371.409 146.785 364.877 158C362.827 161.519 359.011 167.666 361.694 171.674C364.761 176.257 372.097 178.854 377 180.796C392.472 186.927 409.594 188.822 426 185.739C434.68 184.108 453.123 179.72 457.932 171.471C463.623 161.71 444.829 145.595 438 141.901C426.241 135.541 407.984 135.169 395 137.464z"/>
<path style="fill:#a08154; stroke:none;" d="M424 137L424 138L427 138L424 137M460 137L461 138L460 137M109 138L110 139L109 138z"/>
<path style="fill:#65bdde; stroke:none;" d="M110 138L111 139L110 138M145 138L146 139L145 138z"/>
<path style="fill:#a08154; stroke:none;" d="M146 138L147 139L146 138z"/>
<path style="fill:#65bdde; stroke:none;" d="M332 138L333 139L332 138z"/>
<path style="fill:#a08154; stroke:none;" d="M357 138L358 139L357 138M388 138L388 139L391 139L388 138M429.667 138.333L430.333 138.667L429.667 138.333M461 138L462 139L461 138M105 139L106 140L105 139z"/>
<path style="fill:#65bdde; stroke:none;" d="M106 139L107 140L106 139M149 139L150 140L149 139z"/>
<path style="fill:#a08154; stroke:none;" d="M150 139L151 140L150 139z"/>
<path style="fill:#65bdde; stroke:none;" d="M356 139L357 140L356 139z"/>
<path style="fill:#a08154; stroke:none;" d="M386 139L387 140L386 139M432.667 139.333L433.333 139.667L432.667 139.333M462 139L463 140L462 139M486 139L487 140L486 139M102 140L103 141L102 140M153 140L154 141L153 140z"/>
<path style="fill:#65bdde; stroke:none;" d="M333 140L334 141L333 140M355 140L356 141L355 140z"/>
<path style="fill:#a08154; stroke:none;" d="M383.667 140.333L384.333 140.667L383.667 140.333M435 140L436 141L435 140z"/>
<path style="fill:#65bdde; stroke:none;" d="M463 140L464 141L463 140z"/>
<path style="fill:#a08154; stroke:none;" d="M99 141L100 142L99 141M156 141L157 142L156 141M381.667 141.333L382.333 141.667L381.667 141.333M437 141L438 142L437 141z"/>
<path style="fill:#65bdde; stroke:none;" d="M464 141L465 142L464 141z"/>
<path style="fill:#a08154; stroke:none;" d="M485 141L486 142L485 141M96 142L97 143L96 142z"/>
<path style="fill:#65bdde; stroke:none;" d="M97 142L98 143L97 142M158 142L159 143L158 142z"/>
<path style="fill:#a08154; stroke:none;" d="M159 142L160 143L159 142M334 142L335 143L334 142M379 142L380 143L379 142M439 142L440 143L439 142z"/>
<path style="fill:#65bdde; stroke:none;" d="M484 142L485 143L484 142z"/>
<path style="fill:#a08154; stroke:none;" d="M94 143L95 144L94 143M161 143L162 144L161 143M353 143L354 144L353 143M378 143L379 144L378 143M440 143L441 144L440 143z"/>
<path style="fill:#65bdde; stroke:none;" d="M92 144L93 145L92 144M163 144L164 145L163 144z"/>
<path style="fill:#a08154; stroke:none;" d="M335 144L336 145L335 144z"/>
<path style="fill:#65bdde; stroke:none;" d="M352 144L353 145L352 144z"/>
<path style="fill:#a08154; stroke:none;" d="M442 144L443 145L442 144M466 144L467 145L466 144z"/>
<path style="fill:#65bdde; stroke:none;" d="M483 144L484 145L483 144M90 145L91 146L90 145M165 145L166 146L165 145z"/>
<path style="fill:#a08154; stroke:none;" d="M375 145L376 146L375 145M443 145L444 146L443 145z"/>
<path style="fill:#65bdde; stroke:none;" d="M467 145L468 146L467 145M88 146L89 147L88 146M167 146L168 147L167 146z"/>
<path style="fill:#a08154; stroke:none;" d="M336 146L337 147L336 146M374 146L375 147L374 146M482 146L483 147L482 146z"/>
<path style="fill:#65bdde; stroke:none;" d="M86 147L87 148L86 147M169 147L170 148L169 147M337 147L338 148L337 147z"/>
<path style="fill:#a08154; stroke:none;" d="M350 147L351 148L350 147M373 147L374 148L373 147M468 147L469 148L468 147M84 148L85 149L84 148M171 148L172 149L171 148M372 148L373 149L372 148z"/>
<path style="fill:#f6ac50; stroke:none;" d="M469 148L470 149L469 148z"/>
<path style="fill:#a08154; stroke:none;" d="M338 149L339 150L338 149M349 149L350 150L349 149M371 149L372 150L371 149M480 149L481 150L480 149M81 150L82 151L81 150M174 150L175 151L174 150z"/>
<path style="fill:#65bdde; stroke:none;" d="M339 150L340 151L339 150z"/>
<path style="fill:#a08154; stroke:none;" d="M370 150L371 151L370 150z"/>
<path style="fill:#65bdde; stroke:none;" d="M470 150L471 151L470 150z"/>
<path style="fill:#a08154; stroke:none;" d="M79 151L80 152L79 151M176 151L177 152L176 151z"/>
<path style="fill:#f7fafc; stroke:none;" d="M226 190C230.566 212.123 233.463 233.141 225.186 255C221.687 264.241 217.464 272.937 211.702 281C209.602 283.938 204.767 288.053 205.292 292C205.863 296.3 211.116 299.995 213.83 303C221.18 311.137 229.696 319.05 236 328C253.279 318.166 268.66 309.138 289 307.17C297.245 306.372 305.839 306.903 314 308.134C316.918 308.574 321.621 310.709 324.351 308.933C330.481 304.945 334.016 285.856 336.333 279C345.528 251.78 361.132 223.291 366 195C345.509 186.424 330.386 169.537 319 151L226 190z"/>
<path style="fill:#a08154; stroke:none;" d="M348 151L349 152L348 151M369 151L370 152L369 151M78 152L79 153L78 152M177 152L178 153L177 152M340 152L341 153L340 152z"/>
<path style="fill:#65bdde; stroke:none;" d="M347 152L348 153L347 152z"/>
<path style="fill:#a08154; stroke:none;" d="M368 152L369 153L368 152M471 152L472 153L471 152M478 152L479 153L478 152z"/>
<path style="fill:#65bdde; stroke:none;" d="M77 153L78 154L77 153M178 153L179 154L178 153z"/>
<path style="fill:#a08154; stroke:none;" d="M341 153L342 154L341 153M367 153L368 154L367 153M451 153L452 154L451 153z"/>
<path style="fill:#65bdde; stroke:none;" d="M477 153L478 154L477 153z"/>
<path style="fill:#a08154; stroke:none;" d="M75 154L76 155L75 154M180 154L181 155L180 154z"/>
<path style="fill:#65bdde; stroke:none;" d="M342 154L343 155L342 154z"/>
<path style="fill:#a08154; stroke:none;" d="M452 154L453 155L452 154z"/>
<path style="fill:#65bdde; stroke:none;" d="M472 154L473 155L472 154z"/>
<path style="fill:#a08154; stroke:none;" d="M74 155L75 156L74 155M181 155L182 156L181 155M346 155L347 156L346 155M366 155L367 156L366 155z"/>
<path style="fill:#65bdde; stroke:none;" d="M73 156L74 157L73 156M182 156L183 157L182 156z"/>
<path style="fill:#a08154; stroke:none;" d="M365 156L366 157L365 156M453 156L454 157L453 156z"/>
<path style="fill:#65bdde; stroke:none;" d="M473 156L474 157L473 156z"/>
<path style="fill:#a08154; stroke:none;" d="M475 156L476 157L475 156M344.667 157.333L345.333 157.667L344.667 157.333M364.333 157.667L364.667 158.333L364.333 157.667M454 157L455 158L454 157M473.667 157.333L474.333 157.667L473.667 157.333M363.333 159.667L363.667 160.333L363.333 159.667M455 159L456 160L455 159M67 161L68 162L67 161M188 161L189 162L188 161M362.333 161.667L362.667 162.333L362.333 161.667M456 161L457 162L456 161M457.333 163.667L457.667 164.333L457.333 163.667M361 164L362 165L361 164z"/>
<path style="fill:#65bdde; stroke:none;" d="M63 166L64 167L63 166M192 166L193 167L192 166z"/>
<path style="fill:#a08154; stroke:none;" d="M458.333 166.667L458.667 167.333L458.333 166.667z"/>
<path style="fill:#65bdde; stroke:none;" d="M62 167L63 168L62 167M193 167L194 168L193 167z"/>
<path style="fill:#a08154; stroke:none;" d="M360.333 167.667L360.667 168.333L360.333 167.667M61 168L62 169L61 168M194 168L195 169L194 168z"/>
<path style="fill:#65bdde; stroke:none;" d="M127.667 170.333L128.333 170.667L127.667 170.333z"/>
<path style="fill:#a08154; stroke:none;" d="M359 170L360 171L359 170M459.333 170.667L459.667 171.333L459.333 170.667z"/>
<path style="fill:#65bdde; stroke:none;" d="M59 171L60 172L59 171M118 171L119 172L118 171z"/>
<path style="fill:#a08154; stroke:none;" d="M119 171L119 172L122 172L119 171M134 171L134 172L137 172L134 171z"/>
<path style="fill:#65bdde; stroke:none;" d="M196 171L197 172L196 171z"/>
<path style="fill:#a08154; stroke:none;" d="M360 171L361 172L360 171M58 172L59 173L58 172z"/>
<path style="fill:#65bdde; stroke:none;" d="M115 172L116 173L115 172z"/>
<path style="fill:#a08154; stroke:none;" d="M116 172L117 173L116 172M139 172L140 173L139 172M197 172L198 173L197 172M361 172L362 173L361 172M457 172L458 173L457 172z"/>
<path style="fill:#65bdde; stroke:none;" d="M112 173L113 174L112 173z"/>
<path style="fill:#a08154; stroke:none;" d="M113 173L114 174L113 173M142 173L143 174L142 173z"/>
<path style="fill:#65bdde; stroke:none;" d="M143 173L144 174L143 173z"/>
<path style="fill:#a08154; stroke:none;" d="M363 173L364 174L363 173M456 173L457 174L456 173M110 174L111 175L110 174z"/>
<path style="fill:#65bdde; stroke:none;" d="M145 174L146 175L145 174z"/>
<path style="fill:#a08154; stroke:none;" d="M364 174L365 175L364 174M454 174L455 175L454 174M56 175L57 176L56 175M108 175L109 176L108 175z"/>
<path style="fill:#65bdde; stroke:none;" d="M147 175L148 176L147 175z"/>
<path style="fill:#a08154; stroke:none;" d="M199 175L200 176L199 175M366 175L367 176L366 175M452.667 175.333L453.333 175.667L452.667 175.333z"/>
<path style="fill:#65bdde; stroke:none;" d="M106 176L107 177L106 176z"/>
<path style="fill:#a08154; stroke:none;" d="M367 176L368 177L367 176M451 176L452 177L451 176z"/>
<path style="fill:#65bdde; stroke:none;" d="M55 177L56 178L55 177M104 177L105 178L104 177z"/>
<path style="fill:#a08154; stroke:none;" d="M150 177L151 178L150 177z"/>
<path style="fill:#65bdde; stroke:none;" d="M200 177L201 178L200 177z"/>
<path style="fill:#a08154; stroke:none;" d="M369 177L370 178L369 177M449 177L450 178L449 177M54 178L55 179L54 178M103 178L104 179L103 178z"/>
<path style="fill:#65bdde; stroke:none;" d="M152 178L153 179L152 178z"/>
<path style="fill:#a08154; stroke:none;" d="M201 178L202 179L201 178M371 178L372 179L371 178M447 178L448 179L447 178M153 179L154 180L153 179M373 179L374 180L373 179M445 179L446 180L445 179z"/>
<path style="fill:#65bdde; stroke:none;" d="M53 180L54 181L53 180z"/>
<path style="fill:#a08154; stroke:none;" d="M154 180L155 181L154 180z"/>
<path style="fill:#65bdde; stroke:none;" d="M202 180L203 181L202 180z"/>
<path style="fill:#a08154; stroke:none;" d="M375.667 180.333L376.333 180.667L375.667 180.333M443 180L444 181L443 180z"/>
<path style="fill:#65bdde; stroke:none;" d="M99 181L100 182L99 181z"/>
<path style="fill:#a08154; stroke:none;" d="M378 181L379 182L378 181M440.667 181.333L441.333 181.667L440.667 181.333z"/>
<path style="fill:#65bdde; stroke:none;" d="M52 182L53 183L52 182z"/>
<path style="fill:#a08154; stroke:none;" d="M98 182L99 183L98 182z"/>
<path style="fill:#65bdde; stroke:none;" d="M157 182L158 183L157 182M203 182L204 183L203 182z"/>
<path style="fill:#a08154; stroke:none;" d="M380.667 182.333L381.333 182.667L380.667 182.333M437.667 182.333L438.333 182.667L437.667 182.333M97 183L98 184L97 183z"/>
<path style="fill:#65bdde; stroke:none;" d="M158 183L159 184L158 183z"/>
<path style="fill:#a08154; stroke:none;" d="M383.667 183.333L384.333 183.667L383.667 183.333M434.667 183.333L435.333 183.667L434.667 183.333z"/>
<path style="fill:#65bdde; stroke:none;" d="M51 184L52 185L51 184M96 184L97 185L96 184M204 184L205 185L204 184z"/>
<path style="fill:#a08154; stroke:none;" d="M386.667 184.333L387.333 184.667L386.667 184.333M431.667 184.333L432.333 184.667L431.667 184.333z"/>
<path style="fill:#65bdde; stroke:none;" d="M95 185L96 186L95 185z"/>
<path style="fill:#a08154; stroke:none;" d="M390 185L390 186L393 186L390 185M427.667 185.333L428.333 185.667L427.667 185.333M50 186L51 187L50 186M160 186L161 187L160 186M205 186L206 187L205 186M395 186L395 187L399 187L395 186M421 186L421 187L424 187L421 186M161 187L162 188L161 187M402 187L402 188L417 188L402 187M49 188L50 189L49 188M93 188L94 189L93 188z"/>
<path style="fill:#65bdde; stroke:none;" d="M122 188.529C89.5612 195.976 101.949 245.904 134 237.957C165.742 230.087 153.768 181.237 122 188.529M162 188L163 189L162 188z"/>
<path style="fill:#a08154; stroke:none;" d="M206 188L207 189L206 188M92 189L93 190L92 189M48 190L49 191L48 190M116 190L117 191L116 190M163 190L164 191L163 190M207 190L208 191L207 190z"/>
<path style="fill:#65bdde; stroke:none;" d="M48 191L49 192L48 191z"/>
<path style="fill:#a08154; stroke:none;" d="M91 191L92 192L91 191z"/>
<path style="fill:#65bdde; stroke:none;" d="M164 191L165 192L164 191M207 191L208 192L207 191z"/>
<path style="fill:#a08154; stroke:none;" d="M142 192L143 193L142 192M47 193L48 194L47 193M90 193L91 194L90 193z"/>
<path style="fill:#65bdde; stroke:none;" d="M165 193L166 194L165 193z"/>
<path style="fill:#a08154; stroke:none;" d="M208 193L209 194L208 193z"/>
<path style="fill:#65bdde; stroke:none;" d="M47 194L48 195L47 194M89 194L90 195L89 194M208 194L209 195L208 194z"/>
<path style="fill:#a08154; stroke:none;" d="M166 195L167 196L166 195M46 196L47 197L46 196z"/>
<path style="fill:#65bdde; stroke:none;" d="M88 196L89 197L88 196z"/>
<path style="fill:#a08154; stroke:none;" d="M209 196L210 197L209 196z"/>
<path style="fill:#65bdde; stroke:none;" d="M46 197L47 198L46 197z"/>
<path style="fill:#a08154; stroke:none;" d="M88 197L89 198L88 197z"/>
<path style="fill:#65bdde; stroke:none;" d="M167 197L168 198L167 197M209 197L210 198L209 197z"/>
<path style="fill:#a08154; stroke:none;" d="M167 198L168 199L167 198M45.3333 199.667L45.6667 200.333L45.3333 199.667z"/>
<path style="fill:#65bdde; stroke:none;" d="M87 199L88 200L87 199z"/>
<path style="fill:#a08154; stroke:none;" d="M210.333 199.667L210.667 200.333L210.333 199.667M87 200L88 201L87 200z"/>
<path style="fill:#65bdde; stroke:none;" d="M168 200L169 201L168 200z"/>
<path style="fill:#f6ac50; stroke:none;" d="M45 201L46 202L45 201z"/>
<path style="fill:#a08154; stroke:none;" d="M168 201L169 202L168 201z"/>
<path style="fill:#f6ac50; stroke:none;" d="M210 201L211 202L210 201z"/>
<path style="fill:#65bdde; stroke:none;" d="M86 202L87 203L86 202z"/>
<path style="fill:#a08154; stroke:none;" d="M44.3333 203.667L44.6667 204.333L44.3333 203.667M86 203L87 204L86 203z"/>
<path style="fill:#65bdde; stroke:none;" d="M169 203L170 204L169 203z"/>
<path style="fill:#a08154; stroke:none;" d="M211.333 203.667L211.667 204.333L211.333 203.667M169.333 204.667L169.667 205.333L169.333 204.667z"/>
<path style="fill:#65bdde; stroke:none;" d="M44 205L45 206L44 205M211 205L212 206L211 205M85.3333 207.667L85.6667 208.333L85.3333 207.667z"/>
<path style="fill:#a08154; stroke:none;" d="M43.3333 209.667L43.6667 210.333L43.3333 209.667M85 209L85 212L86 212L85 209M212.333 209.667L212.667 210.333L212.333 209.667M102 210L103 211L102 210z"/>
<path style="fill:#65bdde; stroke:none;" d="M43 211L44 212L43 211M170 211L171 212L170 211M212 211L213 212L212 211z"/>
<path style="fill:#a08154; stroke:none;" d="M170.333 212.667L170.667 213.333L170.333 212.667M85 214L85 218L86 218L85 214z"/>
<path style="fill:#65bdde; stroke:none;" d="M170.333 214.667L170.667 215.333L170.333 214.667z"/>
<path style="fill:#a08154; stroke:none;" d="M102.333 215.667L102.667 216.333L102.333 215.667z"/>
<path style="fill:#65bdde; stroke:none;" d="M85.3333 218.667L85.6667 219.333L85.3333 218.667z"/>
<path style="fill:#a08154; stroke:none;" d="M42 220L42 224L43 224L42 220M213 220L213 224L214 224L213 220M169.333 221.667L169.667 222.333L169.333 221.667M86 223L87 224L86 223M105 225L106 226L105 225M168 225L169 226L168 225M87 226L88 227L87 226z"/>
<path style="fill:#65bdde; stroke:none;" d="M87 227L88 228L87 227z"/>
<path style="fill:#a08154; stroke:none;" d="M106 227L107 228L106 227M167 228L168 229L167 228M88 229L89 230L88 229M147 229L148 230L147 229z"/>
<path style="fill:#65bdde; stroke:none;" d="M167 229L168 230L167 229M43 231L44 232L43 231z"/>
<path style="fill:#a08154; stroke:none;" d="M89 231L90 232L89 231z"/>
<path style="fill:#65bdde; stroke:none;" d="M166 231L167 232L166 231M212 231L213 232L212 231z"/>
<path style="fill:#a08154; stroke:none;" d="M43 232L43 235L44 235L43 232M165 232L166 233L165 232M212 232L212 235L213 235L212 232M90 233L91 234L90 233M113 234L114 235L113 234M164 234L165 235L164 234M91 235L92 236L91 235M138 236L139 237L138 236M163 236L164 237L163 236z"/>
<path style="fill:#65bdde; stroke:none;" d="M44 238L45 239L44 238M93 238L94 239L93 238z"/>
<path style="fill:#a08154; stroke:none;" d="M123 238L124 239L123 238M131.667 238.333L132.333 238.667L131.667 238.333z"/>
<path style="fill:#65bdde; stroke:none;" d="M211 238L212 239L211 238z"/>
<path style="fill:#a08154; stroke:none;" d="M44 239L45 240L44 239M94 239L95 240L94 239z"/>
<path style="fill:#65bdde; stroke:none;" d="M161 239L162 240L161 239z"/>
<path style="fill:#a08154; stroke:none;" d="M211 239L212 240L211 239M95 240L96 241L95 240M160 240L161 241L160 240M159 241L160 242L159 241z"/>
<path style="fill:#65bdde; stroke:none;" d="M45 242L46 243L45 242M210 242L211 243L210 242z"/>
<path style="fill:#a08154; stroke:none;" d="M45 243L46 244L45 243M96 243L97 244L96 243z"/>
<path style="fill:#65bdde; stroke:none;" d="M159 243L160 244L159 243z"/>
<path style="fill:#a08154; stroke:none;" d="M210 243L211 244L210 243M94 244L95 245L94 244z"/>
<path style="fill:#65bdde; stroke:none;" d="M161 244L162 245L161 244z"/>
<path style="fill:#a08154; stroke:none;" d="M92 245L93 246L92 245M163 245L164 246L163 245z"/>
<path style="fill:#65bdde; stroke:none;" d="M46 246L47 247L46 246z"/>
<path style="fill:#a08154; stroke:none;" d="M90 246L91 247L90 246z"/>
<path style="fill:#65bdde; stroke:none;" d="M165 246L166 247L165 246M209 246L210 247L209 246z"/>
<path style="fill:#a08154; stroke:none;" d="M46 247L47 248L46 247z"/>
<path style="fill:#65bdde; stroke:none;" d="M88 247L89 248L88 247z"/>
<path style="fill:#a08154; stroke:none;" d="M166 247L167 248L166 247M209 247L210 248L209 247M87 248L88 249L87 248M168 248L169 249L168 248z"/>
<path style="fill:#65bdde; stroke:none;" d="M47 249L48 250L47 249z"/>
<path style="fill:#a08154; stroke:none;" d="M85 249L86 250L85 249z"/>
<path style="fill:#65bdde; stroke:none;" d="M208 249L209 250L208 249z"/>
<path style="fill:#a08154; stroke:none;" d="M47 250L48 251L47 250M84 250L85 251L84 250M171 250L172 251L171 250M208 250L209 251L208 250M172 251L173 252L172 251z"/>
<path style="fill:#65bdde; stroke:none;" d="M48 252L49 253L48 252z"/>
<path style="fill:#a08154; stroke:none;" d="M81 252L82 253L81 252z"/>
<path style="fill:#65bdde; stroke:none;" d="M207 252L208 253L207 252z"/>
<path style="fill:#a08154; stroke:none;" d="M80 253L81 254L80 253z"/>
<path style="fill:#65bdde; stroke:none;" d="M175 253L176 254L175 253M49 254L50 255L49 254z"/>
<path style="fill:#a08154; stroke:none;" d="M79 254L80 255L79 254z"/>
<path style="fill:#65bdde; stroke:none;" d="M176 254L177 255L176 254M206 254L207 255L206 254z"/>
<path style="fill:#a08154; stroke:none;" d="M49 255L50 256L49 255M78 255L79 256L78 255z"/>
<path style="fill:#65bdde; stroke:none;" d="M177 255L178 256L177 255z"/>
<path style="fill:#a08154; stroke:none;" d="M206 255L207 256L206 255M113.667 256.333L114.333 256.667L113.667 256.333z"/>
<path style="fill:#65bdde; stroke:none;" d="M178 291C171.186 258.422 136.608 250.771 108 257.677C97.3628 260.244 74.7549 276.221 78.777 289.816C81.9606 300.576 107.74 304.966 117 306.41C125.874 307.793 135.207 307.175 144 305.576C156.45 303.311 167.519 297.935 178 291z"/>
<path style="fill:#a08154; stroke:none;" d="M141 256L142 257L141 256M178 256L179 257L178 256M50 257L51 258L50 257M179 257L180 258L179 257M205 257L206 258L205 257M75 258L76 259L75 258M150 258L151 259L150 258z"/>
<path style="fill:#65bdde; stroke:none;" d="M180 258L181 259L180 258z"/>
<path style="fill:#a08154; stroke:none;" d="M51 259L52 260L51 259M74 259L75 260L74 259z"/>
<path style="fill:#65bdde; stroke:none;" d="M181 259L182 260L181 259z"/>
<path style="fill:#a08154; stroke:none;" d="M204 259L205 260L204 259M73 260L74 261L73 260M52 261L53 262L52 261z"/>
<path style="fill:#65bdde; stroke:none;" d="M72 261L73 262L72 261z"/>
<path style="fill:#a08154; stroke:none;" d="M203 261L204 262L203 261M183 262L184 263L183 262M53 263L54 264L53 263M184 263L185 264L184 263M202 263L203 264L202 263M70 264L71 265L70 264M161 264L162 265L161 264z"/>
<path style="fill:#65bdde; stroke:none;" d="M201 264L202 265L201 264M69 265L70 266L69 265M55 266L56 267L55 266z"/>
<path style="fill:#a08154; stroke:none;" d="M186 266L187 267L186 266z"/>
<path style="fill:#65bdde; stroke:none;" d="M200 266L201 267L200 266z"/>
<path style="fill:#a08154; stroke:none;" d="M68 267L69 268L68 267M56 268L57 269L56 268M187 268L188 269L187 268M199 268L200 269L199 268z"/>
<path style="fill:#65bdde; stroke:none;" d="M57 269L58 270L57 269z"/>
<path style="fill:#a08154; stroke:none;" d="M67 269L68 270L67 269z"/>
<path style="fill:#65bdde; stroke:none;" d="M188 269L189 270L188 269z"/>
<path style="fill:#a08154; stroke:none;" d="M198 269L199 270L198 269z"/>
<path style="fill:#65bdde; stroke:none;" d="M66 270L67 271L66 270z"/>
<path style="fill:#a08154; stroke:none;" d="M58 271L59 272L58 271M189 271L190 272L189 271M59 272L60 273L59 272z"/>
<path style="fill:#65bdde; stroke:none;" d="M65 272L66 273L65 272z"/>
<path style="fill:#a08154; stroke:none;" d="M196 272L197 273L196 272z"/>
<path style="fill:#65bdde; stroke:none;" d="M60 273L61 274L60 273M190 273L191 274L190 273M195 273L196 274L195 273z"/>
<path style="fill:#a08154; stroke:none;" d="M464.667 273.333L465.333 273.667L464.667 273.333z"/>
<path style="fill:#65bdde; stroke:none;" d="M466 273.468C432.747 279.068 440.916 329.47 474 323.671C505.591 318.134 497.498 268.164 466 273.468z"/>
<path style="fill:#a08154; stroke:none;" d="M472 273L472 274L475 274L472 273M461 274L462 275L461 274M477 274L478 275L477 274M64 275L65 276L64 275z"/>
<path style="fill:#65bdde; stroke:none;" d="M191 275L192 276L191 275z"/>
<path style="fill:#a08154; stroke:none;" d="M458 275L459 276L458 275M62 276L63 277L62 276M172 276L173 277L172 276M191 276L192 277L191 276M193 276L194 277L193 276M456 276L457 277L456 276M192 277L193 278L192 277M483 277L484 278L483 277M452 279L453 280L452 279M174 280L175 281L174 280M451 280L452 281L451 280M487 280L488 281L487 280M450 281L451 282L450 281M175 282L176 283L175 282M490 284L491 285L490 284M447 285L448 286L447 285M78 287L79 288L78 287M446 287L447 288L446 287M445 289L446 290L445 289M493 290L494 291L493 290M80 292L81 293L80 292M444 292L445 293L444 292M494 293L494 296L495 296L494 293M83 294L84 295L83 294M170 295L171 296L170 295M155 302L156 303L155 302M494.333 302.667L494.667 303.333L494.333 302.667M103 303L104 304L103 303M152 303L153 304L152 303z"/>
<path style="fill:#f7fafc; stroke:none;" d="M86 316C82.3173 322.245 71.3933 335.664 72.1019 343C72.5781 347.931 79.4599 353.401 81.7269 358C87.5344 369.782 86.632 383.435 80.7261 395C62.8518 430.001 9.83928 423.099 1 385L0 385L0 512L285 512L285 511C244.679 509.264 216.116 475.931 201 442C191.761 444.597 170.583 444.995 163.858 451.854C160.833 454.94 161.125 462.88 159.652 467C156.362 476.203 149.435 484.208 141 489.123C132.927 493.828 125.22 495.226 116 494.985C59.7291 493.516 68.8248 400.91 124 409.439C130.82 410.493 137.19 412.784 143 416.548C149.513 420.768 154.882 426.9 158 434L197 425C195.474 405.669 196.178 387.055 204.312 369C207.5 361.924 211.445 355.266 216.015 349C217.812 346.535 221.628 343.264 221.655 340C221.685 336.458 217.309 333.37 215.17 331C209.143 324.321 203.237 317.52 197.035 311.001C195.181 309.052 192.858 305.369 189.91 305.113C186.081 304.781 181.128 309.536 178 311.396C170.302 315.973 161.69 319.359 153 321.525C128.915 327.526 109.16 322.334 86 316z"/>
<path style="fill:#a08154; stroke:none;" d="M444 304L445 305L444 304M111 305L112 306L111 305M144 305L145 306L144 305M117 306L118 307L117 306M138 306L139 307L138 306M493 306L494 307L493 306M445 307L446 308L445 307z"/>
<path style="fill:#f7fafc; stroke:none;" d="M511 308C505.742 330.716 482.851 345.633 460 340.486C453.195 338.953 444.419 330.258 438 330.789C433.109 331.193 427.027 336.715 423 339.344C411.984 346.536 400.907 353.642 390 361C395.648 381.652 402.44 397.922 400.91 420C397.91 463.325 357.222 510.062 312 511L312 512L512 512L512 369L512 328L511 308z"/>
<path style="fill:#a08154; stroke:none;" d="M492 309L493 310L492 309M491 311L492 312L491 311M448 313L449 314L448 313M449 314L450 315L449 314M488 315L489 316L488 315M487 316L488 317L487 316M486 317L487 318L486 317M453 318L454 319L453 318M454 319L455 320L454 319M482 320L483 321L482 320M480 321L481 322L480 321M460 322L461 323L460 322M478 322L479 323L478 322M463 323L464 324L463 323M475 323L476 324L475 323M290 324L290 325L296 325L290 324z"/>
<path style="fill:#65bdde; stroke:none;" d="M296 324L296 325L301 325L296 324z"/>
<path style="fill:#a08154; stroke:none;" d="M301 324L301 325L307 325L301 324M283.667 325.333L284.333 325.667L283.667 325.333z"/>
<path style="fill:#65bdde; stroke:none;" d="M285.667 325.333L286.333 325.667L285.667 325.333z"/>
<path style="fill:#f7fafc; stroke:none;" d="M235 464C240.755 448.403 253.227 439.124 267 431C261.469 418.513 254.917 410.561 256.093 396C259.663 351.802 321.283 347.186 337.827 385C345.759 403.129 337.075 415.026 330 431C343.773 439.124 356.245 448.403 362 464C368.862 460.647 373.134 451.775 376.138 445C384.518 426.099 385.491 405.891 380.37 386C361.223 311.63 254.977 304.873 222.259 372C211.483 394.111 210.462 422.642 221.258 445C224.448 451.606 228.241 460.546 235 464z"/>
<path style="fill:#65bdde; stroke:none;" d="M311 325L312 326L311 325z"/>
<path style="fill:#a08154; stroke:none;" d="M312.667 325.333L313.333 325.667L312.667 325.333M279 326L280 327L279 326z"/>
<path style="fill:#65bdde; stroke:none;" d="M280 326L281 327L280 326z"/>
<path style="fill:#a08154; stroke:none;" d="M317.667 326.333L318.333 326.667L317.667 326.333M275 327L276 328L275 327z"/>
<path style="fill:#65bdde; stroke:none;" d="M276 327L277 328L276 327z"/>
<path style="fill:#a08154; stroke:none;" d="M321.667 327.333L322.333 327.667L321.667 327.333M272 328L273 329L272 328z"/>
<path style="fill:#65bdde; stroke:none;" d="M324 328L325 329L324 328z"/>
<path style="fill:#a08154; stroke:none;" d="M325 328L326 329L325 328M269 329L270 330L269 329z"/>
<path style="fill:#65bdde; stroke:none;" d="M327 329L328 330L327 329z"/>
<path style="fill:#a08154; stroke:none;" d="M266 330L267 331L266 330z"/>
<path style="fill:#65bdde; stroke:none;" d="M267 330L268 331L267 330z"/>
<path style="fill:#a08154; stroke:none;" d="M330 330L331 331L330 330M264 331L265 332L264 331z"/>
<path style="fill:#65bdde; stroke:none;" d="M332 331L333 332L332 331z"/>
<path style="fill:#a08154; stroke:none;" d="M262 332L263 333L262 332z"/>
<path style="fill:#65bdde; stroke:none;" d="M334 332L335 333L334 332M260 333L261 334L260 333M336 333L337 334L336 333z"/>
<path style="fill:#a08154; stroke:none;" d="M337 333L338 334L337 333z"/>
<path style="fill:#65bdde; stroke:none;" d="M258 334L259 335L258 334z"/>
<path style="fill:#a08154; stroke:none;" d="M339 334L340 335L339 334M256 335L257 336L256 335z"/>
<path style="fill:#65bdde; stroke:none;" d="M340 335L341 336L340 335z"/>
<path style="fill:#a08154; stroke:none;" d="M254 336L255 337L254 336M342 336L343 337L342 336z"/>
<path style="fill:#65bdde; stroke:none;" d="M253 337L254 338L253 337z"/>
<path style="fill:#a08154; stroke:none;" d="M251 338L252 339L251 338z"/>
<path style="fill:#65bdde; stroke:none;" d="M345 338L346 339L345 338M250 339L251 340L250 339z"/>
<path style="fill:#a08154; stroke:none;" d="M347 339L348 340L347 339M248 340L249 341L248 340M348 340L349 341L348 340M247 341L248 342L247 341z"/>
<path style="fill:#65bdde; stroke:none;" d="M349 341L350 342L349 341M246 342L247 343L246 342z"/>
<path style="fill:#a08154; stroke:none;" d="M351 342L352 343L351 342M244 343L245 344L244 343M352 343L353 344L352 343M243 344L244 345L243 344z"/>
<path style="fill:#65bdde; stroke:none;" d="M353 344L354 345L353 344z"/>
<path style="fill:#a08154; stroke:none;" d="M242 345L243 346L242 345z"/>
<path style="fill:#65bdde; stroke:none;" d="M354 345L355 346L354 345z"/>
<path style="fill:#a08154; stroke:none;" d="M241 346L242 347L241 346z"/>
<path style="fill:#65bdde; stroke:none;" d="M240 347L241 348L240 347M239 348L240 349L239 348z"/>
<path style="fill:#a08154; stroke:none;" d="M37 350L38 351L37 350z"/>
<path style="fill:#65bdde; stroke:none;" d="M38 350.468C5.88408 356.524 15.0317 406.551 47 400.532C79.5092 394.412 70.4096 344.355 38 350.468z"/>
<path style="fill:#a08154; stroke:none;" d="M48 350L49 351L48 350z"/>
<path style="fill:#65bdde; stroke:none;" d="M237 350L238 351L237 350z"/>
<path style="fill:#a08154; stroke:none;" d="M33 351L34 352L33 351M51 351L52 352L51 351z"/>
<path style="fill:#65bdde; stroke:none;" d="M236 351L237 352L236 351z"/>
<path style="fill:#a08154; stroke:none;" d="M31 352L32 353L31 352M235 352L236 353L235 352M29 353L30 354L29 353M55 353L56 354L55 353M234 353L235 354L234 353z"/>
<path style="fill:#f6ac50; stroke:none;" d="M362 353L363 354L362 353z"/>
<path style="fill:#a08154; stroke:none;" d="M233 354L234 355L233 354z"/>
<path style="fill:#65bdde; stroke:none;" d="M363 354L364 355L363 354z"/>
<path style="fill:#a08154; stroke:none;" d="M58 355L59 356L58 355M232 355L233 356L232 355z"/>
<path style="fill:#65bdde; stroke:none;" d="M364 355L365 356L364 355z"/>
<path style="fill:#a08154; stroke:none;" d="M25 356L26 357L25 356M365 356L366 357L365 356M24 357L25 358L24 357z"/>
<path style="fill:#65bdde; stroke:none;" d="M231 357L232 358L231 357z"/>
<path style="fill:#a08154; stroke:none;" d="M23 358L24 359L23 358M230 358L231 359L230 358z"/>
<path style="fill:#65bdde; stroke:none;" d="M295.667 358.333L296.333 358.667L295.667 358.333z"/>
<path style="fill:#a08154; stroke:none;" d="M297 358L297 359L300 359L297 358z"/>
<path style="fill:#65bdde; stroke:none;" d="M300.667 358.333L301.333 358.667L300.667 358.333z"/>
<path style="fill:#a08154; stroke:none;" d="M62 359L63 360L62 359M229 359L230 360L229 359z"/>
<path style="fill:#65bdde; stroke:none;" d="M288 359L289 360L288 359z"/>
<path style="fill:#a08154; stroke:none;" d="M289 359L290 360L289 359M307 359L308 360L307 359z"/>
<path style="fill:#65bdde; stroke:none;" d="M308 359L309 360L308 359M367 359L368 360L367 359M285 360L286 361L285 360z"/>
<path style="fill:#a08154; stroke:none;" d="M286 360L287 361L286 360M310 360L311 361L310 360z"/>
<path style="fill:#65bdde; stroke:none;" d="M311 360L312 361L311 360z"/>
<path style="fill:#a08154; stroke:none;" d="M368 360L369 361L368 360z"/>
<path style="fill:#65bdde; stroke:none;" d="M228 361L229 362L228 361z"/>
<path style="fill:#a08154; stroke:none;" d="M282.667 361.333L283.333 361.667L282.667 361.333M313.667 361.333L314.333 361.667L313.667 361.333M64 362L65 363L64 362M227 362L228 363L227 362M280 362L281 363L280 362M316 362L317 363L316 362z"/>
<path style="fill:#65bdde; stroke:none;" d="M369 362L370 363L369 362z"/>
<path style="fill:#a08154; stroke:none;" d="M278 363L279 364L278 363M318 363L319 364L318 363M370 363L371 364L370 363M19 364L20 365L19 364z"/>
<path style="fill:#65bdde; stroke:none;" d="M226 364L227 365L226 364M276 364L277 365L276 364M320 364L321 365L320 364z"/>
<path style="fill:#a08154; stroke:none;" d="M371 365L372 366L371 365M66 366L67 367L66 366z"/>
<path style="fill:#65bdde; stroke:none;" d="M273 366L274 367L273 366M323 366L324 367L323 366z"/>
<path style="fill:#a08154; stroke:none;" d="M18 367L19 368L18 367M224 367L225 368L224 367M272 367L273 368L272 367M324 367L325 368L324 367M271 368L272 369L271 368M325 368L326 369L325 368M373 368L374 369L373 368M67 369L68 370L67 369M223 369L224 370L223 369M17 370L17 373L18 373L17 370z"/>
<path style="fill:#65bdde; stroke:none;" d="M268 370L269 371L268 370M328 370L329 371L328 370z"/>
<path style="fill:#a08154; stroke:none;" d="M374 370L375 371L374 370M222 371L223 372L222 371M375 372L376 373L375 372M221 373L222 374L221 373M265 374L266 375L265 374M331 374L332 375L331 374M376 374L377 375L376 374M220 375L221 376L220 375M264 375L265 376L264 375M296 375L296 376L301 376L296 375M332 375L333 376L332 375z"/>
<path style="fill:#65bdde; stroke:none;" d="M263 376L264 377L263 376z"/>
<path style="fill:#a08154; stroke:none;" d="M291 376L292 377L291 376z"/>
<path style="fill:#f6ac50; stroke:none;" d="M292 376.529C260.01 383.912 273.064 432.841 305 425.471C337.037 418.077 323.746 369.203 292 376.529z"/>
<path style="fill:#a08154; stroke:none;" d="M305 376L306 377L305 376z"/>
<path style="fill:#65bdde; stroke:none;" d="M333 376L334 377L333 376z"/>
<path style="fill:#a08154; stroke:none;" d="M377 376L378 377L377 376M219 377L220 378L219 377M288 377L289 378L288 377M308 377L309 378L308 377z"/>
<path style="fill:#65bdde; stroke:none;" d="M377 377L378 378L377 377z"/>
<path style="fill:#a08154; stroke:none;" d="M17 378L17 381L18 381L17 378z"/>
<path style="fill:#65bdde; stroke:none;" d="M219 378L220 379L219 378z"/>
<path style="fill:#a08154; stroke:none;" d="M262 378L263 379L262 378M286 378L287 379L286 378M310 378L311 379L310 378M334 378L335 379L334 378M284 379L285 380L284 379M312 379L313 380L312 379M378 379L379 380L378 379M218 380L219 381L218 380M261 380L262 381L261 380M283 380L284 381L283 380M313 380L314 381L313 380M335 380L336 381L335 380M67 381L68 382L67 381M379 382L380 383L379 382M18 383L19 384L18 383M217 383L218 384L217 383z"/>
<path style="fill:#65bdde; stroke:none;" d="M259 383L260 384L259 383M337 383L338 384L337 383z"/>
<path style="fill:#a08154; stroke:none;" d="M66 384L67 385L66 384M278 385L279 386L278 385M318 385L319 386L318 385M380 385L381 386L380 385M216 386L217 387L216 386M258 386L259 387L258 386M277 386L278 387L277 386M319 386L320 387L319 386M338 386L339 387L338 386z"/>
<path style="fill:#65bdde; stroke:none;" d="M380 386L381 387L380 386M216 387L217 388L216 387z"/>
<path style="fill:#a08154; stroke:none;" d="M64 388L65 389L64 388M276 388L277 389L276 388M320 388L321 389L320 388z"/>
<path style="fill:#65bdde; stroke:none;" d="M257 389L258 390L257 389M339 389L340 390L339 389z"/>
<path style="fill:#a08154; stroke:none;" d="M381 389L382 390L381 389M215 390L216 391L215 390M257 390L258 391L257 390M339 390L340 391L339 390z"/>
<path style="fill:#65bdde; stroke:none;" d="M381 390L382 391L381 390z"/>
<path style="fill:#a08154; stroke:none;" d="M62 391L63 392L62 391z"/>
<path style="fill:#65bdde; stroke:none;" d="M215 391L216 392L215 391z"/>
<path style="fill:#a08154; stroke:none;" d="M61 392L62 393L61 392z"/>
<path style="fill:#65bdde; stroke:none;" d="M256 392L257 393L256 392z"/>
<path style="fill:#a08154; stroke:none;" d="M274 392L275 393L274 392M322 392L323 393L322 392z"/>
<path style="fill:#65bdde; stroke:none;" d="M340.333 392.667L340.667 393.333L340.333 392.667z"/>
<path style="fill:#a08154; stroke:none;" d="M24 393L25 394L24 393M256 393L256 397L257 397L256 393M382.333 393.667L382.667 394.333L382.333 393.667M59 394L60 395L59 394M340 394L340 397L341 397L340 394M58 395L59 396L58 395M214.333 395.667L214.667 396.333L214.333 395.667M273.333 395.667L273.667 396.333L273.333 395.667M323 395L323 398L324 398L323 395z"/>
<path style="fill:#65bdde; stroke:none;" d="M382 395L383 396L382 395z"/>
<path style="fill:#a08154; stroke:none;" d="M55 397L56 398L55 397z"/>
<path style="fill:#65bdde; stroke:none;" d="M214 397L215 398L214 397z"/>
<path style="fill:#a08154; stroke:none;" d="M31 398L32 399L31 398M53 398L54 399L53 398M34 399L35 400L34 399M51 399L52 400L51 399M383 399L383 402L384 402L383 399M37 400L38 401L37 400M47 400L48 401L47 400M213 402L213 409L214 409L213 402z"/>
<path style="fill:#65bdde; stroke:none;" d="M383 402L383 405L384 405L383 402z"/>
<path style="fill:#a08154; stroke:none;" d="M256 405L256 409L257 409L256 405M273.333 405.667L273.667 406.333L273.333 405.667M323.333 405.667L323.667 406.333L323.333 405.667M340 405L340 409L341 409L340 405z"/>
<path style="fill:#65bdde; stroke:none;" d="M213.333 409.667L213.667 410.333L213.333 409.667M256 409L257 410L256 409z"/>
<path style="fill:#a08154; stroke:none;" d="M274 409L275 410L274 409M322 409L323 410L322 409z"/>
<path style="fill:#65bdde; stroke:none;" d="M340 409L341 410L340 409z"/>
<path style="fill:#a08154; stroke:none;" d="M213 411L213 418L214 418L213 411M257 411L258 412L257 411M339 411L340 412L339 411z"/>
<path style="fill:#65bdde; stroke:none;" d="M257 412L258 413L257 412z"/>
<path style="fill:#a08154; stroke:none;" d="M275 412L276 413L275 412M321 412L322 413L321 412z"/>
<path style="fill:#65bdde; stroke:none;" d="M339 412L340 413L339 412M383 414L383 418L384 418L383 414z"/>
<path style="fill:#a08154; stroke:none;" d="M258 415L259 416L258 415M277 415L278 416L277 415M319 415L320 416L319 415M338 415L339 416L338 415z"/>
<path style="fill:#65bdde; stroke:none;" d="M259 418L260 419L259 418M337 418L338 419L337 418z"/>
<path style="fill:#a08154; stroke:none;" d="M383.333 418.667L383.667 419.333L383.333 418.667z"/>
<path style="fill:#65bdde; stroke:none;" d="M260 420L261 421L260 420M336 420L337 421L336 420M214 421L215 422L214 421z"/>
<path style="fill:#a08154; stroke:none;" d="M261 421L262 422L261 421M283 421L284 422L283 421M313 421L314 422L313 421M335 421L336 422L335 421M214 422L214 425L215 425L214 422M284 422L285 423L284 422M312 422L313 423L312 422M262 423L263 424L262 423M286 423L287 424L286 423M310 423L311 424L310 423M334 423L335 424L334 423M288 424L289 425L288 424M308 424L309 425L308 424z"/>
<path style="fill:#65bdde; stroke:none;" d="M382 424L383 425L382 424M263 425L264 426L263 425z"/>
<path style="fill:#a08154; stroke:none;" d="M291 425L292 426L291 425M305 425L306 426L305 425z"/>
<path style="fill:#65bdde; stroke:none;" d="M333 425L334 426L333 425z"/>
<path style="fill:#a08154; stroke:none;" d="M382.333 425.667L382.667 426.333L382.333 425.667M264 426L265 427L264 426M295 426L295 427L302 427L295 426M332 426L333 427L332 426M113 427L114 428L113 427z"/>
<path style="fill:#65bdde; stroke:none;" d="M114 427.468C82.8131 433.363 91.7928 482.636 123 477.38C156.658 471.712 147.399 421.154 114 427.468z"/>
<path style="fill:#a08154; stroke:none;" d="M125 427L126 428L125 427z"/>
<path style="fill:#65bdde; stroke:none;" d="M215 427L216 428L215 427z"/>
<path style="fill:#a08154; stroke:none;" d="M265 427L266 428L265 427M331 427L332 428L331 427M128 428L129 429L128 428M215 428L216 429L215 428M381.333 429.667L381.667 430.333L381.333 429.667z"/>
<path style="fill:#65bdde; stroke:none;" d="M267 430L268 431L267 430M329 430L330 431L329 430z"/>
<path style="fill:#a08154; stroke:none;" d="M104 431L105 432L104 431M134 431L135 432L134 431z"/>
<path style="fill:#65bdde; stroke:none;" d="M216 431L217 432L216 431z"/>
<path style="fill:#a08154; stroke:none;" d="M266 431L267 432L266 431M330 431L331 432L330 431M103 432L104 433L103 432M135 432L136 433L135 432M216 432L217 433L216 432M264 432L265 433L264 432M332 432L333 433L332 432M262 433L263 434L262 433M334 433L335 434L334 433M380 433L381 434L380 433z"/>
<path style="fill:#65bdde; stroke:none;" d="M260 434L261 435L260 434M336 434L337 435L336 434z"/>
<path style="fill:#a08154; stroke:none;" d="M217 435L218 436L217 435M99 436L100 437L99 436M139 436L140 437L139 436M257 436L258 437L257 436M339 436L340 437L339 436M379 436L380 437L379 436M98 437L99 438L98 437M218 438L219 439L218 438M254 438L255 439L254 438M342 438L343 439L342 438M97 439L98 440L97 439M141 439L142 440L141 439M253 439L254 440L253 439M343 439L344 440L343 439M378 439L379 440L378 439M142 441L143 442L142 441M219 441L220 442L219 441z"/>
<path style="fill:#65bdde; stroke:none;" d="M250 441L251 442L250 441M346 441L347 442L346 441M377 441L378 442L377 441M249 442L250 443L249 442M347 442L348 443L347 442z"/>
<path style="fill:#a08154; stroke:none;" d="M377 442L378 443L377 442M95 443L96 444L95 443M143 443L144 444L143 443M220 443L221 444L220 443z"/>
<path style="fill:#65bdde; stroke:none;" d="M248 443L249 444L248 443M348 443L349 444L348 443z"/>
<path style="fill:#a08154; stroke:none;" d="M247 444L248 445L247 444M281 444L281 445L284 445L281 444z"/>
<path style="fill:#f6ac50; stroke:none;" d="M284 444.439C270.984 446.488 260.178 453.635 253.454 465C251.278 468.677 247.43 475.418 250.618 479.471C262.764 494.909 295.698 496.312 313 493.561C322.238 492.092 342.005 487.625 346.933 478.671C352.499 468.558 334.164 452.776 327 448.901C315.086 442.457 297.151 442.369 284 444.439z"/>
<path style="fill:#a08154; stroke:none;" d="M313 444L313 445L316 445L313 444M349 444L350 445L349 444M376 444L377 445L376 444z"/>
<path style="fill:#65bdde; stroke:none;" d="M221 445L222 446L221 445M246 445L247 446L246 445z"/>
<path style="fill:#a08154; stroke:none;" d="M278 445L279 446L278 445M318 445L319 446L318 445z"/>
<path style="fill:#65bdde; stroke:none;" d="M350 445L351 446L350 445z"/>
<path style="fill:#a08154; stroke:none;" d="M94 446L95 447L94 446z"/>
<path style="fill:#65bdde; stroke:none;" d="M245 446L246 447L245 446z"/>
<path style="fill:#a08154; stroke:none;" d="M275 446L276 447L275 446M321 446L322 447L321 446z"/>
<path style="fill:#65bdde; stroke:none;" d="M351 446L352 447L351 446z"/>
<path style="fill:#a08154; stroke:none;" d="M375 446L376 447L375 446M144 447L145 448L144 447z"/>
<path style="fill:#65bdde; stroke:none;" d="M222 447L223 448L222 447z"/>
<path style="fill:#a08154; stroke:none;" d="M270 448L271 449L270 448M326 448L327 449L326 448M374 448L375 449L374 448M223 449L224 450L223 449M268 449L269 450L268 449M328 449L329 450L328 449M242 450L243 451L242 450M267 450L268 451L267 450M329 450L330 451L329 450M354 450L355 451L354 450M373 450L374 451L373 450M224 451L225 452L224 451z"/>
<path style="fill:#65bdde; stroke:none;" d="M241 451L242 452L241 451M355 451L356 452L355 451z"/>
<path style="fill:#a08154; stroke:none;" d="M264 452L265 453L264 452M332 452L333 453L332 452M372 452L373 453L372 452M225 453L226 454L225 453M240 453L241 454L240 453M356 453L357 454L356 453z"/>
<path style="fill:#65bdde; stroke:none;" d="M371 453L372 454L371 453M226 454L227 455L226 454z"/>
<path style="fill:#a08154; stroke:none;" d="M239 454L240 455L239 454z"/>
<path style="fill:#65bdde; stroke:none;" d="M357 454L358 455L357 454z"/>
<path style="fill:#a08154; stroke:none;" d="M370 455L371 456L370 455M144.333 456.667L144.667 457.333L144.333 456.667M227 456L228 457L227 456M238 456L239 457L238 456M358 456L359 457L358 456z"/>
<path style="fill:#65bdde; stroke:none;" d="M369 456L370 457L369 456z"/>
<path style="fill:#a08154; stroke:none;" d="M94 457L95 458L94 457z"/>
<path style="fill:#65bdde; stroke:none;" d="M228 457L229 458L228 457z"/>
<path style="fill:#a08154; stroke:none;" d="M237 458L238 459L237 458M359 458L360 459L359 458M368 458L369 459L368 458M229 459L230 460L229 459z"/>
<path style="fill:#65bdde; stroke:none;" d="M236 459L237 460L236 459M360 459L361 460L360 459M367 459L368 460L367 459z"/>
<path style="fill:#a08154; stroke:none;" d="M143 460L144 461L143 460z"/>
<path style="fill:#65bdde; stroke:none;" d="M230 460L231 461L230 460z"/>
<path style="fill:#a08154; stroke:none;" d="M256 460L257 461L256 460M340 460L341 461L340 460M95 461L96 462L95 461M235 462L236 463L235 462M361 462L362 463L361 462M365 462L366 463L365 462M96 463L97 464L96 463M142 463L143 464L142 463M232 463L233 464L232 463M254 463L255 464L254 463M342 463L343 464L342 463M364 463L365 464L364 463M233.667 464.333L234.333 464.667L233.667 464.333M253 464L254 465L253 464M343 464L344 465L343 464M362 464L363 465L362 464z"/>
<path style="fill:#65bdde; stroke:none;" d="M363 464L364 465L363 464z"/>
<path style="fill:#a08154; stroke:none;" d="M252 466L253 467L252 466M344 466L345 467L344 466M251 468L252 469L251 468M345 468L346 469L345 468M101 470L102 471L101 470M137 470L138 471L137 470M250 470L251 471L250 470M346 470L347 471L346 470M249.333 473.667L249.667 474.333L249.333 473.667M347.333 473.667L347.667 474.333L347.333 473.667M111 476L112 477L111 476M127 476L128 477L127 476M114 477L114 478L117 478L114 477M122.667 477.333L123.333 477.667L122.667 477.333M248.333 477.667L248.667 478.333L248.333 477.667M348.333 477.667L348.667 478.333L348.333 477.667M347 479L348 480L347 479M251 480L252 481L251 480M345 480L346 481L345 480M254 482L255 483L254 482M342 482L343 483L342 482M256 483L257 484L256 483M340 483L341 484L340 483M258 484L259 485L258 484M337 485L338 486L337 485M262 486L263 487L262 486M335 486L336 487L335 486M264 487L265 488L264 487M333 487L334 488L333 487M266 488L267 489L266 488M330 488L331 489L330 488M268.667 489.333L269.333 489.667L268.667 489.333M328 489L329 490L328 489M271 490L272 491L271 490M325 490L326 491L325 490M274.667 491.333L275.333 491.667L274.667 491.333M321.667 491.333L322.333 491.667L321.667 491.333M278.667 492.333L279.333 492.667L278.667 492.333M318.667 492.333L319.333 492.667L318.667 492.333M282.667 493.333L283.333 493.667L282.667 493.333M313.667 493.333L314.333 493.667L313.667 493.333M289 494L289 495L294 495L289 494M304 494L304 495L309 495L304 494z"/>
</svg>
