<svg width="43" height="43" viewBox="0 0 43 43" fill="none" xmlns="http://www.w3.org/2000/svg">
<path d="M42.4688 21.4835C42.4688 9.71494 32.9885 0.176514 21.2933 0.176514C9.59807 0.176514 0.117676 9.71494 0.117676 21.4835C0.117676 32.1157 7.86153 40.9297 17.9843 42.5277V27.6412H12.6088V21.4817H17.9843V16.7889C17.9843 11.4479 21.1468 8.49866 25.9823 8.49866C28.2994 8.49866 30.7225 8.91415 30.7225 8.91415V14.1574H28.0541C25.4246 14.1574 24.604 15.7999 24.604 17.4849V21.4835H30.4772L29.5383 27.643H24.604V42.5295C34.7268 40.9314 42.4706 32.1174 42.4706 21.4835H42.4688Z" fill="black"/>
</svg>
