<svg width="43" height="31" viewBox="0 0 43 31" fill="none" xmlns="http://www.w3.org/2000/svg">
<path d="M41.763 5.09427C41.2599 3.30828 39.8671 1.90756 38.0732 1.4124C34.77 0.529339 21.4909 0.529339 21.4909 0.529339C21.4909 0.529339 8.23697 0.508156 4.89933 1.4124C3.11466 1.90888 1.71526 3.30828 1.21746 5.09427C0.591239 8.47957 0.280115 11.9059 0.294678 15.3481C0.288058 18.7679 0.597859 22.1889 1.21746 25.553C1.71526 27.339 3.11466 28.7398 4.89933 29.2429C8.20254 30.1259 21.4909 30.1259 21.4909 30.1259C21.4909 30.1259 34.7369 30.1259 38.0732 29.2429C39.8671 28.7398 41.2599 27.3404 41.763 25.553C42.3707 22.1889 42.6672 18.7679 42.646 15.3481C42.6672 11.9059 42.3773 8.47957 41.763 5.09427ZM17.249 21.6858V8.98267L28.3025 15.3481L17.249 21.6858Z" fill="black"/>
</svg>
