<?xml version="1.0" standalone="yes"?>
<svg xmlns="http://www.w3.org/2000/svg" width="512" height="512">
<path style="fill:#fffefc; stroke:none;" d="M0 0L0 252C17.5958 240.932 17.7041 262.564 18 275C18.0977 279.107 19.7491 284.151 17.8171 287.985C10.6154 302.276 1.0249 287.022 1 278L0 278L0 512L232 512L232 511C227.591 510.988 223.362 510.483 219 509.87C211.241 508.779 196.007 498.751 210.043 492.692C215.308 490.42 222.586 492.645 228 493.421C240.116 495.156 256.198 495.929 246 512L267 512L267 511C261.769 506.854 260.333 499.881 267.044 495.988C272.926 492.576 294.497 489.917 300.996 491.983C316.589 496.94 301.561 508.666 293 509.87C288.638 510.483 284.409 510.988 280 511L280 512L512 512L512 278L511 278C510.974 287.467 499.5 302.367 493.908 286.995C491.532 280.462 493.13 259.437 495.858 253.04C499.066 245.518 506.661 246.527 511 252L512 252L512 0L272 0L272 1C279.525 4.61639 280.446 13.5103 271.995 16.9908C265.854 19.5201 246.4 19.3809 240.004 17.3472C231.193 14.5458 231.28 4.80734 239 1L217 0L168 0L0 0z"/>
<path style="fill:#020202; stroke:none;" d="M239.015 0.57251C231.341 2.84494 230.686 13.8183 238.044 16.9908C244.53 19.787 266.511 19.7151 272.981 16.9908C280.206 13.9492 280.438 3.85608 272.981 0.893524C265.453 -2.09741 246.768 -1.72302 239.015 0.57251M299 3.73303C291.429 4.0719 286.288 13.9935 293.228 19.1458C299.297 23.6505 319.484 27.8935 327 27.2276C334.582 26.5559 337.946 16.5909 331.772 11.7276C325.132 6.49835 307.335 3.35995 299 3.73303M207 4.43906C199.077 5.67337 185.363 6.88843 179.228 12.4298C172.779 18.2563 177.567 28.3332 186 27.6559C193.752 27.0333 211.685 24.0545 217.772 19.2724C228.078 11.174 215.446 3.12326 207 4.43906M155 20.5447C146.778 22.187 130.714 29.5351 125.434 36.1049C120.664 42.0393 125.01 51.5461 133 50.5154C140.735 49.5178 159.913 40.3043 164.397 33.8951C169.269 26.9307 162.689 19.009 155 20.5447M350.094 20.7423C344.725 22.9796 343.617 30.4913 347.434 34.6096C352.812 40.4128 375.141 52.3982 382.956 49.2569C389.113 46.7822 389.091 38.5309 384.772 34.3904C378.805 28.6715 358.384 17.2879 350.094 20.7423M36 104C46.5426 123.448 77.1789 124.895 94 113.899C115.821 99.6346 120.954 69.6951 105.1 49.0038C100.247 42.6691 93.516 37.7865 86 35.0903C61.7189 26.3799 34.9926 39.247 27.348 64C24.951 71.7613 28.7121 82.0208 25.8063 88.9105C23.0664 95.4069 15.4779 100.611 11.8758 107C3.77102 121.376 -0.492442 148.173 5.56327 164C10.0607 175.754 21.5654 175 32 175L104 175C113.672 175 125.593 177.179 132.606 168.906C140.903 159.119 137.522 137.749 135.704 126C134.891 120.746 133.526 112.919 126.996 112.287C120.693 111.677 118.663 117.897 119.174 123C119.935 130.589 125.602 152.183 119.397 158.258C115.232 162.334 102.436 160 97 160L45 160C38.7677 160 28.9023 161.861 23.1481 159.258C18.2641 157.048 20 148.326 20 144C20 128.717 22.5722 113.486 36 104M438 32.429C418.31 34.8751 401.837 46.7835 397.518 67C396.104 73.6142 399.326 83.0352 396.803 88.9105C394.155 95.0793 386.81 99.943 383.337 106C375.184 120.221 369.005 150.716 377.417 165.996C383.076 176.273 393.972 175 404 175L469 175C477.619 175 490.12 177.272 497.999 173.312C512.553 165.997 508.557 142.231 507.05 129C506.443 123.666 505.806 115.013 499.956 112.747C494.145 110.496 490.047 115.651 490.059 121C490.078 129.916 492.001 138.9 492 148C492 151.066 492.827 155.879 490.397 158.258C486.232 162.334 473.436 160 468 160L414 160C408.502 160 398.056 161.983 393.318 158.821C389.566 156.318 391 148.855 391 145C391 132.484 391.696 114.693 403.296 106.465C407.724 103.325 417.586 114.61 422 116.677C433.993 122.292 449.144 122.198 461 116.099C501.926 95.0438 485.941 26.4734 438 32.429z"/>
<path style="fill:#fb5d95; stroke:none;" d="M64 48L65 49L64 48z"/>
<path style="fill:#e2c253; stroke:none;" d="M65 48.4645C27.7708 55.2223 38.9428 112.01 76 104.904C112.153 97.9721 101.044 41.9218 65 48.4645z"/>
<path style="fill:#fb5d95; stroke:none;" d="M75 48L76 49L75 48M435 48L436 49L435 48z"/>
<path style="fill:#e2c253; stroke:none;" d="M436 48.4645C398.716 55.1866 409.947 112.009 447 104.904C483.118 97.9789 472.018 41.9705 436 48.4645z"/>
<path style="fill:#fb5d95; stroke:none;" d="M446 48L447 49L446 48M60 49L61 50L60 49M79 49L80 50L79 49M431 49L432 50L431 49M450 49L451 50L450 49M56 51L57 52L56 51M54 52L55 53L54 52M425 52L426 53L425 52M50 55L51 56L50 55M89 55L90 56L89 55M421 55L422 56L421 55M460 55L461 56L460 55M49 56L50 57L49 56M420 56L421 57L420 56M48 57L49 58L48 57M91 57L92 58L91 57M419 57L420 58L419 57M462 57L463 58L462 57M45 61L46 62L45 61M94 61L95 62L94 61M416 61L417 62L416 61M465 61L466 62L465 61M44 63L45 64L44 63M415 63L416 64L415 63M43 65L44 66L43 65M97 67L98 68L97 67M42 68L43 69L42 68M413 68L414 69L413 68M41 71L41 74L42 74L41 71M98 71L99 72L98 71M412 71L412 74L413 74L412 71M469.333 71.6667L469.667 72.3333L469.333 71.6667M41 80L41 83L42 83L41 80M412 80L412 83L413 83L412 80M98.3333 81.6667L98.6667 82.3333L98.3333 81.6667M469.333 81.6667L469.667 82.3333L469.333 81.6667M42 85L43 86L42 85M97 85L98 86L97 85M413 85L414 86L413 85M468 85L469 86L468 85M43 88L44 89L43 88M96 88L97 89L96 88M414 88L415 89L414 88M467 88L468 89L467 88M44 90L45 91L44 90M95 90L96 91L95 90M415 90L416 91L415 90M466 90L467 91L466 90M94 92L95 93L94 92M46 93L47 94L46 93M417 93L418 94L417 93M90 97L91 98L90 97z"/>
<path style="fill:#e2c253; stroke:none;" d="M109 97C92.5973 122.836 56.2626 130.374 36 104C21.787 110.684 20 130.355 20 144C20 147.623 18.4069 156.289 21.6034 158.821C25.7286 162.088 36.9629 160 42 160L98 160C102.826 160 116.657 162.355 119.972 158.258C124.339 152.86 121.254 132.438 119.884 126C117.356 114.114 124.035 104.07 109 97M480 97C461.774 125.708 429.281 127.088 406 104C393.16 113.241 391 129.388 391 144C391 147.834 389.589 155.307 392.603 158.258C396.528 162.1 407.911 160 413 160L469 160C473.826 160 487.657 162.355 490.972 158.258C495.442 152.734 492.099 132.575 490.793 126C488.498 114.444 494.34 103.992 480 97z"/>
<path style="fill:#fb5d95; stroke:none;" d="M478 99L479 100L478 99M53 100L54 101L53 100M424 100L425 101L424 100M106 101L107 102L106 101M477 101L478 102L477 101M83 102L84 103L83 102M454 102L455 103L454 102M58 103L59 104L58 103M81 103L82 104L81 103M429 103L430 104L429 103M452 103L453 104L452 103M61 104L62 105L61 104M78 104L79 105L78 104M404 104L405 105L404 104M406 104L407 105L406 104M432 104L433 105L432 104M449 104L450 105L449 104M65 105L65 106L68 106L65 105M72 105L72 106L75 106L72 105M403 105L404 106L403 105M407 105L408 106L407 105M436 105L436 106L439 106L436 105M443 105L443 106L446 106L443 105M402 106L403 107L402 106M408 106L409 107L408 106M472 107L473 108L472 107M410 108L411 109L410 108M471 108L472 109L471 108M40 109L41 110L40 109M411 109L412 110L411 109M28 110L29 111L28 110M41 110L42 111L41 110M399 110L400 111L399 110M412 110L413 111L412 110M45 113L46 114L45 113M94 113L95 114L94 113M397 113L398 114L397 113M416 113L417 114L416 113M465 113L466 114L465 113M463 114L464 115L463 114M25 115L26 116L25 115M396 115L397 116L396 115M421 116L422 117L421 116M55 118L56 119L55 118M426 118L427 119L426 118M454 118L455 119L454 118M23 119L24 120L23 119M80 119L81 120L80 119M394 119L395 120L394 119M429 119L430 120L429 119M451 119L452 120L451 119M489.333 119.667L489.667 120.333L489.333 119.667M74 120L75 121L74 120M434.667 120.333L435.333 120.667L434.667 120.333M444.667 120.333L445.333 120.667L444.667 120.333M22 122L23 123L22 122M393 122L394 123L393 122M21 125L22 126L21 125M392 125L393 126L392 125M391.333 128.667L391.667 129.333L391.333 128.667M20 129L21 130L20 129M491 129L492 130L491 129M391 158L392 159L391 158M393 159L394 160L393 159z"/>
<path style="fill:#020202; stroke:none;" d="M178 231C166.001 231.001 153.987 233.43 144 240.44C118.953 258.022 110.704 294.643 127.066 321C133.368 331.153 144.135 335.383 151.046 344.21C160.504 356.292 168.018 365.855 182 373.219C186.501 375.59 192.706 379.324 197.956 377.254C207.778 373.38 198.753 355.112 197 348C217.976 348 243.627 352.153 263 342.741C278.311 335.302 285.598 313.002 302 313C301.344 321.247 290.493 341.156 297.318 347.485C301.502 351.366 307.599 348.671 312 346.688C323.337 341.582 333.774 335.145 342.961 326.714C349.093 321.086 351.776 313.107 357.39 307.379C363.678 300.964 372.61 297.875 378.826 290.996C395.927 272.073 401.801 244.237 393.644 220C391.532 213.722 388.365 207.42 384.56 202C360.892 168.286 322.118 173 286 173C247.1 173 205.891 169.61 184.785 210C181.406 216.466 178.974 223.77 178 231z"/>
<path style="fill:#28c6f1; stroke:none;" d="M192 273L192 274C197.975 281.752 204.249 292.248 213.961 295.856C218.254 297.45 221.533 292.959 226 293.573C242.025 295.772 256.563 298 273 298L302 298C306.075 298 311.287 297.235 314.427 300.434C320.201 306.315 316.312 319.727 316 327C323.721 322.702 331.746 317.145 337.076 309.996C340.258 305.728 341.821 300.11 345.394 296.213C349.692 291.523 356.908 289.139 361.999 285.251C369.554 279.482 375.122 270.904 378.302 262C380.952 254.579 382.642 245.859 381.575 238C380.677 231.392 379.194 225.009 376.19 219C356.917 180.454 310.706 188 275 188C260.101 188 243.174 185.923 229 191.464C210.2 198.812 193.992 216.013 193.039 237C192.524 248.354 199.709 264.298 192 273z"/>
<path style="fill:#020202; stroke:none;" d="M493.185 190.743C490.005 192.115 488.31 195.686 488.198 199C487.907 207.651 491.46 240.09 504.981 235.092C515.559 231.182 509.073 202.617 504.836 195.044C502.625 191.093 497.512 188.877 493.185 190.743M11.0548 191.742C3.33944 194.915 -0.141604 221.547 1.40895 228.996C2.50122 234.244 7.73621 237.709 12.9568 235.812C20.6801 233.004 24.8517 205.499 23.4915 198.004C22.4461 192.243 16.3067 189.582 11.0548 191.742z"/>
<path style="fill:#fb5d95; stroke:none;" d="M182 354C182 348.193 180.315 339.607 185.148 335.318C190.518 330.553 203.26 333 210 333C232.003 333 260.983 336.474 273 313C257.423 313 234.79 315.926 221.109 306.775C217.182 304.15 218.197 300.008 215.397 296.9C208.896 289.685 200.883 283.516 194.251 276.148C191.503 273.096 187.371 273.339 184.558 270.566C179.263 265.348 178.145 254.038 178 247C145.298 247 124.385 280.15 138.901 310C144.346 321.196 154.943 323.785 162.363 332.329C169.13 340.121 171.37 349.882 182 354z"/>
<path style="fill:#020202; stroke:none;" d="M500.094 247.859C497.499 248.995 495.858 251.289 495.279 254.015C493.55 262.147 491.351 279.042 493.576 286.995C494.947 291.894 500.069 294.908 504.981 293.092C514.569 289.548 513.914 261.33 511.566 253.015C510.184 248.122 504.715 245.836 500.094 247.859M4.05864 249.028C-3.78165 253.307 -0.970233 280.731 1.89352 287.985C3.77559 292.752 9.24516 295.306 13.956 292.82C22.7387 288.185 17.6296 271.887 17.0895 264C16.848 260.474 17.6232 256.395 16.2577 253.044C14.408 248.505 8.32037 246.702 4.05864 249.028M12.0154 305.746C0.243684 310.219 10.867 338.56 15.9946 345.891C18.4892 349.458 22.8602 350.781 26.8951 348.99C36.9271 344.537 27.1451 315.829 22.2724 309.109C19.9495 305.905 15.8175 304.301 12.0154 305.746M493.105 305.742C486.401 308.575 479.986 334.032 480.202 341C480.384 346.87 486.349 351.227 491.957 348.976C500.201 345.667 506.26 321.245 505.721 313.001C505.308 306.692 498.842 303.318 493.105 305.742M66 337.425C46.6005 340.036 29.7817 352.835 26.3248 373C25.2734 379.134 28.1971 388.415 25.8032 393.83C23.0639 400.028 15.8328 404.903 12.3372 411C4.09537 425.376 -1.80634 455.483 6.44213 470.996C11.9567 481.368 24.0744 480 34 480L99 480C107.967 480 119.869 482.063 127.996 477.583C141.57 470.1 137.503 446.761 136.05 434C135.443 428.666 134.806 420.013 128.956 417.747C123.145 415.496 119.047 420.651 119.059 426C119.078 434.916 121.001 443.9 121 453C121 456.065 121.827 460.879 119.397 463.258C115.232 467.334 102.436 465 97 465L43 465C37.5021 465 27.0565 466.983 22.3179 463.821C18.5663 461.318 20 453.855 20 450C20 437.682 20.7891 419.483 32.3009 411.466C36.7723 408.352 47.2788 420.063 52 422.124C64.2278 427.463 79.2958 426.871 91 420.406C131.411 398.083 113.859 330.984 66 337.425M437 337.425C417.618 340.034 400.716 352.837 397.324 373C396.297 379.105 399.199 388.452 396.802 393.83C394.197 399.677 387.231 404.24 383.877 410C375.434 424.496 368.756 455.285 377.417 470.996C383.11 481.322 394.956 480 405 480L470 480C478.967 480 490.869 482.063 498.996 477.583C512.495 470.141 508.494 446.683 507.05 434C506.443 428.666 505.806 420.013 499.956 417.747C494.145 415.496 490.047 420.651 490.059 426C490.078 434.916 492.001 443.9 492 453C492 456.065 492.827 460.879 490.397 463.258C486.232 467.334 473.436 465 468 465L414 465C408.502 465 398.056 466.983 393.318 463.821C389.566 461.318 391 453.855 391 450C391 437.307 391.887 419.897 403.425 411.466C407.366 408.587 418.613 420.209 423 422.124C435.326 427.506 450.197 426.787 462 420.331C502.521 398.166 484.661 331.011 437 337.425z"/>
<path style="fill:#fb5d95; stroke:none;" d="M63 353L64 354L63 353z"/>
<path style="fill:#e2c253; stroke:none;" d="M64 353.518C26.4667 361.525 40.5145 417.97 78 409.319C113.276 401.179 99.1925 346.009 64 353.518z"/>
<path style="fill:#fb5d95; stroke:none;" d="M76 353L77 354L76 353M434 353L435 354L434 353z"/>
<path style="fill:#e2c253; stroke:none;" d="M435 353.518C397.302 361.561 411.481 417.978 449 409.319C484.214 401.193 470.123 346.024 435 353.518z"/>
<path style="fill:#fb5d95; stroke:none;" d="M447 353L448 354L447 353M60 354L61 355L60 354M79 354L80 355L79 354M431 354L432 355L431 354M450 354L451 355L450 354M82 355L83 356L82 355M453 355L454 356L453 355M51 359L52 360L51 359M88 359L89 360L88 359M422 359L423 360L422 359M459 359L460 360L459 359M50 360L51 361L50 360M421 360L422 361L421 360M48 362L49 363L48 362M419 362L420 363L419 362M462 362L463 363L462 362M92 363L93 364L92 363M418 363L419 364L418 363M463 363L464 364L463 363M45 366L46 367L45 366M416 366L417 367L416 366M44 368L45 369L44 368M97 372L98 373L97 372M468 372L469 373L468 372M42 373L43 374L42 373M41 376L41 379L42 379L41 376M98 376L99 377L98 376M412.333 376.667L412.667 377.333L412.333 376.667M469.333 376.667L469.667 377.333L469.333 376.667M41.3333 385.667L41.6667 386.333L41.3333 385.667M412 385L412 388L413 388L412 385M98.3333 386.667L98.6667 387.333L98.3333 386.667M469.333 386.667L469.667 387.333L469.333 386.667M42 390L43 391L42 390M97 390L98 391L97 390M413 390L414 391L413 390M468 390L469 391L468 390M43 393L44 394L43 393M96 393L97 394L96 393M414 393L415 394L414 393M467 393L468 394L467 393M95 395L96 396L95 395M46 398L47 399L46 398M417 398L418 399L417 398M464 398L465 399L464 398M109 402C96.8652 419.767 76.4503 431.069 55 422.934C49.6867 420.919 37.8846 408.355 33.1736 410.176C20.2352 415.176 20 439.136 20 450C20 454.021 18.1993 462.963 23.1481 464.566C29.6953 466.687 39.1472 465 46 465L96 465C101.614 465 114.837 467.432 119.397 463.821C122.823 461.107 121 450.929 121 447C121 440.102 119.639 433.769 119.193 427C118.959 423.45 121.374 420.417 121.052 417C120.513 411.275 113.846 404.362 109 402z"/>
<path style="fill:#28c6f1; stroke:none;" d="M480 402C468.149 419.351 448.101 430.743 427 423.301C421.977 421.53 408.194 408.521 404.25 410.176C391.239 415.636 391 438.772 391 450C391 453.643 389.368 462.244 393.318 464.258C398.686 466.995 409.065 465 415 465L468 465C473.422 465 485.981 467.318 490.397 463.821C493.823 461.107 492 450.929 492 447C492 430.852 494.39 412.223 480 402z"/>
<path style="fill:#fb5d95; stroke:none;" d="M52 404L53 405L52 404M53 405L54 406L53 405M86 405L87 406L86 405M424 405L425 406L424 405M457 405L458 406L457 405M55 406L56 407L55 406M59 408L60 409L59 408M430 408L431 409L430 408M62 409L63 410L62 409M77 409L78 410L77 409M433 409L434 410L433 409M448 409L449 410L448 409M67 410L67 411L73 411L67 410M438 410L438 411L444 411L438 410z"/>
<path style="fill:#020202; stroke:none;" d="M155.019 475.746C148.341 478.314 147.823 486.91 153.214 491.031C159.903 496.145 180.705 504.606 188.956 501.258C194.902 498.845 195.137 490.775 190.606 486.853C185.077 482.068 162.005 473.06 155.019 475.746M351 475.529C343.24 477.232 326.871 481.617 321.279 487.278C314.449 494.192 321.69 503.001 330 501.674C338.359 500.338 354.705 495.927 360.566 489.61C367.209 482.45 359.11 473.749 351 475.529M213.001 491.638C205.058 492.423 201.03 502.166 208.133 507.258C214.863 512.082 236.059 513.706 243.995 511.682C251.452 509.78 252.365 499.795 245.942 495.988C239.354 492.085 220.651 490.882 213.001 491.638M297 491.465C288.771 492.168 273.104 491.706 266.109 495.988C254.113 503.332 267.621 512.324 276 511.961C283.595 511.631 297.53 511.719 303.891 507.258C312.252 501.396 305.916 490.703 297 491.465z"/>
</svg>
