<?xml version="1.0" standalone="yes"?>
<svg xmlns="http://www.w3.org/2000/svg" width="512" height="512">
<path style="fill:#e9eff3; stroke:none;" d="M0 0L0 108L1 108C8.66752 81.435 37.4282 86 59 86C59 70.7424 54.0035 44.6111 61.4174 31C70.6575 14.0364 110.342 14.8593 119.991 31C128.01 44.415 123 70.824 123 86L187 86C187 70.6804 182.035 44.678 189.558 31.0008C198.447 14.8398 237.89 14.4657 247.521 30.0146C256.053 43.7888 251 70.2266 251 86L315 86C315 70.8137 309.962 44.3885 318.008 31C327.666 14.9304 367.333 14.0196 376.583 31C383.997 44.6111 379 70.7424 379 86C397.453 86 420.635 81.5469 432.779 99.0038C439.105 108.097 439.453 120.439 441.881 131C447.381 154.925 452.158 179.022 457.424 203C469.862 259.626 482.152 316.292 494.211 373C499.766 399.126 507.579 425.508 511 452L512 452L512 0L0 0z"/>
<path style="fill:#050404; stroke:none;" d="M59 86C41.8391 86 17.6105 81.2758 5.78858 97.0394C-0.826494 105.86 0 115.59 0 126L0 175L0 376L0 450C0 463.666 -0.900237 476.248 11.0008 485.61C23.3217 495.302 42.3794 492 57 492L164 492C176.112 492 188.966 493.239 201 491.891C205.671 491.368 209.674 488.095 208.408 483.005C206.979 477.258 201.95 477.01 197 477L163 477L59 477C47.4716 477 28.2385 480.712 19.3403 471.671C13.6931 465.932 15 457.353 15 450L15 398L15 188L423 188L423 290C423 296.988 419.138 321.284 430.988 320.392C441.921 319.569 438 296.257 438 289L438 187L439 187C439.992 210.038 448.63 234.485 453.576 257C463.739 303.272 474.239 349.56 483.6 396C486.968 412.708 490.748 429.356 494.424 446C496.097 453.574 499.032 461.939 494.146 468.96C483.98 483.567 449.615 477 434 477C439.032 463.933 438 449.794 438 436L438 372C438 365.148 441.839 338.991 429.042 341.909C419.095 344.177 423 366.476 423 374L423 444C423 452.664 425.323 464.9 418.66 471.671C409.762 480.712 390.528 477 379 477L275 477L243 477C238.807 477 233.611 476.229 230.858 480.148C226.576 486.245 231.775 491.566 238 491.956C254.859 493.011 272.105 492 289 492L435 492C453.226 492 480.699 497.098 497 487.637C508.844 480.762 512.545 468.874 511.961 456C510.747 429.27 500.552 400.117 494.65 374C479.851 308.504 465.617 242.753 452.003 177C448.408 159.638 444.332 142.374 440.801 125C438.697 114.649 437.967 103.341 430.532 95.1736C418.161 81.5833 395.504 86 379 86L379 49C379 42.2165 379.786 35.0224 376.005 29.0038C366.781 14.3203 326.82 15.3903 318.008 30.0008C309.836 43.5503 315 70.6095 315 86L251 86C251 70.16 256.242 42.7893 247.521 29.0401C238.43 14.7083 197.883 14.9819 189.558 30.0038C181.9 43.8217 187 70.4914 187 86L123 86C123 70.618 128.136 43.579 119.991 30.0008C111.186 15.3237 71.2055 14.3411 61.9946 29.0038C58.2138 35.0224 59 42.2165 59 49L59 86z"/>
<path style="fill:#5d656c; stroke:none;" d="M78 35L78 36L103 36L78 35M206 35L206 36L232 36L206 35M335 35L335 36L360 36L335 35M76 36L77 37L76 36z"/>
<path style="fill:#fcb74a; stroke:none;" d="M77.3179 36.7423C71.9179 39.4954 75 61.4502 75 67L75 111C75 115.125 73.3377 124 76.0278 127.397C78.9093 131.035 99.7418 130.191 103.852 128.397C110.093 125.672 107 105.823 107 100L107 56C107 51.281 108.689 42.3899 105.972 38.3179C103.108 34.026 81.6933 34.5116 77.3179 36.7423z"/>
<path style="fill:#5d656c; stroke:none;" d="M105 36L106 37L105 36M204 36L203 38L204 36z"/>
<path style="fill:#fcb74a; stroke:none;" d="M205.318 37.0278C200.103 40.5076 203 58.3181 203 64L203 107C203 112.405 201.414 120.837 203.603 125.852C205.815 130.918 228.43 130.81 232.682 127.972C237.897 124.492 235 106.682 235 101L235 58C235 52.5945 236.586 44.1626 234.397 39.1481C232.185 34.082 209.57 34.1902 205.318 37.0278z"/>
<path style="fill:#5d656c; stroke:none;" d="M233 36L234 37L233 36M332 36L333 37L332 36z"/>
<path style="fill:#fcb74a; stroke:none;" d="M333.318 37.0278C328.198 40.4441 331 57.4495 331 63L331 107C331 112.406 329.414 120.837 331.603 125.852C333.718 130.696 357.448 131.1 361.397 127.972C365.942 124.372 363 105.521 363 100L363 56C363 51.1794 364.613 42.8015 362.397 38.4337C360.167 34.0411 337.148 34.4721 333.318 37.0278z"/>
<path style="fill:#5d656c; stroke:none;" d="M361 36L362 37L361 36M234 37L235 38L234 37M74 38L74 127L75 127L75 65L74 38M363 38L363 127L364 127L364 65L363 38M202 39L202 126L203 126L203 66L202 39M235 39L235 126L236 126L236 66L235 39M27.6667 101.333L28.3333 101.667L27.6667 101.333z"/>
<path style="fill:#fb4a4a; stroke:none;" d="M15 173L423 173L423 124C423 116.85 423.376 108.802 416.815 104.144C407.612 97.611 389.743 101 379 101C379 111.411 381.618 125.977 375.348 134.999C365.51 149.157 330.02 150.394 319.649 135.985C313.126 126.921 316 111.579 316 101L271 101C265.851 101 257.002 99.2983 252.318 101.603C248.791 103.339 250 109.811 250 113C250 121.885 251.213 130.833 244.787 137.956C233.82 150.113 199.949 148.668 190.854 134.999C184.741 125.812 187 111.474 187 101L122 101C122 111.748 124.817 126.791 118.2 135.985C107.848 150.368 72.5065 149.18 62.652 134.999C56.382 125.977 59 111.411 59 101C48.5047 101 31.2 97.7682 22.0154 103.738C14.7807 108.441 15 116.362 15 124L15 173z"/>
<path style="fill:#5d656c; stroke:none;" d="M187 101L187 125L188 125L187 101M250 101L251 102L250 101M410.667 101.333L411.333 101.667L410.667 101.333M417 104L418 105L417 104M19 105L20 106L19 105M18 106L19 107L18 106M419 106L420 107L419 106M421 109L422 110L421 109M15 112L16 113L15 112M422 112L423 113L422 112M59.3333 126.667L59.6667 127.333L59.3333 126.667M378.333 126.667L378.667 127.333L378.333 126.667M106 127L107 128L106 127M203 127L204 128L203 127M234 127L235 128L234 127M331 127L332 128L331 127M105 128L106 129L105 128M204 128L205 129L204 128M233 128L234 129L233 128M332 128L333 129L332 128M77 129L77 130L104 130L77 129M121 129L122 130L121 129M206 129L206 130L233 130L206 129M334 129L334 130L361 130L334 129M188 130L189 131L188 130M249 130L250 131L249 130M60 131L61 132L60 131M377 131L378 132L377 131M189 133L190 134L189 133M375 135L376 136L375 135M319 136L320 137L319 136M117 137L118 138L117 137M320 137L321 138L320 137M114 140L115 141L114 140M323 140L324 141L323 140M196 141L197 142L196 141M241 141L242 142L241 141M369 141L370 142L369 141M198 142L199 143L198 142M239 142L240 143L239 142M72 143L73 144L72 143M365 143L366 144L365 143M77.6667 144.333L78.3333 144.667L77.6667 144.333M102 144L102 145L105 145L102 144M205 144L205 145L208 145L205 144M230 144L230 145L233 145L230 144M333 144L333 145L336 145L333 144M359.667 144.333L360.333 144.667L359.667 144.333M438 187L438 190L439 190L438 187z"/>
<path style="fill:#e9eff3; stroke:none;" d="M15 188L15 397L15 449C15 456.426 13.8752 465.843 19.3943 471.775C27.0134 479.965 47.7809 476 58 476L164 476C175.29 476 186.725 475.469 198 476.04C202.458 476.266 207.555 477.989 208.508 483.005C209.473 488.086 204.397 491.4 200 491.891C187.317 493.309 173.765 492 161 492L39 492C23.1337 492 4.30393 487.523 1 469L0 469L0 512L512 512L512 468L511 468C504.712 494.23 476.956 492 456 492L291 492C274.339 492 257.659 492.229 241 491.996C235.662 491.922 227.245 489.16 229.762 482.019C231.457 477.208 236.503 476.134 241 476.015C251.984 475.723 263.012 476 274 476L383 476C393.266 476 413.506 479.993 419.995 469.956C425.081 462.088 423 449.903 423 441L423 374C423 364.031 418.759 344.448 431 341L431 321C418.899 317.591 423 298.847 423 289L423 188L15 188z"/>
<path style="fill:#fcb74a; stroke:none;" d="M438 190L438 288C438 298.199 441.924 315.845 431 321L431 341C441.924 346.155 438 363.801 438 374L438 436C438 449.532 439.163 462.981 435 476C438.781 476 443.507 476.733 446.351 473.682C451.063 468.626 450 460.301 450 454L450 409L450 279C450 256.189 448.609 236.324 443.79 214C442.129 206.306 441.414 197.089 438 190z"/>
<path style="fill:#5d656c; stroke:none;" d="M439 192L439 195L440 195L439 192M440.333 197.667L440.667 198.333L440.333 197.667M441 201L441 204L442 204L441 201M442 206L442 209L443 209L442 206M443.333 211.667L443.667 212.333L443.333 211.667M444 215L444 218L445 218L444 215M445.333 220.667L445.667 221.333L445.333 220.667M446 224L446 227L447 227L446 224z"/>
<path style="fill:#fcb74a; stroke:none;" d="M218 227L218 228L221 228L218 227M205 228L206 229L205 228z"/>
<path style="fill:#5d656c; stroke:none;" d="M206 228L206 229L210 229L206 228z"/>
<path style="fill:#050404; stroke:none;" d="M210 228.424C192.314 230.775 175.924 235.611 161 245.746C149.783 253.364 140.654 262.816 133.029 274C104.005 316.571 113.418 377.951 153 410.536C176.012 429.481 205.791 436.646 235 432.711C282 426.38 318.698 384.863 321.91 338C322.99 322.245 316.92 309.049 315.546 294C315.098 289.094 320.185 285.235 322.034 281C325.803 272.37 324.583 260.668 319.2 253.001C312.59 243.588 301.184 239.279 290 241.669C286.335 242.452 281.211 246.23 277.576 245.496C271.494 244.268 264.889 238.455 259 236.012C244.037 229.803 226.196 226.272 210 228.424z"/>
<path style="fill:#5d656c; stroke:none;" d="M228 228L228 229L232 229L228 228z"/>
<path style="fill:#fcb74a; stroke:none;" d="M232 228L233 229L232 228z"/>
<path style="fill:#5d656c; stroke:none;" d="M199 229L199 230L202 230L199 229M236.667 229.333L237.333 229.667L236.667 229.333z"/>
<path style="fill:#fcb74a; stroke:none;" d="M238 229L239 230L238 229z"/>
<path style="fill:#5d656c; stroke:none;" d="M447 229L447 232L448 232L447 229z"/>
<path style="fill:#fcb74a; stroke:none;" d="M194 230L195 231L194 230z"/>
<path style="fill:#5d656c; stroke:none;" d="M195.667 230.333L196.333 230.667L195.667 230.333M241.667 230.333L242.333 230.667L241.667 230.333z"/>
<path style="fill:#fcb74a; stroke:none;" d="M243 230L244 231L243 230z"/>
<path style="fill:#5d656c; stroke:none;" d="M191.667 231.333L192.333 231.667L191.667 231.333M245.667 231.333L246.333 231.667L245.667 231.333z"/>
<path style="fill:#fcb74a; stroke:none;" d="M187 232L188 233L187 232z"/>
<path style="fill:#5d656c; stroke:none;" d="M188 232L189 233L188 232M249 232L250 233L249 232z"/>
<path style="fill:#fcb74a; stroke:none;" d="M250 232L251 233L250 232M184 233L185 234L184 233z"/>
<path style="fill:#5d656c; stroke:none;" d="M185 233L186 234L185 233M252 233L253 234L252 233z"/>
<path style="fill:#fcb74a; stroke:none;" d="M253 233L254 234L253 233z"/>
<path style="fill:#5d656c; stroke:none;" d="M182 234L183 235L182 234M255 234L256 235L255 234M448.333 234.667L448.667 235.333L448.333 234.667M179.667 235.333L180.333 235.667L179.667 235.333M257.667 235.333L258.333 235.667L257.667 235.333M177 236L178 237L177 236M260 236L261 237L260 236M175 237L176 238L175 237M262 237L263 238L262 237M173 238L174 239L173 238M264 238L265 239L264 238M449 238L449 241L450 241L449 238M171 239L172 240L171 239M266 239L267 240L266 239M169 240L170 241L169 240M268 240L269 241L268 240z"/>
<path style="fill:#fcb74a; stroke:none;" d="M294 240L295 241L294 240z"/>
<path style="fill:#5d656c; stroke:none;" d="M295.667 240.333L296.333 240.667L295.667 240.333z"/>
<path style="fill:#fcb74a; stroke:none;" d="M297.667 240.333L298.333 240.667L297.667 240.333z"/>
<path style="fill:#5d656c; stroke:none;" d="M167 241L168 242L167 241M270 241L271 242L270 241M289.667 241.333L290.333 241.667L289.667 241.333M302 241L303 242L302 241z"/>
<path style="fill:#fcb74a; stroke:none;" d="M303 241L304 242L303 241z"/>
<path style="fill:#5d656c; stroke:none;" d="M166 242L167 243L166 242z"/>
<path style="fill:#fcb74a; stroke:none;" d="M272 242L273 243L272 242M285 242L286 243L285 242z"/>
<path style="fill:#5d656c; stroke:none;" d="M286 242L287 243L286 242M305 242L306 243L305 242z"/>
<path style="fill:#fcb74a; stroke:none;" d="M306 242L307 243L306 242z"/>
<path style="fill:#5d656c; stroke:none;" d="M164 243L165 244L164 243M206 243L206 244L212 244L206 243z"/>
<path style="fill:#e9eff3; stroke:none;" d="M303 306C285.85 321.913 271.491 342.217 256.271 360C248.732 368.809 241.239 380.21 230 384.532C204.726 394.25 187.802 362.5 175.374 346C168.824 337.304 161.13 327.64 163.9 316C168.006 298.752 185.983 287.165 203 294.269C210.876 297.556 216.067 304.345 221 311L252.421 276L267 257C244.137 246.325 217.107 236.472 192 247.529C130.543 274.594 129.824 366.591 178 405.192C238.56 453.716 328.649 374.368 303 306z"/>
<path style="fill:#5d656c; stroke:none;" d="M224 243L224 244L232 244L224 243M273 243L274 244L273 243M283 243L284 244L283 243M308 243L309 244L308 243M450.333 243.667L450.667 244.333L450.333 243.667M162 244L163 245L162 244M200 244L200 245L204 245L200 244M234 244L234 245L237 245L234 244z"/>
<path style="fill:#fcb74a; stroke:none;" d="M275 244L276 245L275 244M281 244L282 245L281 244M310 244L311 245L310 244z"/>
<path style="fill:#5d656c; stroke:none;" d="M161 245L162 246L161 245M197.667 245.333L198.333 245.667L197.667 245.333M238 245L238 246L241 246L238 245M276 245L277 246L276 245M280 245L281 246L280 245M311 245L312 246L311 245z"/>
<path style="fill:#fcb74a; stroke:none;" d="M159 246L160 247L159 246z"/>
<path style="fill:#5d656c; stroke:none;" d="M193.667 246.333L194.333 246.667L193.667 246.333M243.667 246.333L244.333 246.667L243.667 246.333M278 246L279 247L278 246z"/>
<path style="fill:#fcb74a; stroke:none;" d="M313 246L314 247L313 246z"/>
<path style="fill:#e9eff3; stroke:none;" d="M450 246L450 405C450 426.843 455.295 456.351 445 476C457.845 476 486.012 481.449 493.995 468.96C497.988 462.712 496.157 455.702 494.65 449C491.959 437.024 489.632 424.962 486.881 413C478.406 376.144 470.334 339.06 462.801 302C459.352 285.031 458.117 261.24 450 246z"/>
<path style="fill:#5d656c; stroke:none;" d="M158 247L159 248L158 247M190.667 247.333L191.333 247.667L190.667 247.333M246.667 247.333L247.333 247.667L246.667 247.333M314 247L315 248L314 247M451.333 247.667L451.667 248.333L451.333 247.667M157 248L158 249L157 248M190 414L190 413C178.798 405.442 168.874 397.146 161.036 386C128.16 339.243 144.169 279.923 190 249C184.356 247.451 176.583 252.989 172 256.003C158.035 265.188 145.809 277.583 138.865 293C122.943 328.348 130.944 369.567 159.09 396.155C167.451 404.054 178.424 412.007 190 414M249 248L250 249L249 248M315 248L316 249L315 248z"/>
<path style="fill:#fcb74a; stroke:none;" d="M155 249L156 250L155 249z"/>
<path style="fill:#5d656c; stroke:none;" d="M251.667 249.333L252.333 249.667L251.667 249.333M316 249L317 250L316 249z"/>
<path style="fill:#fcb74a; stroke:none;" d="M451 249L452 250L451 249z"/>
<path style="fill:#5d656c; stroke:none;" d="M154 250L155 251L154 250M254.667 250.333L255.333 250.667L254.667 250.333z"/>
<path style="fill:#fcb74a; stroke:none;" d="M317 250L318 251L317 250z"/>
<path style="fill:#5d656c; stroke:none;" d="M153 251L154 252L153 251M256.667 251.333L257.333 251.667L256.667 251.333M258 252L259 253L258 252M452.333 252.667L452.667 253.333L452.333 252.667M260 253L261 254L260 253M319 253L320 254L319 253z"/>
<path style="fill:#fcb74a; stroke:none;" d="M149 254L150 255L149 254z"/>
<path style="fill:#5d656c; stroke:none;" d="M262 254L263 255L262 254z"/>
<path style="fill:#fcb74a; stroke:none;" d="M320 254L321 255L320 254M452 254L453 255L452 254M148 255L149 256L148 255z"/>
<path style="fill:#5d656c; stroke:none;" d="M263.667 255.333L264.333 255.667L263.667 255.333M147 256L148 257L147 256M265 256L266 257L265 256M291 256L292 257L291 256z"/>
<path style="fill:#fcb74a; stroke:none;" d="M292 256.654C284.62 258.932 279.508 267.417 274.729 273C263.307 286.345 251.813 299.629 240.421 313C236.008 318.18 230.462 327.757 223.961 330.323C219.243 332.184 215.577 328.349 212.888 324.985C206.36 316.815 193.854 298.578 182.419 312.109C170.634 326.055 199.067 352.758 207.615 362.996C211.484 367.63 216.533 371.855 223 370.452C233.245 368.23 241.079 354.51 247.424 347C260.173 331.911 273.095 316.955 286 302C292.835 294.079 301.531 286.083 306.772 277C312.704 266.719 304.419 252.82 292 256.654z"/>
<path style="fill:#fb4a4a; stroke:none;" d="M299 256L300 257L299 256z"/>
<path style="fill:#5d656c; stroke:none;" d="M300 256L301 257L300 256M321 256L322 257L321 256M453 256L453 259L454 259L453 256M146 257L147 258L146 257M267.333 257.667L267.667 258.333L267.333 257.667M289 257L290 258L289 257M302 257L303 258L302 257M145 258L146 259L145 258z"/>
<path style="fill:#fcb74a; stroke:none;" d="M322 258L323 259L322 258z"/>
<path style="fill:#5d656c; stroke:none;" d="M144 259L145 260L144 259M266 259L267 260L266 259M286 259L287 260L286 259M322 259L323 260L322 259z"/>
<path style="fill:#fcb74a; stroke:none;" d="M143 260L144 261L143 260z"/>
<path style="fill:#5d656c; stroke:none;" d="M265 260L266 261L265 260M285 260L286 261L285 260z"/>
<path style="fill:#fcb74a; stroke:none;" d="M142 261L143 262L142 261z"/>
<path style="fill:#5d656c; stroke:none;" d="M264 261L265 262L264 261M323.333 261.667L323.667 262.333L323.333 261.667M454.333 261.667L454.667 262.333L454.333 261.667M307 262L308 263L307 262M263 263L264 264L263 263z"/>
<path style="fill:#fcb74a; stroke:none;" d="M454 263L455 264L454 263z"/>
<path style="fill:#5d656c; stroke:none;" d="M262 264L263 265L262 264M308 264L309 265L308 264M139 265L140 266L139 265M261 265L262 266L261 265M281 265L282 266L281 265M324 265L324 273L325 273L324 265M138 266L139 267L138 266M260 266L261 267L260 266M280 266L281 267L280 266M455.333 266.667L455.667 267.333L455.333 266.667z"/>
<path style="fill:#fcb74a; stroke:none;" d="M137 267L138 268L137 267z"/>
<path style="fill:#5d656c; stroke:none;" d="M259 267L260 268L259 267M279 267L280 268L279 267M309 267L309 272L310 272L309 267M258 268L259 269L258 268M278 268L279 269L278 268z"/>
<path style="fill:#fcb74a; stroke:none;" d="M455 268L456 269L455 268z"/>
<path style="fill:#5d656c; stroke:none;" d="M136 269L137 270L136 269M135 270L136 271L135 270M257 270L258 271L257 270M456 270L456 273L457 273L456 270z"/>
<path style="fill:#fcb74a; stroke:none;" d="M134 271L135 272L134 271z"/>
<path style="fill:#5d656c; stroke:none;" d="M256 271L257 272L256 271M255 272L256 273L255 272M275 272L276 273L275 272M133 273L134 274L133 273M254 273L255 274L254 273M274 273L275 274L274 273z"/>
<path style="fill:#fb4a4a; stroke:none;" d="M308 273L309 274L308 273z"/>
<path style="fill:#fcb74a; stroke:none;" d="M324.333 273.667L324.667 274.333L324.333 273.667z"/>
<path style="fill:#5d656c; stroke:none;" d="M132 274L133 275L132 274M253 274L254 275L253 274M273 274L274 275L273 274M308 274L309 275L308 274M252 275L253 276L252 275M272 275L273 276L272 275M457.333 275.667L457.667 276.333L457.333 275.667M131 276L132 277L131 276M307 276L308 277L307 276M323.333 276.667L323.667 277.333L323.333 276.667z"/>
<path style="fill:#fcb74a; stroke:none;" d="M130 277L131 278L130 277z"/>
<path style="fill:#5d656c; stroke:none;" d="M251 277L252 278L251 277z"/>
<path style="fill:#fb4a4a; stroke:none;" d="M306 277L307 278L306 277z"/>
<path style="fill:#fcb74a; stroke:none;" d="M457 277L458 278L457 277z"/>
<path style="fill:#5d656c; stroke:none;" d="M250 278L251 279L250 278M129 279L130 280L129 279M249 279L250 280L249 279M269 279L270 280L269 279M248 280L249 281L248 280M268 280L269 281L268 280M304 280L305 281L304 280z"/>
<path style="fill:#fcb74a; stroke:none;" d="M322 280L323 281L322 280z"/>
<path style="fill:#5d656c; stroke:none;" d="M458.333 280.667L458.667 281.333L458.333 280.667M128 281L129 282L128 281M247 281L248 282L247 281M267 281L268 282L267 281M303 281L304 282L303 281M246 282L247 283L246 282M266 282L267 283L266 282M302 282L303 283L302 282M321 282L322 283L321 282M127 283L128 284L127 283z"/>
<path style="fill:#fb4a4a; stroke:none;" d="M301 283L302 284L301 283z"/>
<path style="fill:#5d656c; stroke:none;" d="M245 284L246 285L245 284z"/>
<path style="fill:#fcb74a; stroke:none;" d="M320 284L321 285L320 284z"/>
<path style="fill:#5d656c; stroke:none;" d="M459.333 284.667L459.667 285.333L459.333 284.667M126 285L127 286L126 285M244 285L245 286L244 285M319 285L320 286L319 285M243 286L244 287L243 286M263 286L264 287L263 286M318 286L319 287L318 286z"/>
<path style="fill:#fcb74a; stroke:none;" d="M459 286L460 287L459 286z"/>
<path style="fill:#5d656c; stroke:none;" d="M125 287L126 288L125 287M242 287L243 288L242 287M262 287L263 288L262 287M298 287L299 288L298 287M241 288L242 289L241 288M261 288L262 289L261 288M297 288L298 289L297 288z"/>
<path style="fill:#fcb74a; stroke:none;" d="M317 288L318 289L317 288z"/>
<path style="fill:#5d656c; stroke:none;" d="M124 289L125 290L124 289M240 289L241 290L240 289M296 289L297 290L296 289M316 289L317 290L316 289M460.333 289.667L460.667 290.333L460.333 289.667z"/>
<path style="fill:#fb4a4a; stroke:none;" d="M295 290L296 291L295 290z"/>
<path style="fill:#5d656c; stroke:none;" d="M315 290L316 291L315 290M123.333 291.667L123.667 292.333L123.333 291.667M239 291L240 292L239 291M314.333 291.667L314.667 292.333L314.333 291.667z"/>
<path style="fill:#fcb74a; stroke:none;" d="M460 291L461 292L460 291z"/>
<path style="fill:#5d656c; stroke:none;" d="M186 292L186 293L190 293L186 292M191 292L191 293L198 293L191 292M238 292L239 293L238 292M183.667 293.333L184.333 293.667L183.667 293.333M200.667 293.333L201.333 293.667L200.667 293.333M237 293L238 294L237 293M257 293L258 294L257 293M461 293L461 296L462 296L461 293M122 294L123 295L122 294M180.667 294.333L181.333 294.667L180.667 294.333M203 294L204 295L203 294M236 294L237 295L236 294M256 294L257 295L256 294M292 294L293 295L292 294M315 294L316 295L315 294M178 295L179 296L178 295M205.667 295.333L206.333 295.667L205.667 295.333M235 295L236 296L235 295M255 295L256 296L255 295M291 295L292 296L291 295z"/>
<path style="fill:#fcb74a; stroke:none;" d="M121 296L122 297L121 296z"/>
<path style="fill:#5d656c; stroke:none;" d="M177 296L178 297L177 296M207 296L208 297L207 296M234 296L235 297L234 296M290 296L291 297L290 296M121 297L122 298L121 297M175 297L176 298L175 297M208 297L209 298L208 297z"/>
<path style="fill:#fb4a4a; stroke:none;" d="M289 297L290 298L289 297z"/>
<path style="fill:#5d656c; stroke:none;" d="M316 297L317 298L316 297M174 298L175 299L174 298M210 298L211 299L210 298M233 298L234 299L233 298M462.333 298.667L462.667 299.333L462.333 298.667M120.333 299.667L120.667 300.333L120.333 299.667M173 299L174 300L173 299M211 299L212 300L211 299M232 299L233 300L232 299M172 300L173 301L172 300M212 300L213 301L212 300M231 300L232 301L231 300M251 300L252 301L251 300M317 300L318 301L317 300z"/>
<path style="fill:#fcb74a; stroke:none;" d="M462 300L463 301L462 300z"/>
<path style="fill:#5d656c; stroke:none;" d="M171 301L172 302L171 301M213 301L214 302L213 301M230 301L231 302L230 301M250 301L251 302L250 301M286 301L287 302L286 301z"/>
<path style="fill:#fcb74a; stroke:none;" d="M119 302L120 303L119 302z"/>
<path style="fill:#5d656c; stroke:none;" d="M170 302L171 303L170 302M214 302L215 303L214 302M229 302L230 303L229 302M249 302L250 303L249 302M285 302L286 303L285 302M119.333 303.667L119.667 304.333L119.333 303.667M169 303L170 304L169 303M215 303L216 304L215 303M228 303L229 304L228 303M284 303L285 304L284 303M318 303L319 304L318 303M463.333 303.667L463.667 304.333L463.333 303.667M168 304L169 305L168 304z"/>
<path style="fill:#fb4a4a; stroke:none;" d="M283 304L284 305L283 304z"/>
<path style="fill:#5d656c; stroke:none;" d="M216 305L217 306L216 305M227 305L228 306L227 305M303.333 305.667L303.667 306.333L303.333 305.667z"/>
<path style="fill:#fcb74a; stroke:none;" d="M463 305L464 306L463 305M118 306L119 307L118 306z"/>
<path style="fill:#5d656c; stroke:none;" d="M167 306L168 307L167 306M217 306L218 307L217 306M226 306L227 307L226 306z"/>
<path style="fill:#fcb74a; stroke:none;" d="M319 306L320 307L319 306z"/>
<path style="fill:#5d656c; stroke:none;" d="M118.333 307.667L118.667 308.333L118.333 307.667M189 307L189 308L192 308L189 307M193 307L193 308L196 308L193 307M218 307L219 308L218 307M225 307L226 308L225 307M245 307L246 308L245 307M301 307L302 308L301 307M319.333 307.667L319.667 308.333L319.333 307.667M464.333 307.667L464.667 308.333L464.333 307.667M166 308L167 309L166 308M186 308L187 309L186 308z"/>
<path style="fill:#fb4a4a; stroke:none;" d="M197 308L198 309L197 308z"/>
<path style="fill:#5d656c; stroke:none;" d="M198 308L199 309L198 308M219 308L220 309L219 308M224 308L225 309L224 308M244 308L245 309L244 308M280 308L281 309L280 308M300 308L301 309L300 308M304 308L304 311L305 311L304 308M184 309L185 310L184 309M199 309L200 310L199 309M223 309L224 310L223 309M243 309L244 310L243 309M279 309L280 310L279 309M299 309L300 310L299 309z"/>
<path style="fill:#fcb74a; stroke:none;" d="M464 309L465 310L464 309M117 310L118 311L117 310z"/>
<path style="fill:#5d656c; stroke:none;" d="M165.333 310.667L165.667 311.333L165.333 310.667M183 310L184 311L183 310M220 310L221 311L220 310M222 310L223 311L222 310M278 310L279 311L278 310M298 310L299 311L298 310M117 311L117 314L118 314L117 311M182 311L183 312L182 311M221 311L222 312L221 311z"/>
<path style="fill:#fb4a4a; stroke:none;" d="M277 311L278 312L277 311z"/>
<path style="fill:#5d656c; stroke:none;" d="M297 311L298 312L297 311z"/>
<path style="fill:#fcb74a; stroke:none;" d="M320 311L321 312L320 311z"/>
<path style="fill:#5d656c; stroke:none;" d="M181 312L182 313L181 312M305 312L305 316L306 316L305 312M320.333 312.667L320.667 313.333L320.333 312.667M465.333 312.667L465.667 313.333L465.333 312.667M164 313L164 316L165 316L164 313M180 314L181 315L180 314M204 314L205 315L204 314M239 314L240 315L239 314M295 314L296 315L295 314z"/>
<path style="fill:#fcb74a; stroke:none;" d="M465 314L466 315L465 314z"/>
<path style="fill:#5d656c; stroke:none;" d="M205 315L206 316L205 315M238 315L239 316L238 315M274 315L275 316L274 315M294 315L295 316L294 315M423.333 315.667L423.667 316.333L423.333 315.667M437.333 315.667L437.667 316.333L437.333 315.667M179 316L180 317L179 316M237 316L238 317L237 316M273 316L274 317L273 316M293 316L294 317L293 316z"/>
<path style="fill:#fcb74a; stroke:none;" d="M321 316L322 317L321 316M116 317L117 318L116 317z"/>
<path style="fill:#5d656c; stroke:none;" d="M163 317L163 324L164 324L163 317z"/>
<path style="fill:#fb4a4a; stroke:none;" d="M179 317L180 318L179 317z"/>
<path style="fill:#5d656c; stroke:none;" d="M272 317L273 318L272 317M292 317L293 318L292 317M321 317L321 322L322 322L321 317M424 317L425 318L424 317M436 317L437 318L436 317M466.333 317.667L466.667 318.333L466.333 317.667M116 318L116 321L117 321L116 318z"/>
<path style="fill:#fb4a4a; stroke:none;" d="M271 318L272 319L271 318z"/>
<path style="fill:#5d656c; stroke:none;" d="M291 318L292 319L291 318M306 318L306 323L307 323L306 318M208 319L209 320L208 319M426 319L427 320L426 319M434 319L435 320L434 319M209 320L210 321L209 320M427.667 320.333L428.333 320.667L427.667 320.333M432.667 320.333L433.333 320.667L432.667 320.333M233 321L234 322L233 321M269 321L270 322L269 321M289 321L290 322L289 321M467.333 321.667L467.667 322.333L467.333 321.667M232 322L233 323L232 322M268 322L269 323L268 322M288 322L289 323L288 322M211 323L212 324L211 323M231 323L232 324L231 323M267 323L268 324L267 323M287 323L288 324L287 323z"/>
<path style="fill:#fcb74a; stroke:none;" d="M467 323L468 324L467 323z"/>
<path style="fill:#fb4a4a; stroke:none;" d="M179 324L180 325L179 324z"/>
<path style="fill:#5d656c; stroke:none;" d="M212 324L213 325L212 324M266 324L267 325L266 324M286 324L287 325L286 324M179 325L180 326L179 325z"/>
<path style="fill:#fb4a4a; stroke:none;" d="M265 325L266 326L265 325z"/>
<path style="fill:#5d656c; stroke:none;" d="M285 325L286 326L285 325M164 326L164 329L165 329L164 326M468.333 326.667L468.667 327.333L468.333 326.667M180 327L181 328L180 327M214 327L215 328L214 327M284 327L285 328L284 327z"/>
<path style="fill:#fb4a4a; stroke:none;" d="M181 328L182 329L181 328z"/>
<path style="fill:#5d656c; stroke:none;" d="M215 328L216 329L215 328M227 328L228 329L227 328M263 328L264 329L263 328M283 328L284 329L283 328z"/>
<path style="fill:#fcb74a; stroke:none;" d="M322.333 328.667L322.667 329.333L322.333 328.667M468 328L469 329L468 328M115 329L115 333L116 333L115 329z"/>
<path style="fill:#5d656c; stroke:none;" d="M216 329L217 330L216 329z"/>
<path style="fill:#fb4a4a; stroke:none;" d="M226 329L227 330L226 329z"/>
<path style="fill:#5d656c; stroke:none;" d="M262 329L263 330L262 329M282 329L283 330L282 329M165.333 330.667L165.667 331.333L165.333 330.667M182 330L183 331L182 330M224 330L225 331L224 330M261 330L262 331L261 330M281 330L282 331L281 330M322 330L323 331L322 330M469 330L469 333L470 333L469 330M183 331L184 332L183 331z"/>
<path style="fill:#fb4a4a; stroke:none;" d="M220 331L221 332L220 331z"/>
<path style="fill:#5d656c; stroke:none;" d="M221 331L222 332L221 331M260 331L261 332L260 331M280 331L281 332L280 331z"/>
<path style="fill:#fcb74a; stroke:none;" d="M322.333 331.667L322.667 332.333L322.333 331.667z"/>
<path style="fill:#fb4a4a; stroke:none;" d="M184 332L185 333L184 332M259 332L260 333L259 332z"/>
<path style="fill:#5d656c; stroke:none;" d="M279 332L280 333L279 332M166 333L167 334L166 333M185 334L186 335L185 334M278 334L279 335L278 334M167 335L168 336L167 335M186 335L187 336L186 335M257 335L258 336L257 335M277 335L278 336L277 335M470.333 335.667L470.667 336.333L470.333 335.667M168 336L169 337L168 336z"/>
<path style="fill:#fb4a4a; stroke:none;" d="M187 336L188 337L187 336z"/>
<path style="fill:#5d656c; stroke:none;" d="M256 336L257 337L256 336M276 336L277 337L276 336M255 337L256 338L255 337M275 337L276 338L275 337z"/>
<path style="fill:#fcb74a; stroke:none;" d="M470 337L471 338L470 337z"/>
<path style="fill:#5d656c; stroke:none;" d="M169 338L170 339L169 338z"/>
<path style="fill:#fb4a4a; stroke:none;" d="M254 338L255 339L254 338z"/>
<path style="fill:#5d656c; stroke:none;" d="M274 338L275 339L274 338M306 338L306 344L307 344L306 338M170 339L171 340L170 339M189 339L190 340L189 339z"/>
<path style="fill:#fb4a4a; stroke:none;" d="M253 339L254 340L253 339z"/>
<path style="fill:#5d656c; stroke:none;" d="M273 339L274 340L273 339M171 340L172 341L171 340z"/>
<path style="fill:#fb4a4a; stroke:none;" d="M190 340L191 341L190 340z"/>
<path style="fill:#5d656c; stroke:none;" d="M471.333 340.667L471.667 341.333L471.333 340.667M116 341L116 344L117 344L116 341M272 341L273 342L272 341M321 341L321 345L322 345L321 341z"/>
<path style="fill:#fcb74a; stroke:none;" d="M427 341L428 342L427 341z"/>
<path style="fill:#5d656c; stroke:none;" d="M428.667 341.333L429.333 341.667L428.667 341.333M432.667 341.333L433.333 341.667L432.667 341.333M172 342L173 343L172 342M251 342L252 343L251 342M271 342L272 343L271 342M426 342L427 343L426 342M434 342L435 343L434 342M173 343L174 344L173 343M192 343L193 344L192 343M250 343L251 344L250 343M270 343L271 344L270 343z"/>
<path style="fill:#fcb74a; stroke:none;" d="M116 344L117 345L116 344z"/>
<path style="fill:#5d656c; stroke:none;" d="M174 344L175 345L174 344M193 344L194 345L193 344M249 344L250 345L249 344M269 344L270 345L269 344M424 344L425 345L424 344M436 344L437 345L436 344M472.333 344.667L472.667 345.333L472.333 344.667z"/>
<path style="fill:#fb4a4a; stroke:none;" d="M248 345L249 346L248 345z"/>
<path style="fill:#5d656c; stroke:none;" d="M268 345L269 346L268 345z"/>
<path style="fill:#fcb74a; stroke:none;" d="M321 345L322 346L321 345z"/>
<path style="fill:#5d656c; stroke:none;" d="M423.333 345.667L423.667 346.333L423.333 345.667M437.333 345.667L437.667 346.333L437.333 345.667M175 346L176 347L175 346z"/>
<path style="fill:#fb4a4a; stroke:none;" d="M247 346L248 347L247 346z"/>
<path style="fill:#5d656c; stroke:none;" d="M267 346L268 347L267 346M305 346L305 350L306 350L305 346z"/>
<path style="fill:#fcb74a; stroke:none;" d="M472 346L473 347L472 346z"/>
<path style="fill:#5d656c; stroke:none;" d="M176 347L177 348L176 347M195 347L196 348L195 347M117 348L117 351L118 351L117 348M177 348L178 349L177 348M196 348L197 349L196 348M266 348L267 349L266 348M320.333 348.667L320.667 349.333L320.333 348.667z"/>
<path style="fill:#fb4a4a; stroke:none;" d="M197 349L198 350L197 349z"/>
<path style="fill:#5d656c; stroke:none;" d="M245 349L246 350L245 349M265 349L266 350L265 349M473.333 349.667L473.667 350.333L473.333 349.667M178 350L179 351L178 350M244 350L245 351L244 350M264 350L265 351L264 350z"/>
<path style="fill:#fcb74a; stroke:none;" d="M320 350L321 351L320 350M117 351L118 352L117 351z"/>
<path style="fill:#5d656c; stroke:none;" d="M179 351L180 352L179 351M243 351L244 352L243 351M263 351L264 352L263 351M304.333 351.667L304.667 352.333L304.333 351.667z"/>
<path style="fill:#fcb74a; stroke:none;" d="M473 351L474 352L473 351z"/>
<path style="fill:#5d656c; stroke:none;" d="M180 352L181 353L180 352M199 352L200 353L199 352z"/>
<path style="fill:#fb4a4a; stroke:none;" d="M242 352L243 353L242 352z"/>
<path style="fill:#5d656c; stroke:none;" d="M262 352L263 353L262 352M118.333 353.667L118.667 354.333L118.333 353.667M181 353L182 354L181 353z"/>
<path style="fill:#fb4a4a; stroke:none;" d="M200 353L201 354L200 353z"/>
<path style="fill:#5d656c; stroke:none;" d="M261 353L262 354L261 353M319.333 353.667L319.667 354.333L319.333 353.667M474 353L474 356L475 356L474 353z"/>
<path style="fill:#fcb74a; stroke:none;" d="M118 355L119 356L118 355z"/>
<path style="fill:#5d656c; stroke:none;" d="M182 355L183 356L182 355M260 355L261 356L260 355M303.333 355.667L303.667 356.333L303.333 355.667z"/>
<path style="fill:#fcb74a; stroke:none;" d="M319 355L320 356L319 355z"/>
<path style="fill:#5d656c; stroke:none;" d="M183 356L184 357L183 356M202 356L203 357L202 356M239 356L240 357L239 356M259 356L260 357L259 356M119.333 357.667L119.667 358.333L119.333 357.667M184 357L185 358L184 357M203 357L204 358L203 357M238 357L239 358L238 357M258 357L259 358L258 357M318.333 357.667L318.667 358.333L318.333 357.667M237 358L238 359L237 358M257 358L258 359L257 358M302.333 358.667L302.667 359.333L302.333 358.667M475.333 358.667L475.667 359.333L475.333 358.667z"/>
<path style="fill:#fcb74a; stroke:none;" d="M119 359L120 360L119 359z"/>
<path style="fill:#5d656c; stroke:none;" d="M185 359L186 360L185 359z"/>
<path style="fill:#fb4a4a; stroke:none;" d="M236 359L237 360L236 359z"/>
<path style="fill:#5d656c; stroke:none;" d="M256 359L257 360L256 359M186 360L187 361L186 360M205 360L206 361L205 360M255 360L256 361L255 360z"/>
<path style="fill:#fcb74a; stroke:none;" d="M475 360L476 361L475 360z"/>
<path style="fill:#5d656c; stroke:none;" d="M120.333 361.667L120.667 362.333L120.333 361.667M187 361L188 362L187 361M206 361L207 362L206 361M301.333 361.667L301.667 362.333L301.333 361.667M317 361L318 362L317 361z"/>
<path style="fill:#fb4a4a; stroke:none;" d="M207 362L208 363L207 362z"/>
<path style="fill:#5d656c; stroke:none;" d="M254 362L255 363L254 362M188 363L189 364L188 363M233 363L234 364L233 363M253 363L254 364L253 363M476.333 363.667L476.667 364.333L476.333 363.667M121 364L122 365L121 364M189 364L190 365L189 364M232 364L233 365L232 364M252 364L253 365L252 364M300 364L301 365L300 364M316 364L317 365L316 364z"/>
<path style="fill:#fcb74a; stroke:none;" d="M121 365L122 366L121 365z"/>
<path style="fill:#5d656c; stroke:none;" d="M190 365L191 366L190 365M209 365L210 366L209 365M231 365L232 366L231 365M251 365L252 366L251 365z"/>
<path style="fill:#fcb74a; stroke:none;" d="M316 365L317 366L316 365M476 365L477 366L476 365z"/>
<path style="fill:#5d656c; stroke:none;" d="M191 366L192 367L191 366M210 366L211 367L210 366z"/>
<path style="fill:#fb4a4a; stroke:none;" d="M230 366L231 367L230 366z"/>
<path style="fill:#5d656c; stroke:none;" d="M250 366L251 367L250 366M299.333 366.667L299.667 367.333L299.333 366.667M122 367L123 368L122 367M211 367L212 368L211 367M229 367L230 368L229 367M249 367L250 368L249 367M315 367L316 368L315 367M477 367L477 370L478 370L477 367M192 368L193 369L192 368M212 368L213 369L212 368M228 368L229 369L228 368M298.333 368.667L298.667 369.333L298.333 368.667M193 369L194 370L193 369M214 369L215 370L214 369M226 369L227 370L226 369M248 369L249 370L248 369M314 369L315 370L314 369M123 370L124 371L123 370M194 370L195 371L194 370M216 370L217 371L216 370z"/>
<path style="fill:#fb4a4a; stroke:none;" d="M217 370L218 371L217 370M223 370L224 371L223 370z"/>
<path style="fill:#5d656c; stroke:none;" d="M224 370L225 371L224 370M247 370L248 371L247 370M297.333 370.667L297.667 371.333L297.333 370.667z"/>
<path style="fill:#fcb74a; stroke:none;" d="M314 370L315 371L314 370z"/>
<path style="fill:#5d656c; stroke:none;" d="M246 371L247 372L246 371M313 371L314 372L313 371M124 372L125 373L124 372M195 372L196 373L195 372M245 372L246 373L245 372M296.333 372.667L296.667 373.333L296.333 372.667z"/>
<path style="fill:#fcb74a; stroke:none;" d="M313 372L314 373L313 372z"/>
<path style="fill:#5d656c; stroke:none;" d="M478.333 372.667L478.667 373.333L478.333 372.667M196 373L197 374L196 373M244 373L245 374L244 373M125 374L126 375L125 374M197 374L198 375L197 374M243 374L244 375L243 374M295 374L296 375L295 374M312 374L313 375L312 374z"/>
<path style="fill:#fcb74a; stroke:none;" d="M478 374L479 375L478 374z"/>
<path style="fill:#5d656c; stroke:none;" d="M198 375L199 376L198 375M126 376L127 377L126 376M199 376L200 377L199 376M242 376L243 377L242 376M294 376L295 377L294 376M311 376L312 377L311 376M200 377L201 378L200 377M293.333 377.667L293.667 378.333L293.333 377.667M479.333 377.667L479.667 378.333L479.333 377.667M127 378L128 379L127 378M201 378L202 379L201 378M239 378L240 379L239 378M310 378L311 379L310 378M202 379L203 380L202 379M238 379L239 380L238 379M292 379L293 380L292 379M128 380L129 381L128 380M203 380L204 381L203 380M237 380L238 381L237 380M309 380L310 381L309 380M204.667 381.333L205.333 381.667L204.667 381.333M236 381L237 382L236 381M291 381L292 382L291 381M480.333 381.667L480.667 382.333L480.333 381.667M129 382L130 383L129 382M206 382L207 383L206 382M234 382L235 383L234 382M290 382L291 383L290 382z"/>
<path style="fill:#fcb74a; stroke:none;" d="M308 382L309 383L308 382z"/>
<path style="fill:#5d656c; stroke:none;" d="M208 383L209 384L208 383M232 383L233 384L232 383M289 383L290 384L289 383M307 383L308 384L307 383z"/>
<path style="fill:#fcb74a; stroke:none;" d="M480 383L481 384L480 383M130 384L131 385L130 384z"/>
<path style="fill:#5d656c; stroke:none;" d="M210.667 384.333L211.333 384.667L210.667 384.333M229.667 384.333L230.333 384.667L229.667 384.333M131 385L132 386L131 385M213 385L213 386L217 386L213 385M225 385L225 386L228 386L225 385M288 385L289 386L288 385M306 385L307 386L306 385M219.667 386.333L220.333 386.667L219.667 386.333M287 386L288 387L287 386M481.333 386.667L481.667 387.333L481.333 386.667M132 387L133 388L132 387M286 387L287 388L286 387z"/>
<path style="fill:#fcb74a; stroke:none;" d="M305 387L306 388L305 387z"/>
<path style="fill:#5d656c; stroke:none;" d="M285 388L286 389L285 388M304 388L305 389L304 388z"/>
<path style="fill:#fcb74a; stroke:none;" d="M481 388L482 389L481 388z"/>
<path style="fill:#5d656c; stroke:none;" d="M284 389L285 390L284 389z"/>
<path style="fill:#fcb74a; stroke:none;" d="M134 390L135 391L134 390z"/>
<path style="fill:#5d656c; stroke:none;" d="M283 390L284 391L283 390z"/>
<path style="fill:#fcb74a; stroke:none;" d="M303 390L304 391L303 390z"/>
<path style="fill:#5d656c; stroke:none;" d="M482 390L482 393L483 393L482 390M135 391L136 392L135 391M302 391L303 392L302 391M301 392L302 393L301 392M281 393L282 394L281 393z"/>
<path style="fill:#fcb74a; stroke:none;" d="M137 394L138 395L137 394z"/>
<path style="fill:#5d656c; stroke:none;" d="M138 395L139 396L138 395M278 395L279 396L278 395M299 395L300 396L299 395M483.333 395.667L483.667 396.333L483.333 395.667M277 396L278 397L277 396M298 396L299 397L298 396M276 397L277 398L276 397z"/>
<path style="fill:#fcb74a; stroke:none;" d="M483 397L484 398L483 397z"/>
<path style="fill:#5d656c; stroke:none;" d="M275 398L276 399L275 398M274 399L275 400L274 399z"/>
<path style="fill:#fcb74a; stroke:none;" d="M142 400L143 401L142 400z"/>
<path style="fill:#5d656c; stroke:none;" d="M273 400L274 401L273 400M484.333 400.667L484.667 401.333L484.333 400.667z"/>
<path style="fill:#fcb74a; stroke:none;" d="M143 401L144 402L143 401z"/>
<path style="fill:#5d656c; stroke:none;" d="M271 401L272 402L271 401z"/>
<path style="fill:#fcb74a; stroke:none;" d="M294 401L295 402L294 401z"/>
<path style="fill:#5d656c; stroke:none;" d="M144 402L145 403L144 402M270 402L271 403L270 402z"/>
<path style="fill:#fcb74a; stroke:none;" d="M293 402L294 403L293 402M484 402L485 403L484 402z"/>
<path style="fill:#5d656c; stroke:none;" d="M145 403L146 404L145 403M269 403L270 404L269 403z"/>
<path style="fill:#fcb74a; stroke:none;" d="M292 403L293 404L292 403z"/>
<path style="fill:#5d656c; stroke:none;" d="M146 404L147 405L146 404M267 404L268 405L267 404z"/>
<path style="fill:#fcb74a; stroke:none;" d="M291 404L292 405L291 404z"/>
<path style="fill:#5d656c; stroke:none;" d="M485.333 404.667L485.667 405.333L485.333 404.667M147 405L148 406L147 405M265.667 405.333L266.333 405.667L265.667 405.333M290 405L291 406L290 405M148 406L149 407L148 406M264 406L265 407L264 406M289 406L290 407L289 406z"/>
<path style="fill:#fcb74a; stroke:none;" d="M485 406L486 407L485 406M149 407L150 408L149 407z"/>
<path style="fill:#5d656c; stroke:none;" d="M262 407L263 408L262 407M288 407L289 408L288 407z"/>
<path style="fill:#fcb74a; stroke:none;" d="M150 408L151 409L150 408z"/>
<path style="fill:#5d656c; stroke:none;" d="M260.667 408.333L261.333 408.667L260.667 408.333M258.667 409.333L259.333 409.667L258.667 409.333M285 409L286 410L285 409M486.333 409.667L486.667 410.333L486.333 409.667M256.667 410.333L257.333 410.667L256.667 410.333M284 410L285 411L284 410M154 411L155 412L154 411M254.667 411.333L255.333 411.667L254.667 411.333M283 411L284 412L283 411z"/>
<path style="fill:#fcb74a; stroke:none;" d="M486 411L487 412L486 411z"/>
<path style="fill:#5d656c; stroke:none;" d="M155 412L156 413L155 412M252.667 412.333L253.333 412.667L252.667 412.333z"/>
<path style="fill:#fcb74a; stroke:none;" d="M282 412L283 413L282 412z"/>
<path style="fill:#5d656c; stroke:none;" d="M249.667 413.333L250.333 413.667L249.667 413.333M158 414L159 415L158 414M190.667 414.333L191.333 414.667L190.667 414.333M246.667 414.333L247.333 414.667L246.667 414.333M279 414L280 415L279 414M487.333 414.667L487.667 415.333L487.333 414.667M159 415L160 416L159 415M193.667 415.333L194.333 415.667L193.667 415.333M243.667 415.333L244.333 415.667L243.667 415.333M278 415L279 416L278 415M196 416L196 417L199 417L196 416M239 416L239 417L242 417L239 416M276 416L277 417L276 416M162 417L163 418L162 417M200 417L200 418L204 418L200 417M234 417L234 418L238 418L234 417z"/>
<path style="fill:#fcb74a; stroke:none;" d="M275 417L276 418L275 417z"/>
<path style="fill:#5d656c; stroke:none;" d="M164 418L165 419L164 418M206 418L206 419L211 419L206 418M227 418L227 419L232 419L227 418M273 418L274 419L273 418M488.333 418.667L488.667 419.333L488.333 418.667z"/>
<path style="fill:#fcb74a; stroke:none;" d="M165 419L166 420L165 419z"/>
<path style="fill:#5d656c; stroke:none;" d="M218.667 419.333L219.333 419.667L218.667 419.333z"/>
<path style="fill:#fcb74a; stroke:none;" d="M272 419L273 420L272 419z"/>
<path style="fill:#5d656c; stroke:none;" d="M167 420L168 421L167 420M270 420L271 421L270 420z"/>
<path style="fill:#fcb74a; stroke:none;" d="M488 420L489 421L488 420z"/>
<path style="fill:#5d656c; stroke:none;" d="M169 421L170 422L169 421M268 421L269 422L268 421M171 422L172 423L171 422M266 422L267 423L266 422M173 423L174 424L173 423M264 423L265 424L264 423M489.333 423.667L489.667 424.333L489.333 423.667M175 424L176 425L175 424M262 424L263 425L262 424M177 425L178 426L177 425M260 425L261 426L260 425z"/>
<path style="fill:#fcb74a; stroke:none;" d="M489 425L490 426L489 425z"/>
<path style="fill:#5d656c; stroke:none;" d="M179 426L180 427L179 426M258 426L259 427L258 426M182 427L183 428L182 427M255 427L256 428L255 427z"/>
<path style="fill:#fcb74a; stroke:none;" d="M256 427L257 428L256 427z"/>
<path style="fill:#5d656c; stroke:none;" d="M490 427L490 430L491 430L490 427z"/>
<path style="fill:#fcb74a; stroke:none;" d="M184 428L185 429L184 428z"/>
<path style="fill:#5d656c; stroke:none;" d="M185 428L186 429L185 428M252 428L253 429L252 428z"/>
<path style="fill:#fcb74a; stroke:none;" d="M253 428L254 429L253 428z"/>
<path style="fill:#5d656c; stroke:none;" d="M187.667 429.333L188.333 429.667L187.667 429.333M249 429L250 430L249 429z"/>
<path style="fill:#fcb74a; stroke:none;" d="M250 429L251 430L250 429M190 430L191 431L190 430z"/>
<path style="fill:#5d656c; stroke:none;" d="M191.667 430.333L192.333 430.667L191.667 430.333M246 430L247 431L246 430z"/>
<path style="fill:#fcb74a; stroke:none;" d="M247 430L248 431L247 430M194 431L195 432L194 431z"/>
<path style="fill:#5d656c; stroke:none;" d="M195.667 431.333L196.333 431.667L195.667 431.333M241.667 431.333L242.333 431.667L241.667 431.333z"/>
<path style="fill:#fcb74a; stroke:none;" d="M243 431L244 432L243 431M198 432L199 433L198 432z"/>
<path style="fill:#5d656c; stroke:none;" d="M199 432L199 433L202 433L199 432M236.667 432.333L237.333 432.667L236.667 432.333z"/>
<path style="fill:#fcb74a; stroke:none;" d="M238 432L239 433L238 432z"/>
<path style="fill:#5d656c; stroke:none;" d="M491.333 432.667L491.667 433.333L491.333 432.667z"/>
<path style="fill:#fcb74a; stroke:none;" d="M205 433L206 434L205 433z"/>
<path style="fill:#5d656c; stroke:none;" d="M206 433L206 434L209 434L206 433M227 433L227 434L233 434L227 433z"/>
<path style="fill:#fcb74a; stroke:none;" d="M233 433L234 434L233 433M217 434L217 435L221 435L217 434M491 434L492 435L491 434z"/>
<path style="fill:#5d656c; stroke:none;" d="M492.333 437.667L492.667 438.333L492.333 437.667M493.333 441.667L493.667 442.333L493.333 441.667z"/>
<path style="fill:#fcb74a; stroke:none;" d="M493 443L494 444L493 443z"/>
<path style="fill:#5d656c; stroke:none;" d="M494.333 446.667L494.667 447.333L494.333 446.667z"/>
<path style="fill:#fcb74a; stroke:none;" d="M494 448L495 449L494 448z"/>
<path style="fill:#5d656c; stroke:none;" d="M495 450L495 453L496 453L495 450M496 455L496 458L497 458L496 455z"/>
<path style="fill:#fcb74a; stroke:none;" d="M496 458L497 459L496 458z"/>
<path style="fill:#5d656c; stroke:none;" d="M437 461L437 468L438 468L437 461z"/>
<path style="fill:#fcb74a; stroke:none;" d="M496 462L497 463L496 462M15.3333 463.667L15.6667 464.333L15.3333 463.667M422.333 463.667L422.667 464.333L422.333 463.667z"/>
<path style="fill:#5d656c; stroke:none;" d="M496.333 463.667L496.667 464.333L496.333 463.667M15 465L16 466L15 465M422 465L423 466L422 465M495.333 466.667L495.667 467.333L495.333 466.667z"/>
<path style="fill:#fcb74a; stroke:none;" d="M16 467L17 468L16 467M421 467L422 468L421 467z"/>
<path style="fill:#5d656c; stroke:none;" d="M16 468L17 469L16 468M421 468L422 469L421 468M494 468L495 469L494 468z"/>
<path style="fill:#fcb74a; stroke:none;" d="M17 469L18 470L17 469M420 469L421 470L420 469z"/>
<path style="fill:#5d656c; stroke:none;" d="M436.333 470.667L436.667 471.333L436.333 470.667M493 470L494 471L493 470M18 471L19 472L18 471M419 471L420 472L419 471M492 471L493 472L492 471M19 472L20 473L19 472M418 472L419 473L418 472M491 472L492 473L491 472M435.333 473.667L435.667 474.333L435.333 473.667z"/>
<path style="fill:#fcb74a; stroke:none;" d="M489 473L490 474L489 473z"/>
<path style="fill:#5d656c; stroke:none;" d="M22 474L23 475L22 474M415 474L416 475L415 474M488 474L489 475L488 474M24 475L25 476L24 475z"/>
<path style="fill:#fcb74a; stroke:none;" d="M25 475L26 476L25 475M412 475L413 476L412 475z"/>
<path style="fill:#5d656c; stroke:none;" d="M413 475L414 476L413 475M434 475L447 477L483 477L483 476L434 475M485.667 475.333L486.333 475.667L485.667 475.333M28 476L28 477L203 477L186 476L151 476L28 476M235 476L235 477L410 477L393 476L358 476L235 476z"/>
<path style="fill:#fcb74a; stroke:none;" d="M205 477L206 478L205 477M232 477L233 478L232 477z"/>
<path style="fill:#5d656c; stroke:none;" d="M206 478L207 479L206 478M231 478L232 479L231 478M207 479L208 480L207 479M230 479L231 480L230 479M208.333 481.667L208.667 482.333L208.333 481.667M229.333 481.667L229.667 482.333L229.333 481.667z"/>
</svg>
