<?xml version="1.0" standalone="yes"?>
<svg xmlns="http://www.w3.org/2000/svg" width="512" height="512">
<path style="fill:#fefeff; stroke:none;" d="M0 0L0 512L12 512L12 511C4.17629 504.444 6 495.335 6 486L6 426L6 359C6 351.457 3.68226 339.361 8.43364 333.015C16.7029 321.971 35.8559 326 48 326L130 326C144.875 326 159.201 323.65 172 332L172 287C172.012 279.669 172.603 271.535 179.093 266.854C185.515 262.223 195.52 264 203 264C203 253.677 199.35 234.323 207.344 226.344C212.722 220.977 223.061 223 230 223L285 223C292.211 223 301.371 221.243 306.772 227.109C313.743 234.681 310 254.268 310 264C319.467 264 330.876 261.811 337.606 270.043C343.766 277.579 341 291.847 341 301L341 381C354.451 371.841 368.127 374 384 374L463 374C473.815 374 493.03 370.305 501.957 377.419C510.76 384.435 508 398.035 508 408L508 481C508 491.428 510.482 503.392 502 511L502 512L512 512L512 0L364 0L364 1C370.227 3.29755 375.056 6.68649 379.1 12.0008C403.263 43.7483 371.298 76.2802 348 96.7153C341.025 102.833 330.65 109.446 326.573 118C325.244 120.787 323.761 128.793 329 128.793C334.503 128.793 333.704 117.573 341.001 117.377C348.707 117.169 349.866 126.552 347.867 132C342.086 147.751 322.686 150.12 313 137L312 137C302.735 150.153 288.297 158.516 274 165.218C268.939 167.591 261.71 171.421 256 170.914C234.756 169.026 215.151 150.864 201 137C190.708 149.329 171.994 148.295 165.967 132.001C163.883 126.368 164.969 116.943 172.997 117.362C180.296 117.743 178.818 128.059 184.184 128.824C189.541 129.588 188.665 121.848 187.516 119C184.005 110.297 173.883 103.707 167 97.7184C143.94 77.6539 110.501 45.0626 133.927 13C138.049 7.35889 143.261 2.98306 150 1C138.306 -3.90692 117.73 0 105 0L0 0z"/>
<path style="fill:#f9bd3c; stroke:none;" d="M201 137C211.508 151.615 237.722 171.349 257 171.349C268.156 171.349 282.971 161.878 292 156C299.538 151.093 308.091 145.382 312 137L313 137C322.628 156.701 358.314 139.945 347.972 121.059C341.165 108.627 334.737 124.654 330.691 127.364C326.602 130.102 325.064 123.806 325.823 121C328.465 111.232 341.751 103.074 349 96.7153C363.829 83.7088 379.334 69.1678 385.9 50C392.134 31.7979 383.692 3.36496 362 0.209869C345.157 -2.23987 329.333 6.32904 317 17C313.302 6.15918 302.396 8 293 8L223 8C213.632 8 200.232 5.5256 197 17C183.856 6.5686 168.56 -2.75604 151 0.328705C127.016 4.54202 121.609 36.3345 129.862 55C137.705 72.7394 152.607 86.1438 167 98.5764C173.832 104.478 186.399 112.468 188.102 121.999C188.531 124.401 186.61 130.516 183.14 128.029C179.466 125.396 172.258 107.859 165.667 121.189C155.981 140.779 190.437 155.584 201 137z"/>
<path style="fill:#fefeff; stroke:none;" d="M166 0L166 1C178.218 2.83017 186.695 11.1289 197 17C202.045 6.21811 212.912 8 223 8L291 8C301.404 8 311.452 6.34149 317 17C326.977 10.7871 335.951 2.80478 348 1L330 0L294 0L166 0M196 101L196 55C183.428 58.3346 165.481 56.3161 165.137 39C165.016 32.8979 171.188 27.386 176.891 31.554C179.788 33.6708 180.253 38.2413 183.287 39.9136C185.747 41.2691 187.95 39.3038 188.547 36.9414C189.891 31.6265 184.703 28.0935 181 25.4283C173.42 19.9733 160.441 11.9567 151.093 18.0092C126 34.2575 156.311 65.9944 169.001 78.0355C172.595 81.446 176.341 84.6615 180 88C184.919 92.4884 189.956 98.1814 196 101M317 54L317 102C334.975 90.7568 359.027 69.5074 367.971 50C372.968 39.0999 373.564 25.0899 361.985 17.7423C352.737 11.8735 339.362 20.7402 332.001 26.0401C328.525 28.5426 324.232 32.0786 325.337 36.9414C325.871 39.289 328.157 41.2968 330.575 39.9136C333.465 38.2602 333.518 33.8085 336.228 31.7176C342.156 27.1426 349.37 33.433 348.627 40C346.716 56.8965 329.598 59.1338 317 54z"/>
<path style="fill:#f9bd3c; stroke:none;" d="M203 264L310 264C310 254.469 313.938 233.395 306.772 226.228C301.611 221.068 291.662 223 285 223L230 223C223.482 223 212.574 220.89 207.344 225.573C199.095 232.958 203 254.002 203 264z"/>
<path style="fill:#f13d77; stroke:none;" d="M173 512L341 512L341 341L341 293C341 286.601 342.518 277.872 339.543 272.004C333.778 260.63 317.494 264 307 264L211 264C200.715 264 181.792 260.187 175.147 270.094C170.999 276.278 172 284.943 172 292C172 308.049 172.594 324.016 172.985 340C174.388 397.256 173 454.724 173 512z"/>
<path style="fill:#83d3c9; stroke:none;" d="M121 512L121 326L43 326C34.0609 326 19.6444 323.246 12.0154 328.653C2.10008 335.68 6 354.292 6 365L6 470C6 479.444 1.80459 502.664 9.34414 509.427C15.5349 514.981 31.1735 512 39 512L121 512z"/>
<path style="fill:#3dab8b; stroke:none;" d="M121 326L121 512L173 512L173 378L173 345C173 339.799 173.706 334.266 169.772 330.214C160.712 320.883 133.187 326 121 326z"/>
<path style="fill:#f9bd3c; stroke:none;" d="M261 340L262 341L261 340z"/>
<path style="fill:#fefeff; stroke:none;" d="M257 357L257 385L257 403C257 408.33 255.384 416.851 257.603 421.772C259.587 426.17 266.419 425.366 267.682 420.891C269.262 415.294 268 407.796 268 402L268 362C268 357.401 270.452 342.795 264.852 341.002C251.925 336.865 238.184 372.526 257 357z"/>
<path style="fill:#f9bd3c; stroke:none;" d="M264.667 340.333L265.333 340.667L264.667 340.333M268 343L268 422L269 422L269 368L268 343M253 347L254 348L253 347M252 348L253 349L252 348M251 349L252 350L251 349M250 350L251 351L250 350M249 351L250 352L249 351M248 352L249 353L248 352M247 353L248 354L247 353M245.333 357.667L245.667 358.333L245.333 357.667M255 357C259.736 376.891 256 401.555 256 422L257 422L257 374L255 357M246 360L247 361L246 360M252 361L253 362L252 361M248 362L248 363L251 363L248 362z"/>
<path style="fill:#fefeff; stroke:none;" d="M73 439C74.0105 417.254 107.583 413.928 110.695 391C113.507 370.288 88.1851 358.549 72.0008 368.97C66.5206 372.499 58.6114 382.952 63.8619 389.682C65.8486 392.229 70.0591 392.461 72.4113 390.258C75.1182 387.722 74.7805 383.153 77.419 380.343C83.99 373.346 95.5248 376.782 97.8017 385.91C99.8237 394.017 92.5272 400.461 86.9992 405.079C76.1443 414.149 61.0837 421.081 61.0008 437C60.9847 440.093 60.1729 444.871 62.0278 447.566C64.2545 450.802 69.6265 449.999 73 450C81.5048 450.003 101.563 453.726 108.682 448.972C118.257 442.579 103.189 439 99 439L89 439L73 439z"/>
<path style="fill:#83d3c9; stroke:none;" d="M341 512L460 512L490 512C494.359 512 499.962 512.903 503.671 510.106C511.18 504.443 508 488.263 508 480L508 406C508 397.449 510.477 384.816 503.786 378.225C496.233 370.785 479.717 374 470 374L378 374C367.858 374 347.706 369.997 342.028 381.015C337.367 390.06 341 408.88 341 419L341 512z"/>
<path style="fill:#fefeff; stroke:none;" d="M441 442C444.247 439.101 446.834 436.225 448.215 432C450.8 424.086 450.787 414.518 444.786 408.105C435.566 398.252 412.427 399.378 404.995 411.015C401.627 416.289 400.199 430.899 410.856 426.396C414.805 424.727 414.719 419.167 417.419 416.228C422.859 410.308 434.069 412.441 436.655 420.004C438.546 425.533 437.387 432.529 431.906 435.543C428.347 437.5 421.263 436.828 422.377 442.947C423.32 448.131 430.443 447.413 433.981 449.738C440.981 454.34 441.486 465.496 436.347 471.786C431.519 477.696 420.41 477.286 415.419 471.775C413.274 469.407 413.155 465.868 411.066 463.603C408.978 461.341 403.741 461.46 401.603 463.603C394.189 471.036 407.917 483.189 414 485.441C423.501 488.957 438.232 488.11 445.671 480.671C456.348 469.995 454.424 448.969 441 442z"/>
<path style="fill:#f9bd3c; stroke:none;" d="M257 423L258 424L257 423M267 423L268 424L267 423M259 424L260 425L259 424M265 424L266 425L265 424z"/>
</svg>
