<?xml version="1.0" standalone="yes"?>
<svg xmlns="http://www.w3.org/2000/svg" width="512" height="512">
<path style="fill:#010101; stroke:none;" d="M0 0L0 512L512 512L512 0L0 0z"/>
<path style="fill:#3d68cb; stroke:none;" d="M306 70C304.358 73.8165 299.529 83.9307 304.319 86.9568C307.602 89.0311 312.057 86.2048 315 84.7523C323.915 80.3529 333.231 76.6749 342 72C339.526 103.344 342.706 131.974 369 153.535C413.698 190.189 488.547 166.938 498.916 108C504.621 75.569 492.021 40.7642 463 23.4529C424.942 0.75058 360.73 12.3392 347 60C339.782 51.5103 319.142 8.26599 315 39C265.204 22.1375 209.304 36.722 163 56C159.837 45.252 150.551 35.649 142 28.8079C107.85 1.48669 55.2877 7.78946 28.2863 42C-12.4019 93.5515 27.9566 178.31 96 171.83C126.674 168.909 153.216 151.897 165.573 123C168.625 115.861 170.235 108.681 171.155 101C171.621 97.1113 171.303 91.5191 174.318 88.6373C180.567 82.6652 192.067 79.8124 200 76.8079C223.889 67.7605 250.561 64.3474 276 66.0895C286.052 66.7779 295.961 69.7928 306 70z"/>
<path style="fill:#f2a7aa; stroke:none;" d="M412 20.4283C400.819 22.03 390.494 25.4946 381 31.696C318.477 72.5342 356.339 172.283 430 162.711C439.882 161.427 449.516 157.956 458 152.796C521.238 114.33 486.561 9.74686 412 20.4283z"/>
<path style="fill:#3d68cb; stroke:none;" d="M402 96L402 98C390.511 103.961 387.001 114.882 387 127C387 129.98 385.927 135.853 388.603 137.972C391.85 140.544 400.071 139 404 139L436 139C440.358 139 446.789 140.171 450.852 138.397C455.009 136.581 454.006 130.672 454 127C453.982 115.588 449.931 102.056 438 98C444.064 92.399 449.709 87.1524 452.226 79C454.178 72.6781 454.324 66.4099 452.761 60C451.42 54.4996 448.622 49.2754 444.699 45.1736C441.22 41.5356 436.721 38.7911 432 37.0903C396.618 24.3432 367.082 77.836 402 96z"/>
<path style="fill:#f2a7aa; stroke:none;" d="M87.6667 43.3333L88.3333 43.6667L87.6667 43.3333z"/>
<path style="fill:#dbd9c9; stroke:none;" d="M89 43.4429C57.2101 48.0688 61.764 97.5406 94 93.6852C126.678 89.777 121.299 38.743 89 43.4429z"/>
<path style="fill:#f2a7aa; stroke:none;" d="M95.6667 43.3333L96.3333 43.6667L95.6667 43.3333M415.667 43.3333L416.333 43.6667L415.667 43.3333z"/>
<path style="fill:#dbd9c9; stroke:none;" d="M417 43.4684C385.222 48.8198 391.122 98.1958 423 93.5571C455.585 88.8156 449.45 38.0037 417 43.4684z"/>
<path style="fill:#f2a7aa; stroke:none;" d="M423.667 43.3333L424.333 43.6667L423.667 43.3333M83 44L84 45L83 44M99 44L100 45L99 44M412 44L413 45L412 44M428 44L429 45L428 44M102 45L103 46L102 45M409 45L410 46L409 45M104 46L105 47L104 46M407 46L408 47L407 46M77 47L78 48L77 47M434 47L435 48L434 47M108 49L109 50L108 49M403 49L404 50L403 49M109 50L110 51L109 50M402 50L403 51L402 50M110 51L111 52L110 51M401 51L402 52L401 51M111 52L112 53L111 52M400 52L401 53L400 52M70 54L71 55L70 54M441 54L442 55L441 54M113 55L114 56L113 55M398 55L399 56L398 55M69 56L70 57L69 56M114 57L115 58L114 57M397 57L398 58L397 57M68 58L69 59L68 58M443 58L444 59L443 58M115 59L116 60L115 59M396 59L397 60L396 59M67 60L68 61L67 60M444 60L445 61L444 60M116.333 63.6667L116.667 64.3333L116.333 63.6667M395 63L396 64L395 63M66 64L66 68L67 68L66 64M445 64L445 68L446 68L445 64z"/>
<path style="fill:#010101; stroke:none;" d="M80 171C83.8523 180.39 88.1336 189.609 91.9892 199C93.2925 202.174 96.1385 207.675 91.8372 209.879C87.9135 211.889 80.9915 207.923 77 207C75.9072 220.379 72.0149 233.486 71.0895 247C69.6458 268.082 73.1976 289.785 79 310C81.4798 318.639 84.1207 329.419 89.3526 336.852C92.2818 341.013 98.4276 340.587 103 341.156C111.078 342.161 118.738 344.617 126 348.248C157.669 364.083 178.456 400.58 170 436C179.824 432.798 189.325 428.665 199 425.05C202.101 423.892 207.551 420.823 210.164 424.333C213.037 428.191 208.287 436.051 207 440C219.122 441.632 230.733 445.642 243 446.83C264.707 448.932 285.717 447.194 307 442.424C316.67 440.256 330.63 437.655 338.678 431.586C342.149 428.969 339.941 422.761 340.015 419C340.208 409.192 342.584 398.988 346.427 390C362.495 352.423 404.793 331.546 444 344C441.259 334.412 436.485 325.172 432.579 316C431.22 312.81 428.032 307.518 432.188 305.042C436.197 302.654 442.786 306.378 447 307C455.708 273.344 455.211 237.331 445.279 204C442.578 194.936 439.072 179.288 432.034 172.607C429.083 169.806 422.719 172.105 419 171.96C409.509 171.59 399.766 169.623 391 165.988C361.932 153.936 343.132 127.024 340.17 96C339.399 87.928 341.655 80.0228 342 72C332.481 75.6929 323.155 80.2382 314 84.7523C311.01 86.2263 306.408 89.0807 303.643 85.6667C300.652 81.9719 304.75 73.9102 306 70C296.295 69.5822 286.734 66.7561 277 66.0895C250.886 64.3012 223.543 67.5128 199 76.8079C191.246 79.7445 180.664 82.4399 174.318 87.9661C170.935 90.9114 171.423 97.8409 170.95 102C169.99 110.426 167.45 118.39 163.741 126C147.37 159.587 115.2 172.512 80 171z"/>
<path style="fill:#f2a7aa; stroke:none;" d="M66 69L66 73L67 73L66 69M445 69L445 73L446 73L445 69M116.333 72.6667L116.667 73.3333L116.333 72.6667M395 73L396 74L395 73M67 76L68 77L67 76M444 76L445 77L444 76M115 77L116 78L115 77M396 77L397 78L396 77M68 78L69 79L68 78M443 78L444 79L443 78M114 79L115 80L114 79M397 79L398 80L397 79M442 80L443 81L442 80M113 81L114 82L113 81M398 81L399 82L398 81M70 82L71 83L70 82M441 82L442 83L441 82M400 84L401 85L400 84M110 85L111 86L110 85M401 85L402 86L401 85M109 86L110 87L109 86M402 86L403 87L402 86M108 87L109 88L108 87M403 87L404 88L403 87M77 89L78 90L77 89M434 89L435 90L434 89M104 90L105 91L104 90M407 90L408 91L407 90M102 91L103 92L102 91M409 91L410 92L409 91M83 92L84 93L83 92M99 92L100 93L99 92M412 92L413 93L412 92M428 92L429 93L428 92M87.6667 93.3333L88.3333 93.6667L87.6667 93.3333M95.6667 93.3333L96.3333 93.6667L95.6667 93.3333M415.667 93.3333L416.333 93.6667L415.667 93.3333M423.667 93.3333L424.333 93.6667L423.667 93.3333z"/>
<path style="fill:#6ad8dc; stroke:none;" d="M83 102L83 103L87 103L83 102z"/>
<path style="fill:#dbd9c9; stroke:none;" d="M67 131L117 131C116.999 123.108 116.518 115.206 110.787 109.105C101.093 98.7858 79.2487 99.5353 70.8002 111.04C66.4064 117.023 67 123.977 67 131z"/>
<path style="fill:#6ad8dc; stroke:none;" d="M96 102L96 103L100 103L96 102M395 131L446 131C446 123.205 445.94 115.41 440.471 109.185C430.711 98.0781 407.353 99.0879 398.8 111.015C394.455 117.074 395 123.924 395 131M80 103L81 104L80 103M102 103L103 104L102 103M78 104L79 105L78 104M104.667 104.333L105.333 104.667L104.667 104.333M76 105L77 106L76 105M106 105L107 106L106 105M75 106L76 107L75 106M108 106L109 107L108 106M73 107L74 108L73 107M109 107L110 108L109 107M72 108L73 109L72 108M110 108L111 109L110 108M71 109L72 110L71 109M111 109L112 110L111 109M112 110L113 111L112 110M70 111L71 112L70 111M69 112L70 113L69 112M113 112L114 113L113 112M114.333 113.667L114.667 114.333L114.333 113.667M68 114L69 115L68 114M115.333 115.667L115.667 116.333L115.333 115.667M67.3333 116.667L67.6667 117.333L67.3333 116.667M116.333 119.667L116.667 120.333L116.333 119.667M66 120L66 131L67 131L66 120z"/>
<path style="fill:#3d68cb; stroke:none;" d="M177 155C169.827 155 159.555 153.136 153.004 156.457C133.189 166.501 149.889 198.479 157 211C162.038 219.871 166.94 235.767 178 238C179.276 267.256 206.881 298.7 236 303L236 344C223.793 344 213.196 345.656 207.328 358C205.16 362.56 202.812 371.509 208.228 374.821C213.074 377.784 222.506 376 228 376L278 376C284.578 376 299.308 378.73 304.566 374.258C308.684 370.755 306.933 363.223 305.12 359C299.532 345.992 288.616 344 276 344L276 303C305.146 298.696 332.724 267.27 334 238C345.06 235.767 349.962 219.871 355 211C362.111 198.479 378.811 166.501 358.996 156.457C352.445 153.136 342.173 155 335 155C335 147.78 335.406 139.326 326.996 136.653C317.742 133.711 304.674 136 295 136L226 136C213.742 136 196.704 132.934 185.004 136.653C176.594 139.326 177 147.78 177 155z"/>
<path style="fill:#f2a7aa; stroke:none;" d="M188 144L188 145L324 145C313.258 140.493 294.682 144 283 144L188 144M186 145L187 146L186 145z"/>
<path style="fill:#dbd9c9; stroke:none;" d="M187.603 146.028C184.522 148.468 186 156.524 186 160L186 200C186 219.117 183.643 239.278 192.259 257C211.845 297.286 264.663 309.674 300 281.985C322.636 264.249 324.295 242.206 326.09 216C327.01 202.554 328.189 188.443 326.424 175C325.535 168.224 330.064 151.513 325.258 146.603C320.435 141.677 300.663 145 294 145L216 145C209.589 145 192.71 141.983 187.603 146.028z"/>
<path style="fill:#f2a7aa; stroke:none;" d="M325 145L326 146L325 145M185 147L185 158L186 158L185 147M326 147L327 148L326 147M326 157L327 158L326 157z"/>
<path style="fill:#6ad8dc; stroke:none;" d="M185 158L186 159L185 158M326 158L327 159L326 158z"/>
<path style="fill:#f2a7aa; stroke:none;" d="M432 170C434.978 186.707 445.202 202.995 449.113 220C455.848 249.292 452.64 277.917 447 307C442.798 306.028 434.312 301.636 430.643 305.603C427.711 308.775 431.67 314.871 433 318C437.176 327.821 440.355 344.314 452 347.199C456.607 348.341 460.165 346.08 464 343.799C473.51 338.143 505.44 322.052 478 318C496.208 269.736 486.792 203.628 463 159C452.839 163.744 443.456 169.064 432 170z"/>
<path style="fill:#dbd9c9; stroke:none;" d="M176 228L177 228C177 212.555 171.23 203.334 163.861 190C161.218 185.218 157.559 177.39 161.742 172.318C164.886 168.506 172.608 170 177 170L177 163C171.282 163 162.229 161.297 157.109 164.179C151.518 167.326 152.646 176.568 153.093 182C154.392 197.762 169.812 213.641 176 228M335 163L335 170C339.391 170 347.114 168.506 350.258 172.318C354.441 177.39 350.782 185.218 348.139 190C340.77 203.334 335 212.555 335 228C343.405 217.866 358.59 194.242 358.985 181C359.134 175.993 360.322 168.181 355.772 164.742C350.909 161.067 340.792 163 335 163M465 164L466 165L465 164z"/>
<path style="fill:#6ad8dc; stroke:none;" d="M46 197C32.8736 243.601 33.4362 304.837 58 348L91 340C78.8103 310.721 69.6301 281.185 71.0394 249C71.6602 234.822 76.3889 221.017 77 207C81.0155 208.307 88.6411 212.553 92.6782 209.958C96.4198 207.552 93.6201 202.045 92.3958 199C89.1392 190.902 84.8854 172.718 75.9846 169.684C63.7887 165.528 53.9804 174.611 44 180.6C40.7361 182.559 33.9617 185.213 34.466 189.961C34.9679 194.684 42.3782 195.822 46 197z"/>
<path style="fill:#f2a7aa; stroke:none;" d="M255.667 168.333L256.333 168.667L255.667 168.333z"/>
<path style="fill:#6ad8dc; stroke:none;" d="M251 169L252 170L251 169z"/>
<path style="fill:#3d68cb; stroke:none;" d="M252.004 169.653C242.98 172.506 243.133 184.036 236.787 189.683C229.077 196.543 215.916 189.849 210.573 201.004C204.972 212.698 219.754 218.367 223.968 227C228.06 235.383 218.728 245.321 224.879 253.892C234.615 267.459 246.466 249.107 257 250.631C265.379 251.843 271.771 261.006 280.996 258.192C295.814 253.673 285.353 238.704 287.357 229C289.324 219.479 303.664 216.074 302.577 205C301.043 189.364 283.368 196.94 275.213 189.683C269.812 184.877 269.43 176.223 263.787 171.653C260.597 169.069 255.88 168.427 252.004 169.653z"/>
<path style="fill:#6ad8dc; stroke:none;" d="M260 169L261 170L260 169M249 170L250 171L249 170M262 170L263 171L262 170z"/>
<path style="fill:#f2a7aa; stroke:none;" d="M160 173L160 184L161 184L160 173M351 173L351 184L352 184L351 173M245 174L246 175L245 174M266 174L267 175L266 174z"/>
<path style="fill:#6ad8dc; stroke:none;" d="M326 174L327 175L326 174z"/>
<path style="fill:#f2a7aa; stroke:none;" d="M326 175L327 176L326 175z"/>
<path style="fill:#6ad8dc; stroke:none;" d="M244 176L245 177L244 176M267 176L268 177L267 176z"/>
<path style="fill:#f2a7aa; stroke:none;" d="M253 177L252 179L253 177z"/>
<path style="fill:#dbd9c9; stroke:none;" d="M254.209 178.086C248.844 180.743 247.367 190.43 243.471 194.812C238.674 200.205 231.607 200.087 225.001 201.135C222.182 201.582 217.867 202.368 217.867 206.058C217.867 213.978 230.518 218.379 232.566 226C234.072 231.605 226.972 246.691 233.243 249.867C239.388 252.98 249.304 242.21 256 242.21C262.696 242.21 272.612 252.98 278.757 249.867C284.837 246.788 278.322 232.345 279.232 227C280.236 221.11 286.119 217.101 289.956 213C291.968 210.85 295.35 207.568 293.712 204.303C290.632 198.163 275.643 201.042 270.185 196.442C266.187 193.072 260.736 174.854 254.209 178.086z"/>
<path style="fill:#f2a7aa; stroke:none;" d="M258 177L259 178L258 177z"/>
<path style="fill:#010101; stroke:none;" d="M169 178L176 195L177 195L177 178L169 178z"/>
<path style="fill:#f2a7aa; stroke:none;" d="M243 178L244 179L243 178M259 178L260 179L259 178z"/>
<path style="fill:#6ad8dc; stroke:none;" d="M268 178L269 179L268 178z"/>
<path style="fill:#010101; stroke:none;" d="M335 178L335 195L336 195L343 178L335 178z"/>
<path style="fill:#f2a7aa; stroke:none;" d="M242 180L243 181L242 180M251 180L252 181L251 180M260 180L261 181L260 180M269 180L270 181L269 180M241 182L242 183L241 182M250 182L251 183L250 182M261 182L262 183L261 182M270 182L271 183L270 182M240 184L241 185L240 184M249 184L250 185L249 184M262 184L263 185L262 184M271 184L272 185L271 184M153 185L154 186L153 185M239 186L240 187L239 186M248 186L249 187L248 186M263 186L264 187L263 186M272 186L273 187L272 186z"/>
<path style="fill:#6ad8dc; stroke:none;" d="M349 187L350 188L349 187z"/>
<path style="fill:#f2a7aa; stroke:none;" d="M238 188L239 189L238 188M247 188L248 189L247 188M264 188L265 189L264 188M273 188L274 189L273 188M163 189L164 190L163 189M348 189L349 190L348 189M246 190L247 191L246 190M265 190L266 191L265 190M156 191L157 192L156 191M164 191L165 192L164 191z"/>
<path style="fill:#6ad8dc; stroke:none;" d="M235 191L236 192L235 191M276 191L277 192L276 191z"/>
<path style="fill:#f2a7aa; stroke:none;" d="M347 191L348 192L347 191M355 191L356 192L355 191M228 192L229 193L228 192z"/>
<path style="fill:#6ad8dc; stroke:none;" d="M229 192L230 193L229 192z"/>
<path style="fill:#f2a7aa; stroke:none;" d="M245 192L246 193L245 192M266 192L267 193L266 192z"/>
<path style="fill:#6ad8dc; stroke:none;" d="M282 192L283 193L282 192z"/>
<path style="fill:#f2a7aa; stroke:none;" d="M283 192L284 193L283 192M157 193L158 194L157 193M221 193L222 194L221 193z"/>
<path style="fill:#6ad8dc; stroke:none;" d="M222 193L223 194L222 193M289 193L290 194L289 193z"/>
<path style="fill:#f2a7aa; stroke:none;" d="M290 193L291 194L290 193M354 193L355 194L354 193z"/>
<path style="fill:#6ad8dc; stroke:none;" d="M158 195L159 196L158 195z"/>
<path style="fill:#f2a7aa; stroke:none;" d="M243 195L244 196L243 195M268 195L269 196L268 195z"/>
<path style="fill:#6ad8dc; stroke:none;" d="M353 195L354 196L353 195z"/>
<path style="fill:#f2a7aa; stroke:none;" d="M213 196L214 197L213 196M242 196L243 197L242 196M269 196L270 197L269 196M298 196L299 197L298 196z"/>
<path style="fill:#dbd9c9; stroke:none;" d="M477 196L478 197L477 196z"/>
<path style="fill:#f2a7aa; stroke:none;" d="M212 197L213 198L212 197M299 197L300 198L299 197z"/>
<path style="fill:#6ad8dc; stroke:none;" d="M168 198L169 199L168 198z"/>
<path style="fill:#f2a7aa; stroke:none;" d="M239 198L240 199L239 198M272 198L273 199L272 198z"/>
<path style="fill:#6ad8dc; stroke:none;" d="M343 198L344 199L343 198M235 199L236 200L235 199z"/>
<path style="fill:#f2a7aa; stroke:none;" d="M236 199L237 200L236 199M275 199L276 200L275 199z"/>
<path style="fill:#6ad8dc; stroke:none;" d="M276 199L277 200L276 199z"/>
<path style="fill:#f2a7aa; stroke:none;" d="M169 200L170 201L169 200z"/>
<path style="fill:#6ad8dc; stroke:none;" d="M210 200L211 201L210 200z"/>
<path style="fill:#f2a7aa; stroke:none;" d="M229 200L230 201L229 200M282 200L283 201L282 200z"/>
<path style="fill:#6ad8dc; stroke:none;" d="M301 200L302 201L301 200z"/>
<path style="fill:#f2a7aa; stroke:none;" d="M342 200L343 201L342 200M222 201L223 202L222 201M289 201L290 202L289 201M162 202L163 203L162 202M349 202L350 203L349 202z"/>
<path style="fill:#6ad8dc; stroke:none;" d="M209 203L210 204L209 203M302 203L303 204L302 203M163 204L164 205L163 204z"/>
<path style="fill:#f2a7aa; stroke:none;" d="M217 204L218 205L217 204M294 204L295 205L294 204z"/>
<path style="fill:#6ad8dc; stroke:none;" d="M348 204L349 205L348 204M173 207L174 208L173 207z"/>
<path style="fill:#f2a7aa; stroke:none;" d="M217 207L218 208L217 207M294 207L295 208L294 207z"/>
<path style="fill:#6ad8dc; stroke:none;" d="M338 207L339 208L338 207M209 208L210 209L209 208M302 208L303 209L302 208z"/>
<path style="fill:#f2a7aa; stroke:none;" d="M174 209L175 210L174 209M337 209L338 210L337 209M167 211L168 212L167 211z"/>
<path style="fill:#6ad8dc; stroke:none;" d="M210 211L211 212L210 211M301 211L302 212L301 211z"/>
<path style="fill:#f2a7aa; stroke:none;" d="M344 211L345 212L344 211M326 212L327 213L326 212M168 213L169 214L168 213z"/>
<path style="fill:#6ad8dc; stroke:none;" d="M326 213L327 214L326 213z"/>
<path style="fill:#f2a7aa; stroke:none;" d="M343 213L344 214L343 213M212 214L213 215L212 214M299 214L300 215L299 214M213 215L214 216L213 215M298 215L299 216L298 215M214 216L215 217L214 216M297 216L298 217L297 216z"/>
<path style="fill:#dbd9c9; stroke:none;" d="M482 217L483 218L482 217z"/>
<path style="fill:#f2a7aa; stroke:none;" d="M339 220L340 221L339 220M173 222L174 223L173 222z"/>
<path style="fill:#6ad8dc; stroke:none;" d="M231 222L232 223L231 222M280 222L281 223L280 222z"/>
<path style="fill:#f2a7aa; stroke:none;" d="M338 222L339 223L338 222z"/>
<path style="fill:#6ad8dc; stroke:none;" d="M174 224L175 225L174 224z"/>
<path style="fill:#f2a7aa; stroke:none;" d="M232 224L233 225L232 224M279 224L280 225L279 224z"/>
<path style="fill:#6ad8dc; stroke:none;" d="M337 224L338 225L337 224z"/>
<path style="fill:#f2a7aa; stroke:none;" d="M224 226L225 227L224 226M287 226L288 227L287 226M224 232L225 233L224 232M287 232L288 233L287 232z"/>
<path style="fill:#6ad8dc; stroke:none;" d="M224 233L225 234L224 233z"/>
<path style="fill:#f2a7aa; stroke:none;" d="M232 233L233 234L232 233M279 233L280 234L279 233z"/>
<path style="fill:#6ad8dc; stroke:none;" d="M287 233L288 234L287 233z"/>
<path style="fill:#dbd9c9; stroke:none;" d="M451 233L452 234L451 233z"/>
<path style="fill:#f2a7aa; stroke:none;" d="M186 238L187 239L186 238M223 238L224 239L223 238M288 238L289 239L288 238M325 238L326 239L325 238z"/>
<path style="fill:#6ad8dc; stroke:none;" d="M186 239L187 240L186 239z"/>
<path style="fill:#f2a7aa; stroke:none;" d="M231 239L232 240L231 239M280 239L281 240L280 239z"/>
<path style="fill:#6ad8dc; stroke:none;" d="M325 239L326 240L325 239z"/>
<path style="fill:#f2a7aa; stroke:none;" d="M187 243L188 244L187 243M324 243L325 244L324 243M222 244L223 245L222 244M289 244L290 245L289 244z"/>
<path style="fill:#6ad8dc; stroke:none;" d="M222 245L223 246L222 245z"/>
<path style="fill:#f2a7aa; stroke:none;" d="M230 245L231 246L230 245M281 245L282 246L281 245z"/>
<path style="fill:#6ad8dc; stroke:none;" d="M289 245L290 246L289 245M188 247L189 248L188 247z"/>
<path style="fill:#f2a7aa; stroke:none;" d="M230 247L231 248L230 247M281 247L282 248L281 247M323 247L324 248L323 247M222 248L223 249L222 248z"/>
<path style="fill:#6ad8dc; stroke:none;" d="M240 248L241 249L240 248M271 248L272 249L271 248z"/>
<path style="fill:#f2a7aa; stroke:none;" d="M289 248L290 249L289 248M231 249L232 250L231 249z"/>
<path style="fill:#6ad8dc; stroke:none;" d="M238 249L239 250L238 249M273 249L274 250L273 249z"/>
<path style="fill:#f2a7aa; stroke:none;" d="M280 249L281 250L280 249z"/>
<path style="fill:#6ad8dc; stroke:none;" d="M189 250L190 251L189 250z"/>
<path style="fill:#f2a7aa; stroke:none;" d="M236 250L237 251L236 250z"/>
<path style="fill:#6ad8dc; stroke:none;" d="M253 250L254 251L253 250M258 250L259 251L258 250M275 250L276 251L275 250M322 250L323 251L322 250M224 253L225 254L224 253z"/>
<path style="fill:#f2a7aa; stroke:none;" d="M287 253L288 254L287 253z"/>
<path style="fill:#6ad8dc; stroke:none;" d="M191 255L192 256L191 255M320 255L321 256L320 255z"/>
<path style="fill:#f2a7aa; stroke:none;" d="M192 257L193 258L192 257M240 257L241 258L240 257M271 257L272 258L271 257M319 257L320 258L319 257M231 258L232 259L231 258z"/>
<path style="fill:#6ad8dc; stroke:none;" d="M237 258L238 259L237 258M274 258L275 259L274 258z"/>
<path style="fill:#f2a7aa; stroke:none;" d="M280 258L281 259L280 258M193 259L194 260L193 259M318 259L319 260L318 259M196 264L197 265L196 264M315 264L316 265L315 264M198 267L199 268L198 267M313 267L314 268L313 267M201 271L202 272L201 271M310 271L311 272L310 271M202 272L203 273L202 272z"/>
<path style="fill:#dbd9c9; stroke:none;" d="M452 274L453 275L452 274z"/>
<path style="fill:#f2a7aa; stroke:none;" d="M210 280L211 281L210 280M301 280L302 281L301 280z"/>
<path style="fill:#6ad8dc; stroke:none;" d="M211 281L212 282L211 281M300 281L301 282L300 281M215 284L216 285L215 284M296 284L297 285L296 284M218 286L219 287L218 286z"/>
<path style="fill:#f2a7aa; stroke:none;" d="M293 286L294 287L293 286z"/>
<path style="fill:#6ad8dc; stroke:none;" d="M230 292L231 293L230 292z"/>
<path style="fill:#f2a7aa; stroke:none;" d="M281 292L282 293L281 292M233 293L234 294L233 293M278 293L279 294L278 293z"/>
<path style="fill:#dbd9c9; stroke:none;" d="M483 293L484 294L483 293z"/>
<path style="fill:#f2a7aa; stroke:none;" d="M236 294L237 295L236 294M275 294L276 295L275 294M240 295L241 296L240 295M271 295L272 296L271 295M245.667 296.333L246.333 296.667L245.667 296.333M265.667 296.333L266.333 296.667L265.667 296.333z"/>
<path style="fill:#dbd9c9; stroke:none;" d="M245 305L245 344L267 344L267 305L245 305z"/>
<path style="fill:#f2a7aa; stroke:none;" d="M254 305L254 306L258 306L254 305z"/>
<path style="fill:#dbd9c9; stroke:none;" d="M490 323L491 324L490 323M441 337L442 338L441 337z"/>
<path style="fill:#3d68cb; stroke:none;" d="M90 340.424C67.9627 343.284 47.6484 348.753 32.1736 366.001C-17.4989 421.365 30.1245 508.664 103 499.714C142.529 494.859 172.894 458.711 171.985 419C171.05 378.158 133.84 334.736 90 340.424M414 340.424C397.734 342.586 383.117 347.182 370 357.518C333.461 386.308 330.629 443.921 363.039 476.985C380.896 495.203 406.911 502.971 432 499.711C485.596 492.746 516.047 431.706 492.191 384C482.742 365.104 467.217 353.017 448 345.399C437.438 341.212 425.381 338.912 414 340.424z"/>
<path style="fill:#6ad8dc; stroke:none;" d="M81 349.439C70.2315 351.121 60.0494 355.026 51 361.09C-9.06956 401.341 27.4649 501.963 100 491.572C111.375 489.942 122.444 486.315 132 479.78C193.071 438.018 154.847 337.905 81 349.439M410 349L410 350L414 350L410 349z"/>
<path style="fill:#dbd9c9; stroke:none;" d="M414 349.425C401.621 351.11 390.407 354.662 380 361.746C372.489 366.859 366.069 373.41 361.079 381C327.562 431.979 371.214 498.522 431 490.711C440.502 489.469 449.917 485.847 458 480.771C509.292 448.562 497.817 370.549 441 352.344C432.445 349.603 422.95 348.207 414 349.425z"/>
<path style="fill:#6ad8dc; stroke:none;" d="M427 349L427 350L431 350L427 349M405.667 350.333L406.333 350.667L405.667 350.333M434.667 350.333L435.333 350.667L434.667 350.333M401.667 351.333L402.333 351.667L401.667 351.333M438.667 351.333L439.333 351.667L438.667 351.333z"/>
<path style="fill:#f2a7aa; stroke:none;" d="M226 352L227 353L226 352z"/>
<path style="fill:#dbd9c9; stroke:none;" d="M214 367L298 367C297.284 360.411 293.358 355.323 287 353.109C280.859 350.97 273.409 352 267 352C254.399 352 238.138 349.28 226 352.789C219.174 354.763 214.758 360.023 214 367z"/>
<path style="fill:#f2a7aa; stroke:none;" d="M285 352L286 353L285 352z"/>
<path style="fill:#6ad8dc; stroke:none;" d="M397.667 352.333L398.333 352.667L397.667 352.333M441.667 352.333L442.333 352.667L441.667 352.333M223 353L224 354L223 353M288 353L289 354L288 353M395 353L396 354L395 353M444.667 353.333L445.333 353.667L444.667 353.333M392.667 354.333L393.333 354.667L392.667 354.333M447 354L448 355L447 354M390 355L391 356L390 355M449.667 355.333L450.333 355.667L449.667 355.333M388 356L389 357L388 356M451.667 356.333L452.333 356.667L451.667 356.333M386 357L387 358L386 357M453.667 357.333L454.333 357.667L453.667 357.333M384.667 358.333L385.333 358.667L384.667 358.333M455 358L456 359L455 358z"/>
<path style="fill:#f2a7aa; stroke:none;" d="M216 359L217 360L216 359M295 359L296 360L295 359z"/>
<path style="fill:#6ad8dc; stroke:none;" d="M383 359L384 360L383 359M457 359L458 360L457 359M381 360L382 361L381 360M458.667 360.333L459.333 360.667L458.667 360.333M380 361L381 362L380 361M460 361L461 362L460 361M378 362L379 363L378 362M461.667 362.333L462.333 362.667L461.667 362.333M377 363L378 364L377 363M416 363L416 364L425 364L416 363M463 363L464 364L463 363z"/>
<path style="fill:#3d68cb; stroke:none;" d="M74 425C63.6864 434.01 58.0217 441.95 58 456C57.9949 459.339 57.0666 464.803 60.3179 466.972C67.2762 471.616 86.6981 468 95 468C101.838 468 116.897 470.833 122.682 466.972C125.937 464.8 125 459.341 125 456C125 444.274 121.84 432.027 110 427C115.395 419.918 121.332 414.948 123.957 406C125.73 399.954 125.355 392.997 123.56 387C121.828 381.212 118.472 376.217 113.985 372.185C100.213 359.809 77.0999 361.37 65.5293 376.015C54.0535 390.539 55.7849 416.505 74 425z"/>
<path style="fill:#6ad8dc; stroke:none;" d="M376 364L377 365L376 364M411.667 364.333L412.333 364.667L411.667 364.333z"/>
<path style="fill:#3d68cb; stroke:none;" d="M403 426C391.168 431.631 387.005 442.573 387 455C386.999 458.836 385.776 465.488 390.148 467.397C394.211 469.171 400.642 468 405 468L437 468C441.065 468 448.148 469.331 451.682 466.972C454.933 464.803 454.005 459.339 454 456C453.981 443.51 449.667 432.052 438 426C444.32 421.184 449.543 415.666 452.11 408C453.934 402.549 454.535 396.645 453.331 391C452.265 386.003 450.2 381.155 447.211 377.001C424.1 344.873 372.714 376.875 390.276 412C393.311 418.07 397.467 422.211 403 426z"/>
<path style="fill:#6ad8dc; stroke:none;" d="M428.667 364.333L429.333 364.667L428.667 364.333M464 364L465 365L464 364M374 365L375 366L374 365M408 365L409 366L408 365M431.667 365.333L432.333 365.667L431.667 365.333M465 365L466 366L465 365M213 366L214 367L213 366M298 366L299 367L298 366M373 366L374 367L373 366M406 366L407 367L406 366M434 366L435 367L434 366M214 367L214 368L298 368L272 367L214 367M372 367L373 368L372 367M404 367L405 368L404 367M436 367L437 368L436 367M468 367L469 368L468 367M371 368L372 369L371 368M402 368L403 369L402 368M438 368L439 369L438 368M469 368L470 369L469 368M370 369L371 370L370 369M400 369L401 370L400 369M439 369L440 370L439 369M470 369L471 370L470 369M369 370L370 371L369 370M399 370L400 371L399 370M441 370L442 371L441 370M471 370L472 371L471 370M368 371L369 372L368 371M398 371L399 372L398 371M442 371L443 372L442 371M472 371L473 372L472 371z"/>
<path style="fill:#f2a7aa; stroke:none;" d="M85.6667 372.333L86.3333 372.667L85.6667 372.333z"/>
<path style="fill:#dbd9c9; stroke:none;" d="M87 372.468C54.5625 378.585 64.5903 427.354 97 421.671C128.804 416.095 118.395 366.547 87 372.468z"/>
<path style="fill:#f2a7aa; stroke:none;" d="M97 372L98 373L97 372z"/>
<path style="fill:#6ad8dc; stroke:none;" d="M367 372L368 373L367 372M397 372L398 373L397 372z"/>
<path style="fill:#f2a7aa; stroke:none;" d="M414 372L415 373L414 372z"/>
<path style="fill:#dbd9c9; stroke:none;" d="M415 372.519C382.316 379.607 394.491 428.973 427 421.471C457.823 414.358 445.842 365.829 415 372.519z"/>
<path style="fill:#f2a7aa; stroke:none;" d="M425.667 372.333L426.333 372.667L425.667 372.333z"/>
<path style="fill:#6ad8dc; stroke:none;" d="M443 372L444 373L443 372M473 372L474 373L473 372z"/>
<path style="fill:#f2a7aa; stroke:none;" d="M82 373L83 374L82 373M100 373L101 374L100 373z"/>
<path style="fill:#6ad8dc; stroke:none;" d="M366 373L367 374L366 373M396 373L397 374L396 373z"/>
<path style="fill:#f2a7aa; stroke:none;" d="M411 373L412 374L411 373M429 373L430 374L429 373z"/>
<path style="fill:#6ad8dc; stroke:none;" d="M444 373L445 374L444 373z"/>
<path style="fill:#f2a7aa; stroke:none;" d="M80 374L81 375L80 374z"/>
<path style="fill:#6ad8dc; stroke:none;" d="M365 374L366 375L365 374M395 374L396 375L395 374z"/>
<path style="fill:#f2a7aa; stroke:none;" d="M431 374L432 375L431 374z"/>
<path style="fill:#6ad8dc; stroke:none;" d="M445 374L446 375L445 374M474 374L475 375L474 374z"/>
<path style="fill:#f2a7aa; stroke:none;" d="M78 375L79 376L78 375M104 375L105 376L104 375z"/>
<path style="fill:#6ad8dc; stroke:none;" d="M394 375L395 376L394 375z"/>
<path style="fill:#f2a7aa; stroke:none;" d="M407 375L408 376L407 375M433 375L434 376L433 375z"/>
<path style="fill:#6ad8dc; stroke:none;" d="M446 375L447 376L446 375M475 375L476 376L475 375z"/>
<path style="fill:#f2a7aa; stroke:none;" d="M106 376L107 377L106 376z"/>
<path style="fill:#6ad8dc; stroke:none;" d="M364 376L365 377L364 376M393 376L394 377L393 376z"/>
<path style="fill:#f2a7aa; stroke:none;" d="M405 376L406 377L405 376z"/>
<path style="fill:#6ad8dc; stroke:none;" d="M476 376L477 377L476 376z"/>
<path style="fill:#f2a7aa; stroke:none;" d="M75 377L76 378L75 377M107 377L108 378L107 377z"/>
<path style="fill:#6ad8dc; stroke:none;" d="M363 377L364 378L363 377M392.333 377.667L392.667 378.333L392.333 377.667z"/>
<path style="fill:#f2a7aa; stroke:none;" d="M404 377L405 378L404 377M436 377L437 378L436 377z"/>
<path style="fill:#6ad8dc; stroke:none;" d="M447 377L448 378L447 377M477 377L478 378L477 377z"/>
<path style="fill:#f2a7aa; stroke:none;" d="M74 378L75 379L74 378z"/>
<path style="fill:#6ad8dc; stroke:none;" d="M362 378L363 379L362 378z"/>
<path style="fill:#f2a7aa; stroke:none;" d="M437 378L438 379L437 378z"/>
<path style="fill:#6ad8dc; stroke:none;" d="M448 378L449 379L448 378z"/>
<path style="fill:#f2a7aa; stroke:none;" d="M73 379L74 380L73 379z"/>
<path style="fill:#6ad8dc; stroke:none;" d="M391 379L392 380L391 379z"/>
<path style="fill:#f2a7aa; stroke:none;" d="M438 379L439 380L438 379z"/>
<path style="fill:#6ad8dc; stroke:none;" d="M478 379L479 380L478 379z"/>
<path style="fill:#f2a7aa; stroke:none;" d="M72 380L73 381L72 380M110 380L111 381L110 380z"/>
<path style="fill:#6ad8dc; stroke:none;" d="M361 380L362 381L361 380z"/>
<path style="fill:#f2a7aa; stroke:none;" d="M439 380L440 381L439 380z"/>
<path style="fill:#6ad8dc; stroke:none;" d="M449 380L450 381L449 380M479 380L480 381L479 380z"/>
<path style="fill:#f2a7aa; stroke:none;" d="M111 381L112 382L111 381z"/>
<path style="fill:#6ad8dc; stroke:none;" d="M360 381L361 382L360 381M390 381L391 382L390 381z"/>
<path style="fill:#f2a7aa; stroke:none;" d="M400 381L401 382L400 381z"/>
<path style="fill:#6ad8dc; stroke:none;" d="M450.333 381.667L450.667 382.333L450.333 381.667M480 382L481 383L480 382M359 383L360 384L359 383M389 383L390 384L389 383z"/>
<path style="fill:#f2a7aa; stroke:none;" d="M441 383L442 384L441 383z"/>
<path style="fill:#6ad8dc; stroke:none;" d="M451.333 383.667L451.667 384.333L451.333 383.667M481 383L482 384L481 383z"/>
<path style="fill:#f2a7aa; stroke:none;" d="M113 384L114 385L113 384z"/>
<path style="fill:#6ad8dc; stroke:none;" d="M358.333 384.667L358.667 385.333L358.333 384.667z"/>
<path style="fill:#f2a7aa; stroke:none;" d="M398 384L399 385L398 384z"/>
<path style="fill:#6ad8dc; stroke:none;" d="M388.333 385.667L388.667 386.333L388.333 385.667M482 385L483 386L482 385z"/>
<path style="fill:#f2a7aa; stroke:none;" d="M68 386L69 387L68 386M114 386L115 387L114 386z"/>
<path style="fill:#6ad8dc; stroke:none;" d="M357 386L358 387L357 386z"/>
<path style="fill:#f2a7aa; stroke:none;" d="M397 386L398 387L397 386z"/>
<path style="fill:#6ad8dc; stroke:none;" d="M452.333 386.667L452.667 387.333L452.333 386.667M483 387L484 388L483 387z"/>
<path style="fill:#f2a7aa; stroke:none;" d="M115 388L116 389L115 388z"/>
<path style="fill:#6ad8dc; stroke:none;" d="M356 388L357 389L356 388M387 388L387 391L388 391L387 388z"/>
<path style="fill:#f2a7aa; stroke:none;" d="M396 388L397 389L396 388M67 389L68 390L67 389M444 389L445 390L444 389z"/>
<path style="fill:#6ad8dc; stroke:none;" d="M453 389L453 392L454 392L453 389M484 389L485 390L484 389M355 390L356 391L355 390z"/>
<path style="fill:#f2a7aa; stroke:none;" d="M116.333 391.667L116.667 392.333L116.333 391.667M395.333 391.667L395.667 392.333L395.333 391.667z"/>
<path style="fill:#6ad8dc; stroke:none;" d="M485 391L486 392L485 391M354.333 392.667L354.667 393.333L354.333 392.667z"/>
<path style="fill:#f2a7aa; stroke:none;" d="M66 393L66 396L67 396L66 393M445 393L445 396L446 396L445 393z"/>
<path style="fill:#6ad8dc; stroke:none;" d="M486 393L487 394L486 393M386 394L386 400L387 400L386 394M353 395L354 396L353 395M487.333 395.667L487.667 396.333L487.333 395.667z"/>
<path style="fill:#f2a7aa; stroke:none;" d="M66 397L66 401L67 401L66 397z"/>
<path style="fill:#6ad8dc; stroke:none;" d="M352.333 397.667L352.667 398.333L352.333 397.667z"/>
<path style="fill:#f2a7aa; stroke:none;" d="M445 397L445 401L446 401L445 397z"/>
<path style="fill:#6ad8dc; stroke:none;" d="M488.333 398.667L488.667 399.333L488.333 398.667z"/>
<path style="fill:#f2a7aa; stroke:none;" d="M116.333 401.667L116.667 402.333L116.333 401.667z"/>
<path style="fill:#6ad8dc; stroke:none;" d="M351.333 401.667L351.667 402.333L351.333 401.667z"/>
<path style="fill:#f2a7aa; stroke:none;" d="M395.333 401.667L395.667 402.333L395.333 401.667z"/>
<path style="fill:#6ad8dc; stroke:none;" d="M453 402L453 405L454 405L453 402M489.333 402.667L489.667 403.333L489.333 402.667z"/>
<path style="fill:#f2a7aa; stroke:none;" d="M67 404L68 405L67 404z"/>
<path style="fill:#6ad8dc; stroke:none;" d="M387.333 404.667L387.667 405.333L387.333 404.667z"/>
<path style="fill:#f2a7aa; stroke:none;" d="M444 404L445 405L444 404M115 405L116 406L115 405z"/>
<path style="fill:#6ad8dc; stroke:none;" d="M350.333 405.667L350.667 406.333L350.333 405.667z"/>
<path style="fill:#f2a7aa; stroke:none;" d="M396 405L397 406L396 405z"/>
<path style="fill:#6ad8dc; stroke:none;" d="M490 406L490 409L491 409L490 406z"/>
<path style="fill:#f2a7aa; stroke:none;" d="M68 407L69 408L68 407M443 407L444 408L443 407z"/>
<path style="fill:#6ad8dc; stroke:none;" d="M452 407L453 408L452 407M388 408L389 409L388 408z"/>
<path style="fill:#f2a7aa; stroke:none;" d="M397 408L398 409L397 408M69 409L70 410L69 409M442 409L443 410L442 409z"/>
<path style="fill:#6ad8dc; stroke:none;" d="M451.333 409.667L451.667 410.333L451.333 409.667M349 410L349 414L350 414L349 410M389.333 410.667L389.667 411.333L389.333 410.667z"/>
<path style="fill:#f2a7aa; stroke:none;" d="M112 411L113 412L112 411M399 411L400 412L399 411M71 412L72 413L71 412z"/>
<path style="fill:#6ad8dc; stroke:none;" d="M390.333 412.667L390.667 413.333L390.333 412.667z"/>
<path style="fill:#f2a7aa; stroke:none;" d="M440 412L441 413L440 412z"/>
<path style="fill:#6ad8dc; stroke:none;" d="M450 412L451 413L450 412M491 412L491 428L492 428L491 412M391 414L392 415L391 414M449 414L450 415L449 414M448 415L449 416L448 415M392 416L393 417L392 416z"/>
<path style="fill:#f2a7aa; stroke:none;" d="M76 417L77 418L76 417z"/>
<path style="fill:#6ad8dc; stroke:none;" d="M393 417L394 418L393 417z"/>
<path style="fill:#f2a7aa; stroke:none;" d="M405 417L406 418L405 417M435 417L436 418L435 417z"/>
<path style="fill:#6ad8dc; stroke:none;" d="M447 417L448 418L447 417z"/>
<path style="fill:#f2a7aa; stroke:none;" d="M105 418L106 419L105 418z"/>
<path style="fill:#6ad8dc; stroke:none;" d="M394 418L395 419L394 418z"/>
<path style="fill:#f2a7aa; stroke:none;" d="M406 418L407 419L406 418z"/>
<path style="fill:#6ad8dc; stroke:none;" d="M446 418L447 419L446 418z"/>
<path style="fill:#f2a7aa; stroke:none;" d="M79 419L80 420L79 419M103 419L104 420L103 419M408 419L409 420L408 419M432 419L433 420L432 419z"/>
<path style="fill:#6ad8dc; stroke:none;" d="M445 419L446 420L445 419z"/>
<path style="fill:#f2a7aa; stroke:none;" d="M81 420L82 421L81 420M101 420L102 421L101 420z"/>
<path style="fill:#6ad8dc; stroke:none;" d="M395 420L396 421L395 420z"/>
<path style="fill:#f2a7aa; stroke:none;" d="M410 420L411 421L410 420M430 420L431 421L430 420z"/>
<path style="fill:#6ad8dc; stroke:none;" d="M444 420L445 421L444 420z"/>
<path style="fill:#f2a7aa; stroke:none;" d="M84 421L85 422L84 421M98 421L99 422L98 421z"/>
<path style="fill:#6ad8dc; stroke:none;" d="M396 421L397 422L396 421z"/>
<path style="fill:#f2a7aa; stroke:none;" d="M413 421L414 422L413 421M427 421L428 422L427 421z"/>
<path style="fill:#6ad8dc; stroke:none;" d="M443 421L444 422L443 421z"/>
<path style="fill:#f2a7aa; stroke:none;" d="M88 422L88 423L95 423L88 422z"/>
<path style="fill:#6ad8dc; stroke:none;" d="M205 422L206 423L205 422z"/>
<path style="fill:#dbd9c9; stroke:none;" d="M201 426L190 428L190 430L188 429L188 431L177 433L177 435C167.273 434.457 164.531 450.065 172 455C170.158 460.525 178.399 466.798 181 472C182.611 475.222 183.095 480.87 187 483C189.601 484.419 190.231 481.558 192 482L196 470L206 472C210.913 477.447 227.924 478.212 235 478.735C259.972 480.578 283.065 480.863 307.83 476.004C314.316 474.731 327.681 473.159 332 468L344 466L344 464L351 463L340 431L321 440L318 441L303.576 443.413L268.996 447.964L229.718 444.999L206 441L210 428L211 423C207.293 423.132 202.821 421.035 201 426z"/>
<path style="fill:#6ad8dc; stroke:none;" d="M209.333 422.667L209.667 423.333L209.333 422.667M397 422L398 423L397 422z"/>
<path style="fill:#f2a7aa; stroke:none;" d="M417 422L417 423L424 423L417 422z"/>
<path style="fill:#6ad8dc; stroke:none;" d="M442 422L443 423L442 422M399 423L400 424L399 423M441 423L442 424L441 423M200.333 424.667L200.667 425.333L200.333 424.667M400 424L401 425L400 424M440 424L441 425L440 424M197 425L198 426L197 425M401 425L401 427L403 425L401 425M438 425L439 426L438 425M195 426L196 427L195 426M349 426L349 431L350 431L349 426M439 426L440 427L439 426M399 427L400 428L399 427M441 427L442 428L441 427M191 428L192 429L191 428M210 428L211 429L210 428M398 428L399 429L398 428M442 428L443 429L442 428M187.333 429.667L187.667 430.333L187.333 429.667M189 429L190 430L189 429M443 429L444 430L443 429M184.667 430.333L185.333 430.667L184.667 430.333z"/>
<path style="fill:#f2a7aa; stroke:none;" d="M210 430L211 431L210 430z"/>
<path style="fill:#6ad8dc; stroke:none;" d="M395 430L396 431L395 430M444 430L445 431L444 430z"/>
<path style="fill:#f2a7aa; stroke:none;" d="M66 460L117 460C117 453.041 117.593 445.996 113.351 440.004C104.907 428.077 80.9281 426.851 71.3403 438.043C65.88 444.417 66 452.109 66 460z"/>
<path style="fill:#6ad8dc; stroke:none;" d="M340 431L341 432L340 431M394 431L395 432L394 431M410 431L411 432L410 431z"/>
<path style="fill:#dbd9c9; stroke:none;" d="M395 460L446 460C446 452.26 445.938 444.344 440.61 438.093C431.06 426.891 407.048 428.024 398.652 440.004C394.522 445.897 395 453.165 395 460z"/>
<path style="fill:#6ad8dc; stroke:none;" d="M430 431L431 432L430 431M445 431L446 432L445 431M179 432L180 433L179 432M209 432L210 433L209 432M341 432L341 435L342 435L341 432M407 432L408 433L407 432M446 432L447 433L446 432M490 432L490 435L491 435L490 432M178 433L179 434L178 433z"/>
<path style="fill:#f2a7aa; stroke:none;" d="M334 433L335 434L334 433z"/>
<path style="fill:#6ad8dc; stroke:none;" d="M447 433L448 434L447 433M174 434L175 435L174 434M176 434L177 435L176 434M208.333 434.667L208.667 435.333L208.333 434.667M350.333 434.667L350.667 435.333L350.333 434.667M392 434L393 435L392 434M436 434L437 435L436 434M448 434L449 435L448 434z"/>
<path style="fill:#f2a7aa; stroke:none;" d="M171 435L172 436L171 435z"/>
<path style="fill:#6ad8dc; stroke:none;" d="M329.667 435.333L330.333 435.667L329.667 435.333M391 435L392 436L391 435M449 436L450 437L449 436M169 437L169 440L170 440L169 437M207 437L208 438L207 437M342 437L342 440L343 440L342 437M390 437L391 438L390 437M450 437L451 438L450 437M489.333 437.667L489.667 438.333L489.333 437.667M351.333 438.667L351.667 439.333L351.333 438.667M317.333 439.667L317.667 440.333L317.333 439.667M320 439L321 440L320 439M389 439L390 440L389 439M451.333 439.667L451.667 440.333L451.333 439.667M206.667 440.333L207.333 440.667L206.667 440.333M210 440L211 441L210 440M488.333 440.667L488.667 441.333L488.333 440.667M168.333 441.667L168.667 442.333L168.333 441.667M212 441L213 442L212 441M214 441L215 442L214 441M343.333 441.667L343.667 442.333L343.333 441.667M352.333 441.667L352.667 442.333L352.333 441.667M388 441L389 442L388 441M216 442L217 443L216 442z"/>
<path style="fill:#f2a7aa; stroke:none;" d="M218 442L219 443L218 442M306 442L307 443L306 442z"/>
<path style="fill:#6ad8dc; stroke:none;" d="M307.667 442.333L308.333 442.667L307.667 442.333M443 442L444 443L443 442M452 442L453 443L452 442M222 443L223 444L222 443M302 443L303 444L302 443M304 443L305 444L304 443M224 444L225 445L224 444M227 444L228 445L227 444M297 444L298 445L297 444M353.333 444.667L353.667 445.333L353.333 444.667M387.333 444.667L387.667 445.333L387.333 444.667M444 444L445 445L444 444M487 444L488 445L487 444M167 445L168 446L167 445M231 445L232 446L231 445M293.667 445.333L294.333 445.667L293.667 445.333M344 445L345 446L344 445M453 445L453 448L454 448L453 445M235.667 446.333L236.333 446.667L235.667 446.333z"/>
<path style="fill:#f2a7aa; stroke:none;" d="M240 446L241 447L240 446M284 446L285 447L284 446z"/>
<path style="fill:#6ad8dc; stroke:none;" d="M285.667 446.333L286.333 446.667L285.667 446.333M486.333 446.667L486.667 447.333L486.333 446.667M243 447L244 448L243 447M245 447L245 448L248 448L245 447M249.667 447.333L250.333 447.667L249.667 447.333M273 447L274 448L273 447M275 447L276 448L275 447M354 447L355 448L354 447M395 447L396 448L395 447M167.333 448.667L167.667 449.333L167.333 448.667M257 448L258 449L257 448M345 448L346 449L345 448M445 448L446 449L445 448M355.333 449.667L355.667 450.333L355.333 449.667M386 449L386 466L387 466L386 449M485 449L486 450L485 449M346.333 450.667L346.667 451.333L346.333 450.667M168 451L169 452L168 451M356.333 451.667L356.667 452.333L356.333 451.667M484 451L485 452L484 451M347 453L348 454L347 453M357.333 453.667L357.667 454.333L357.333 453.667M483 453L484 454L483 453M171 455L172 456L171 455M348 455L349 456L348 455M358 455L359 456L358 455M482 455L483 456L482 455M481.333 456.667L481.667 457.333L481.333 456.667M349 457L350 458L349 457M359 457L360 458L359 457M360.333 458.667L360.667 459.333L360.333 458.667M480 458L481 459L480 458M350 459L351 460L350 459z"/>
<path style="fill:#f2a7aa; stroke:none;" d="M173 460L174 461L173 460z"/>
<path style="fill:#6ad8dc; stroke:none;" d="M351.333 460.667L351.667 461.333L351.333 460.667M361 460L362 461L361 460M479 460L480 461L479 460M362.333 461.667L362.667 462.333L362.333 461.667M478 461L479 462L478 461M349 462L350 463L349 462M477 462L478 463L477 462M348 463L349 464L348 463M363 463L364 464L363 463M344 464L345 465L344 464M364 464L365 465L364 464M476 464L477 465L476 464M176 465L177 466L176 465M342 465L343 466L342 465M365 465L366 466L365 465M475 465L476 466L475 465M340 466L341 467L340 466M387 466L388 467L387 466M453 466L454 467L453 466M474 466L475 467L474 466M177 467L178 468L177 467M336 467L337 468L336 467M388 467L389 468L388 467M452 467L453 468L452 467M473 467L474 468L473 467M332 468L332 470L334 468L332 468z"/>
<path style="fill:#f2a7aa; stroke:none;" d="M335 468L336 469L335 468z"/>
<path style="fill:#6ad8dc; stroke:none;" d="M367 468L368 469L367 468M389 468L389 469L451 469L431 468L389 468M472 468L473 469L472 468z"/>
<path style="fill:#f2a7aa; stroke:none;" d="M178 469L179 470L178 469z"/>
<path style="fill:#6ad8dc; stroke:none;" d="M368 469L369 470L368 469M471 469L472 470L471 469M179 470L180 471L179 470M196 470L197 471L196 470M327.667 470.333L328.333 470.667L327.667 470.333z"/>
<path style="fill:#f2a7aa; stroke:none;" d="M329 470L330 471L329 470z"/>
<path style="fill:#6ad8dc; stroke:none;" d="M369 470L370 471L369 470M180.333 471.667L180.667 472.333L180.333 471.667M195 471L196 472L195 471M200 471L201 472L200 471M322 471L321 473L323 473L322 471M325 471L326 472L325 471M370 471L371 472L370 471M469 471L470 472L469 471M205 472L206 473L205 472M371 472L372 473L371 472M468 472L469 473L468 472M208.667 473.333L209.333 473.667L208.667 473.333M318 473L319 474L318 473M372 473L373 474L372 473M467 473L468 474L467 473z"/>
<path style="fill:#f2a7aa; stroke:none;" d="M194 474L195 475L194 474z"/>
<path style="fill:#6ad8dc; stroke:none;" d="M210 474L211 475L210 474M212 474L213 475L212 474M312.667 474.333L313.333 474.667L312.667 474.333M374 474L375 475L374 474M466 474L467 475L466 474M215 475L216 476L215 475M217 475L218 476L217 475M309 475L310 476L309 475M375 475L376 476L375 475M465 475L466 476L465 475M182 476L183 477L182 476M193 476L194 477L193 476M220 476L221 477L220 476M223 476L224 477L223 476M305 476L306 477L305 476M376 476L377 477L376 476M464 476L465 477L464 476M192 477L193 478L192 477M224 477L225 478L224 477M226 477L227 478L226 477M294 477L293 479L294 477M297 477L298 478L297 477M299.667 477.333L300.333 477.667L299.667 477.333M377 477L378 478L377 477M462 477L463 478L462 477M183 478L184 479L183 478M232 478L232 479L235 479L232 478M289 478L290 479L289 478z"/>
<path style="fill:#f2a7aa; stroke:none;" d="M294 478L295 479L294 478z"/>
<path style="fill:#6ad8dc; stroke:none;" d="M379 478L380 479L379 478M461 478L462 479L461 478M184 479L185 480L184 479M192 479L193 480L192 479z"/>
<path style="fill:#f2a7aa; stroke:none;" d="M238 479L239 480L238 479z"/>
<path style="fill:#6ad8dc; stroke:none;" d="M239 479L239 480L242 480L239 479M245 479L246 480L245 479M277 479L278 480L277 479M280.667 479.333L281.333 479.667L280.667 479.333M284.667 479.333L285.333 479.667L284.667 479.333M380 479L381 480L380 479M460 479L461 480L460 479M251.667 480.333L252.333 480.667L251.667 480.333M259 480L260 481L259 480M273 480L274 481L273 480M382 480L383 481L382 480M458 480L459 481L458 480M185 481L186 482L185 481M190 481L191 482L190 481M383 481L384 482L383 481M456.667 481.333L457.333 481.667L456.667 481.333M385 482L386 483L385 482M455 482L456 483L455 482M387 483L388 484L387 483M453 483L454 484L453 483M389 484L390 485L389 484M451 484L452 485L451 484M391 485L392 486L391 485M449 485L450 486L449 485M393.667 486.333L394.333 486.667L393.667 486.333M446.667 486.333L447.333 486.667L446.667 486.333M395.667 487.333L396.333 487.667L395.667 487.333M444 487L445 488L444 487M398.667 488.333L399.333 488.667L398.667 488.333M440.667 488.333L441.333 488.667L440.667 488.333M402.667 489.333L403.333 489.667L402.667 489.333M437.667 489.333L438.333 489.667L437.667 489.333M406 490L406 491L409 491L406 490M432 490L432 491L435 491L432 490M412 491L412 492L420 492L412 491M421 491L421 492L428 492L421 491z"/>
</svg>
