<?xml version="1.0" standalone="no"?>
<!DOCTYPE svg PUBLIC "-//W3C//DTD SVG 20010904//EN"
 "http://www.w3.org/TR/2001/REC-SVG-20010904/DTD/svg10.dtd">
<svg version="1.0" xmlns="http://www.w3.org/2000/svg"
 width="822.000000pt" height="628.000000pt" viewBox="0 0 822.000000 628.000000"
 preserveAspectRatio="xMidYMid meet">

<g transform="translate(0.000000,628.000000) scale(0.100000,-0.100000)"
fill="#000000" stroke="none">
<path d="M3812 5250 c-216 -45 -334 -297 -228 -486 43 -77 2617 -3798 2655
-3837 188 -199 510 -103 571 169 16 70 -3 168 -44 236 -64 105 -2618 3794
-2649 3826 -69 72 -205 112 -305 92z"/>
<path d="M1111 5209 c-98 -19 -202 -102 -243 -193 -18 -41 -23 -69 -23 -141 0
-80 3 -97 31 -155 22 -45 53 -86 100 -132 130 -125 1316 -1158 1325 -1153 12
8 404 554 404 564 0 14 -1279 1131 -1330 1162 -79 46 -182 65 -264 48z"/>
<path d="M7435 5145 c-65 -25 -2315 -1329 -2311 -1340 2 -5 88 -131 191 -280
102 -148 190 -276 195 -284 6 -11 265 135 1121 630 1228 710 1203 694 1248
814 31 83 27 208 -9 279 -33 66 -96 128 -161 162 -45 23 -69 28 -144 31 -63 2
-102 -2 -130 -12z"/>
<path d="M2260 3139 c-674 -974 -1237 -1794 -1252 -1823 -74 -138 -47 -300 67
-405 70 -65 124 -85 225 -86 73 0 93 4 140 27 30 15 74 46 97 70 22 24 554
786 1182 1695 l1141 1651 -151 219 c-169 245 -192 284 -209 366 -6 31 -12 57
-14 57 -1 0 -553 -797 -1226 -1771z"/>
<path d="M3516 2885 l-920 -533 -464 -672 c-255 -369 -462 -673 -460 -675 5
-5 3168 1829 3168 1838 0 11 -389 572 -398 574 -4 0 -421 -239 -926 -532z"/>
</g>
</svg>
