<svg width="43" height="43" viewBox="0 0 43 43" fill="none" xmlns="http://www.w3.org/2000/svg">
<path d="M21.6472 0.470703C9.95285 0.470703 0.470703 9.95285 0.470703 21.6472C0.470703 33.3415 9.95285 42.8236 21.6472 42.8236C33.3415 42.8236 42.8236 33.3415 42.8236 21.6472C42.8236 9.95285 33.3415 0.470703 21.6472 0.470703ZM31.8242 16.4334C31.8383 16.6556 31.8383 16.8872 31.8383 17.1141C31.8383 24.0532 26.5537 32.0463 16.8966 32.0463C13.9187 32.0463 11.1582 31.1813 8.83257 29.6923C9.25799 29.7396 9.66451 29.7585 10.0994 29.7585C12.5574 29.7585 14.8168 28.9266 16.6178 27.518C14.311 27.4707 12.373 25.9581 11.7112 23.8783C12.5195 23.9964 13.2475 23.9964 14.0794 23.7837C12.8917 23.5424 11.8241 22.8974 11.0581 21.9581C10.292 21.0189 9.87479 19.8434 9.87722 18.6314V18.5652C10.5721 18.9576 11.3898 19.1986 12.2454 19.2317C11.5262 18.7524 10.9363 18.103 10.5282 17.3411C10.12 16.5792 9.90616 15.7284 9.90558 14.8641C9.90558 13.8856 10.1608 12.9922 10.6193 12.217C11.9377 13.8399 13.5828 15.1673 15.4477 16.1128C17.3126 17.0583 19.3556 17.6007 21.4439 17.7049C20.7018 14.1361 23.3678 11.248 26.5726 11.248C28.0852 11.248 29.4465 11.8814 30.4061 12.9024C31.5925 12.6803 32.727 12.2359 33.7386 11.6403C33.3462 12.8552 32.5237 13.8809 31.4318 14.5285C32.4907 14.415 33.5117 14.122 34.457 13.7107C33.7433 14.7601 32.8499 15.6913 31.8242 16.4334Z" fill="black"/>
</svg>
