<svg width="44" height="43" viewBox="0 0 44 43" fill="none" xmlns="http://www.w3.org/2000/svg">
<path d="M22.1224 10.4919C16.1131 10.4919 11.266 15.339 11.266 21.3483C11.266 27.3575 16.1131 32.2046 22.1224 32.2046C28.1316 32.2046 32.9787 27.3575 32.9787 21.3483C32.9787 15.339 28.1316 10.4919 22.1224 10.4919ZM22.1224 28.4063C18.239 28.4063 15.0643 25.241 15.0643 21.3483C15.0643 17.4555 18.2296 14.2902 22.1224 14.2902C26.0151 14.2902 29.1804 17.4555 29.1804 21.3483C29.1804 25.241 26.0057 28.4063 22.1224 28.4063ZM35.955 10.0478C35.955 11.4557 34.8212 12.58 33.4228 12.58C32.0149 12.58 30.8906 11.4462 30.8906 10.0478C30.8906 8.64946 32.0244 7.51564 33.4228 7.51564C34.8212 7.51564 35.955 8.64946 35.955 10.0478ZM43.1453 12.6178C42.9847 9.22582 42.2099 6.2212 39.7249 3.74569C37.2494 1.27018 34.2448 0.495401 30.8528 0.325328C27.3568 0.126909 16.8784 0.126909 13.3825 0.325328C9.99992 0.485952 6.99529 1.26073 4.51034 3.73624C2.02538 6.21175 1.26005 9.21637 1.08998 12.6084C0.891557 16.1043 0.891557 26.5827 1.08998 30.0787C1.2506 33.4707 2.02538 36.4753 4.51034 38.9508C6.99529 41.4263 9.99047 42.2011 13.3825 42.3712C16.8784 42.5696 27.3568 42.5696 30.8528 42.3712C34.2448 42.2106 37.2494 41.4358 39.7249 38.9508C42.2004 36.4753 42.9752 33.4707 43.1453 30.0787C43.3437 26.5827 43.3437 16.1138 43.1453 12.6178ZM38.6289 33.8297C37.8919 35.6816 36.4652 37.1084 34.6038 37.8548C31.8165 38.9603 25.2026 38.7052 22.1224 38.7052C19.0421 38.7052 12.4187 38.9508 9.64088 37.8548C7.78897 37.1178 6.36224 35.6911 5.61581 33.8297C4.51034 31.0424 4.76545 24.4285 4.76545 21.3483C4.76545 18.268 4.51979 11.6446 5.61581 8.86678C6.3528 7.01487 7.77952 5.58815 9.64088 4.84171C12.4282 3.73624 19.0421 3.99135 22.1224 3.99135C25.2026 3.99135 31.826 3.74569 34.6038 4.84171C36.4557 5.5787 37.8825 7.00542 38.6289 8.86678C39.7344 11.6541 39.4793 18.268 39.4793 21.3483C39.4793 24.4285 39.7344 31.0519 38.6289 33.8297Z" fill="black"/>
</svg>
