<svg width="44" height="43" viewBox="0 0 44 43" fill="none" xmlns="http://www.w3.org/2000/svg">
<g clip-path="url(#clip0_22_156)">
<mask id="mask0_22_156" style="mask-type:luminance" maskUnits="userSpaceOnUse" x="0" y="0" width="44" height="43">
<path d="M44 0H0V43H44V0Z" fill="white"/>
</mask>
<g mask="url(#mask0_22_156)">
<g opacity="0.9">
<path d="M9.28879 18.6333C8.5667 21.4275 4.42334 20.2258 3.57644 22.9355C2.72956 25.6451 5.53816 27.7111 7.86006 27.7111" fill="black"/>
<path d="M9.28879 18.6333C8.5667 21.4275 4.42334 20.2258 3.57644 22.9355C2.72956 25.6451 5.53816 27.7111 7.86006 27.7111" stroke="#2A3544" stroke-width="2.66667"/>
<path d="M36.6665 28.9055C38.7184 29.7383 41.5803 27.0914 40.5776 24.9638C39.5749 22.8362 36.6665 23.3646 36.6665 20.3521" fill="black"/>
<path d="M36.6665 28.9055C38.7184 29.7383 41.5803 27.0914 40.5776 24.9638C39.5749 22.8362 36.6665 23.3646 36.6665 20.3521" stroke="#2A3544" stroke-width="1.77778"/>
</g>
<path fill-rule="evenodd" clip-rule="evenodd" d="M33.7333 17.2C33.4632 17.2 33.2444 17.4139 33.2444 17.6777V21.0222C33.2444 21.2861 33.4632 21.5 33.7333 21.5H38.3777C38.6479 21.5 38.8666 21.2861 38.8666 21.0222V17.6777C38.8666 17.4139 38.6479 17.2 38.3777 17.2H33.7333ZM5.1333 24.6055C5.1333 24.3416 5.35218 24.1277 5.62219 24.1277H8.55552C8.82554 24.1277 9.04441 24.3416 9.04441 24.6055V28.9055C9.04441 29.1694 8.82554 29.3833 8.55552 29.3833H5.62219C5.35218 29.3833 5.1333 29.1694 5.1333 28.9055V24.6055ZM33.2444 26.2777C33.2444 26.0139 33.4632 25.8 33.7333 25.8H38.3777C38.6479 25.8 38.8666 26.0139 38.8666 26.2777V30.5777C38.8666 30.8416 38.6479 31.0555 38.3777 31.0555H33.7333C33.4632 31.0555 33.2444 30.8416 33.2444 30.5777V26.2777Z" fill="#273951"/>
<mask id="mask1_22_156" style="mask-type:alpha" maskUnits="userSpaceOnUse" x="5" y="17" width="34" height="15">
<path fill-rule="evenodd" clip-rule="evenodd" d="M33.7333 17.2C33.4632 17.2 33.2444 17.4139 33.2444 17.6777V21.0222C33.2444 21.2861 33.4632 21.5 33.7333 21.5H38.3777C38.6479 21.5 38.8666 21.2861 38.8666 21.0222V17.6777C38.8666 17.4139 38.6479 17.2 38.3777 17.2H33.7333ZM5.1333 24.6055C5.1333 24.3416 5.35218 24.1277 5.62219 24.1277H8.55552C8.82554 24.1277 9.04441 24.3416 9.04441 24.6055V28.9055C9.04441 29.1694 8.82554 29.3833 8.55552 29.3833H5.62219C5.35218 29.3833 5.1333 29.1694 5.1333 28.9055V24.6055ZM33.2444 26.2777C33.2444 26.0139 33.4632 25.8 33.7333 25.8H38.3777C38.6479 25.8 38.8666 26.0139 38.8666 26.2777V30.5777C38.8666 30.8416 38.6479 31.0555 38.3777 31.0555H33.7333C33.4632 31.0555 33.2444 30.8416 33.2444 30.5777V26.2777Z" fill="white"/>
</mask>
<g mask="url(#mask1_22_156)">
<path d="M44 15.7666H0V33.9222H44V15.7666Z" fill="#42A5F5"/>
</g>
<g filter="url(#filter0_di_22_156)">
<path fill-rule="evenodd" clip-rule="evenodd" d="M17.3555 7.88325C17.3555 5.24455 19.5443 3.10547 22.2444 3.10547C24.9444 3.10547 27.1332 5.24455 27.1332 7.88325V10.511H17.3555V7.88325Z" fill="white" fill-opacity="0.3"/>
</g>
<path fill-rule="evenodd" clip-rule="evenodd" d="M22.2444 8.59982C22.7844 8.59982 23.2222 8.36762 23.2222 7.57601C23.2222 6.78441 22.7844 5.73315 22.2444 5.73315C21.7044 5.73315 21.2666 6.78441 21.2666 7.57601C21.2666 8.36762 21.7044 8.59982 22.2444 8.59982Z" fill="white" fill-opacity="0.6"/>
<path d="M22.2444 3.46387C22.1094 3.46387 22 3.57082 22 3.70276C22 3.83469 22.1094 3.94164 22.2444 3.94164V3.46387ZM25.103 5.18088C25.1936 5.27866 25.3482 5.28614 25.4483 5.19756C25.5483 5.10898 25.556 4.9579 25.4653 4.86013L25.103 5.18088ZM26.0968 5.74461C26.0342 5.6277 25.8865 5.58248 25.7669 5.64363C25.6472 5.70479 25.601 5.84912 25.6636 5.96604L26.0968 5.74461ZM26.015 6.91722C26.0432 7.04622 26.1731 7.12842 26.3051 7.10081C26.4372 7.07319 26.5213 6.94622 26.493 6.81722L26.015 6.91722ZM22.2444 3.94164C23.3781 3.94164 24.3971 4.4194 25.103 5.18088L25.4653 4.86013C24.6707 4.00287 23.5218 3.46387 22.2444 3.46387V3.94164ZM25.6636 5.96604C25.8221 6.26219 25.9414 6.58139 26.015 6.91722L26.493 6.81722C26.41 6.43846 26.2754 6.07846 26.0968 5.74461L25.6636 5.96604Z" fill="white"/>
<path d="M29.3334 8.59985H15.1556C15.0206 8.59985 14.9111 8.70681 14.9111 8.83874V12.1832C14.9111 12.3151 15.0206 12.4221 15.1556 12.4221H29.3334C29.4684 12.4221 29.5778 12.3151 29.5778 12.1832V8.83874C29.5778 8.70681 29.4684 8.59985 29.3334 8.59985Z" fill="#42A5F5"/>
<path fill-rule="evenodd" clip-rule="evenodd" d="M6.11108 14.811C6.11108 12.4362 8.08103 10.511 10.5111 10.511H33.4889C35.9189 10.511 37.8889 12.4362 37.8889 14.811V21.2964C37.8889 22.3797 37.7004 23.4551 37.3315 24.4767L33.0584 36.3088C32.4375 38.0279 30.7746 39.1777 28.9091 39.1777H15.0908C13.2253 39.1777 11.5625 38.0279 10.9416 36.3088L6.66851 24.4767C6.29958 23.4551 6.11108 22.3797 6.11108 21.2964V14.811Z" fill="#0076DE"/>
<mask id="mask2_22_156" style="mask-type:alpha" maskUnits="userSpaceOnUse" x="6" y="10" width="32" height="30">
<path fill-rule="evenodd" clip-rule="evenodd" d="M6.11108 14.811C6.11108 12.4362 8.08103 10.511 10.5111 10.511H33.4889C35.9189 10.511 37.8889 12.4362 37.8889 14.811V21.2964C37.8889 22.3797 37.7004 23.4551 37.3315 24.4767L33.0584 36.3088C32.4375 38.0279 30.7746 39.1777 28.9091 39.1777H15.0908C13.2253 39.1777 11.5625 38.0279 10.9416 36.3088L6.66851 24.4767C6.29958 23.4551 6.11108 22.3797 6.11108 21.2964V14.811Z" fill="white"/>
</mask>
<g mask="url(#mask2_22_156)">
<path d="M38.3779 10.0332H5.62231V39.6554H38.3779V10.0332Z" fill="#1E88E5"/>
<path fill-rule="evenodd" clip-rule="evenodd" d="M35.4445 41.7216C34.6653 37.579 33.1108 41.1062 29.3707 40.3761C27.7182 40.0534 29.0534 38.6447 27.8209 38.0341C26.7799 37.5183 25.3612 37.9337 24.1687 37.6003C22.4477 37.1189 22.4703 36.1394 20.8668 35.993C19.3504 35.8547 17.7618 36.3107 16.2324 36.1394C13.346 35.816 14.5295 31.5472 12.365 30.7932C10.2005 30.0393 6.63687 31.3413 6.17041 33.4758C5.71566 35.5566 8.75437 43.2989 8.75437 43.2989H35.4445" fill="black" fill-opacity="0.2"/>
<path fill-rule="evenodd" clip-rule="evenodd" d="M44.2444 39.8387C31.7184 39.8387 30.4142 33.6772 24.2511 30.8543C18.088 28.0315 12.6881 35.3327 10.6162 28.2395C8.54423 21.1462 8.55567 43.256 8.55567 43.256H44.2444V39.8387Z" fill="black" fill-opacity="0.1"/>
<path fill-rule="evenodd" clip-rule="evenodd" d="M45.6074 12.703C42.69 12.4701 44.3781 15.285 43.2253 15.285C41.5223 15.285 42.7112 13.3791 40.6384 13.4266C40.0959 13.439 39.4298 13.8899 39.3888 14.5026C39.3003 15.8189 40.2974 18.0898 38.9395 18.1543C37.6732 18.2144 38.6696 15.8516 38.5374 14.2757C38.4618 13.3746 37.5151 12.6628 36.8341 12.6628C34.9834 12.6628 36.4219 16.4151 35.09 16.4151C33.758 16.4151 34.7947 14.2529 33.8477 13.1081C32.747 11.777 29.1301 11.1223 31.709 10.511H45.6788" fill="black" fill-opacity="0.4"/>
</g>
<path fill-rule="evenodd" clip-rule="evenodd" d="M17.1111 32.0641C17.1111 34.8262 18.6936 36.311 22 36.311C25.3044 36.311 26.8889 34.7968 26.8889 32.0641C26.8889 31.8906 26.6869 31.5332 26.1555 31.5332C22.3106 31.5332 19.8468 31.5332 17.8444 31.5332C17.3431 31.5332 17.1111 31.864 17.1111 32.0641Z" fill="black" fill-opacity="0.8"/>
<mask id="mask3_22_156" style="mask-type:alpha" maskUnits="userSpaceOnUse" x="17" y="31" width="10" height="6">
<path fill-rule="evenodd" clip-rule="evenodd" d="M17.1111 32.0641C17.1111 34.8262 18.6936 36.311 22 36.311C25.3044 36.311 26.8889 34.7968 26.8889 32.0641C26.8889 31.8906 26.6869 31.5332 26.1555 31.5332C22.3106 31.5332 19.8468 31.5332 17.8444 31.5332C17.3431 31.5332 17.1111 31.864 17.1111 32.0641Z" fill="white"/>
</mask>
<g mask="url(#mask3_22_156)">
<path d="M23.4667 30.0999H20.5333C20.2633 30.0999 20.0444 30.3138 20.0444 30.5776V32.9665C20.0444 33.2304 20.2633 33.4443 20.5333 33.4443H23.4667C23.7367 33.4443 23.9555 33.2304 23.9555 32.9665V30.5776C23.9555 30.3138 23.7367 30.0999 23.4667 30.0999Z" fill="white"/>
</g>
<path d="M33.7333 19.1111H10.2666C9.72658 19.1111 9.28882 19.5389 9.28882 20.0666V28.1889C9.28882 28.7166 9.72658 29.1444 10.2666 29.1444H33.7333C34.2733 29.1444 34.711 28.7166 34.711 28.1889V20.0666C34.711 19.5389 34.2733 19.1111 33.7333 19.1111Z" fill="black" fill-opacity="0.8"/>
<path d="M18.0889 24.1277H16.6222C16.3522 24.1277 16.1333 24.3416 16.1333 24.6055V26.2777C16.1333 26.5416 16.3522 26.7555 16.6222 26.7555H18.0889C18.3589 26.7555 18.5777 26.5416 18.5777 26.2777V24.6055C18.5777 24.3416 18.3589 24.1277 18.0889 24.1277Z" fill="#8BDDFF"/>
<path d="M27.3777 24.1277H25.911C25.641 24.1277 25.4221 24.3416 25.4221 24.6055V26.2777C25.4221 26.5416 25.641 26.7555 25.911 26.7555H27.3777C27.6477 26.7555 27.8666 26.5416 27.8666 26.2777V24.6055C27.8666 24.3416 27.6477 24.1277 27.3777 24.1277Z" fill="#8BDDFF"/>
<path fill-rule="evenodd" clip-rule="evenodd" d="M14.4222 19.1111H16.3777L12.2222 29.1444H10.2666L14.4222 19.1111Z" fill="white" fill-opacity="0.4"/>
</g>
</g>
<defs>
<filter id="filter0_di_22_156" x="13.7999" y="-0.450087" width="16.8889" height="14.5166" filterUnits="userSpaceOnUse" color-interpolation-filters="sRGB">
<feFlood flood-opacity="0" result="BackgroundImageFix"/>
<feColorMatrix in="SourceAlpha" type="matrix" values="0 0 0 0 0 0 0 0 0 0 0 0 0 0 0 0 0 0 127 0" result="hardAlpha"/>
<feOffset/>
<feGaussianBlur stdDeviation="1.77778"/>
<feColorMatrix type="matrix" values="0 0 0 0 1 0 0 0 0 1 0 0 0 0 1 0 0 0 0.5 0"/>
<feBlend mode="normal" in2="BackgroundImageFix" result="effect1_dropShadow_22_156"/>
<feBlend mode="normal" in="SourceGraphic" in2="effect1_dropShadow_22_156" result="shape"/>
<feColorMatrix in="SourceAlpha" type="matrix" values="0 0 0 0 0 0 0 0 0 0 0 0 0 0 0 0 0 0 127 0" result="hardAlpha"/>
<feOffset/>
<feGaussianBlur stdDeviation="0.888889"/>
<feComposite in2="hardAlpha" operator="arithmetic" k2="-1" k3="1"/>
<feColorMatrix type="matrix" values="0 0 0 0 1 0 0 0 0 1 0 0 0 0 1 0 0 0 0.5 0"/>
<feBlend mode="normal" in2="shape" result="effect2_innerShadow_22_156"/>
</filter>
<clipPath id="clip0_22_156">
<rect width="44" height="43" fill="white"/>
</clipPath>
</defs>
</svg>
